<?xml version="1.0" standalone="no"?>
<!DOCTYPE svg PUBLIC "-//W3C//DTD SVG 20010904//EN"
 "http://www.w3.org/TR/2001/REC-SVG-20010904/DTD/svg10.dtd">
<svg version="1.0" xmlns="http://www.w3.org/2000/svg"
 width="1707.000000pt" height="1707.000000pt" viewBox="0 0 1707.000000 1707.000000"
 preserveAspectRatio="xMidYMid meet">
<metadata>
Created by potrace 1.14, written by Peter Selinger 2001-2017
</metadata>
<g transform="translate(0.000000,1707.000000) scale(0.100000,-0.100000)"
fill="#000000" stroke="none">
<path d="M7609 16435 c-2 -2 -44 -6 -94 -9 -94 -7 -128 -10 -297 -31 -49 -6
-114 -16 -143 -21 -10 -2 -37 -6 -60 -10 -34 -5 -72 -12 -215 -40 -14 -3 -54
-12 -90 -20 -36 -9 -76 -18 -90 -20 -133 -26 -578 -172 -725 -238 -122 -55
-161 -74 -245 -115 -297 -148 -576 -332 -850 -560 -107 -90 -352 -327 -430
-416 -114 -131 -155 -181 -229 -279 -45 -60 -112 -154 -148 -210 -36 -55 -76
-117 -89 -137 -13 -19 -24 -39 -24 -43 0 -4 -8 -20 -19 -34 -51 -73 -201 -386
-268 -562 -101 -265 -196 -624 -237 -895 -29 -197 -33 -228 -42 -320 -3 -33
-7 -91 -9 -130 -6 -105 -6 -636 0 -750 5 -96 32 -334 40 -358 3 -7 7 -32 10
-57 9 -67 10 -69 33 -180 33 -153 47 -210 87 -345 122 -415 282 -756 533
-1140 47 -71 89 -134 94 -140 5 -5 43 -55 85 -110 42 -55 79 -102 82 -105 3
-3 26 -30 51 -60 134 -165 377 -405 600 -594 14 -11 57 -46 95 -76 39 -30 72
-57 75 -60 28 -29 388 -271 525 -352 158 -93 549 -298 570 -298 2 0 40 -16 82
-36 43 -20 92 -42 108 -50 37 -16 246 -97 335 -129 107 -39 474 -167 485 -169
6 -2 17 -6 25 -9 8 -3 38 -13 65 -22 28 -10 343 -116 700 -237 358 -121 709
-239 780 -263 685 -229 974 -334 1261 -456 134 -57 462 -216 554 -269 41 -23
90 -51 109 -62 68 -39 148 -92 239 -160 267 -197 470 -424 600 -668 68 -127
151 -376 168 -500 3 -25 8 -48 10 -51 7 -12 18 -235 18 -369 0 -324 -34 -505
-142 -760 -103 -246 -245 -446 -463 -655 -272 -261 -599 -447 -992 -565 -127
-38 -321 -80 -437 -95 -30 -4 -66 -9 -80 -10 -200 -27 -707 -27 -884 0 -12 2
-42 6 -67 9 -25 4 -57 9 -70 11 -13 2 -55 9 -94 15 -38 6 -133 26 -210 45
-500 122 -951 339 -1411 681 -120 88 -115 85 -219 170 -249 205 -509 467 -747
750 -263 313 -544 713 -762 1084 -54 91 -101 172 -106 180 -12 20 -95 169
-142 255 -63 116 -251 500 -322 660 -37 83 -78 173 -90 200 -13 28 -33 75 -46
105 -12 30 -37 89 -55 130 -17 41 -60 147 -95 235 -34 88 -66 169 -71 180 -5
11 -15 38 -22 60 l-14 40 -660 3 -660 2 -27 -30 -27 -31 6 -127 c3 -70 7 -158
10 -197 2 -38 7 -119 10 -180 3 -60 7 -146 10 -190 2 -44 7 -129 10 -190 12
-248 16 -324 20 -400 3 -44 7 -125 10 -180 3 -55 7 -140 10 -190 3 -49 7 -135
10 -190 3 -55 7 -145 10 -200 12 -228 15 -295 20 -390 2 -55 7 -138 10 -185 2
-47 7 -139 10 -205 3 -66 8 -149 10 -185 2 -36 6 -123 10 -195 3 -71 7 -157
10 -190 2 -33 7 -116 10 -185 3 -69 8 -156 10 -195 2 -38 7 -122 10 -185 3
-63 7 -155 10 -205 3 -49 7 -137 10 -195 3 -58 7 -139 10 -180 2 -41 7 -133
10 -205 3 -71 8 -157 10 -190 2 -33 7 -121 10 -195 4 -74 8 -166 11 -205 6
-119 13 -256 19 -360 10 -197 17 -260 26 -270 10 -10 1029 -17 1115 -8 22 3
41 10 41 16 0 7 6 46 12 87 7 41 15 89 17 105 19 123 79 305 141 430 47 95
134 217 178 249 14 11 35 28 47 38 64 55 149 75 303 72 204 -4 315 -32 700
-180 174 -66 528 -208 600 -239 113 -50 611 -222 905 -314 120 -37 364 -106
450 -126 207 -50 448 -105 473 -109 17 -3 82 -14 142 -25 61 -11 135 -23 165
-27 30 -3 57 -8 60 -10 3 -1 44 -6 90 -9 47 -4 101 -9 120 -11 211 -22 912
-22 1110 1 19 2 62 6 94 9 33 4 71 8 85 10 14 3 49 7 76 11 61 7 70 9 220 35
66 12 132 23 146 25 15 3 82 18 150 35 68 17 131 33 140 35 112 24 513 161
639 217 129 58 168 77 275 130 158 79 391 219 537 321 107 75 294 219 343 264
11 10 52 45 90 78 38 33 125 116 195 185 479 475 820 1005 1044 1622 39 109
111 339 121 386 2 10 15 62 28 117 14 55 33 136 41 180 8 44 17 90 20 101 12
57 44 282 52 362 3 32 7 67 9 79 29 169 25 941 -6 1218 -18 162 -25 210 -50
355 -25 147 -25 146 -39 205 -6 28 -14 61 -16 75 -17 91 -90 340 -151 515
-246 699 -673 1319 -1258 1823 -152 131 -155 133 -200 166 -22 17 -42 33 -45
36 -17 20 -279 202 -410 285 -41 26 -91 58 -110 70 -118 78 -594 327 -780 408
-362 157 -559 232 -911 347 -140 45 -263 86 -274 90 -11 5 -42 16 -70 24 -45
12 -174 53 -920 291 -110 35 -301 96 -425 135 -274 87 -514 165 -595 192 -33
11 -67 21 -75 23 -21 4 -328 114 -365 130 -16 7 -79 34 -140 60 -426 181 -764
404 -1055 695 -313 312 -483 628 -526 973 -11 95 -5 356 11 439 3 12 7 40 10
63 20 137 104 354 193 495 196 310 508 560 927 745 109 48 384 130 505 150 19
3 42 8 50 10 8 2 31 6 50 9 19 2 64 9 100 15 118 18 202 22 525 22 391 -1 431
-4 662 -52 29 -5 56 -11 60 -11 5 0 18 -4 31 -9 12 -5 33 -11 46 -13 44 -8
182 -49 280 -83 492 -171 957 -464 1370 -863 120 -116 196 -195 276 -285 30
-33 56 -62 60 -65 11 -9 185 -224 251 -310 35 -46 70 -91 76 -100 28 -35 99
-137 226 -325 251 -372 423 -677 761 -1352 42 -84 78 -153 79 -154 1 -1 237
-3 523 -6 l521 -4 35 41 c27 31 35 48 33 73 -2 18 -6 95 -10 172 -11 226 -21
417 -30 580 -3 44 -7 132 -10 195 -3 63 -7 144 -10 180 -2 36 -6 117 -10 180
-3 63 -8 149 -10 190 -2 41 -7 129 -10 195 -3 66 -8 149 -10 185 -2 36 -7 124
-10 195 -3 72 -8 164 -10 205 -3 41 -7 127 -10 190 -3 63 -7 144 -10 180 -2
36 -7 121 -10 190 -3 69 -8 157 -10 195 -2 39 -7 126 -10 195 -4 69 -8 159
-11 200 -2 41 -6 122 -9 180 -3 58 -8 148 -10 200 -13 231 -15 271 -20 380 -4
63 -8 144 -10 180 -2 36 -7 126 -10 200 -4 74 -10 139 -15 144 -12 12 -913 5
-995 -8 -21 -3 -27 -16 -70 -161 -15 -49 -42 -125 -60 -167 -32 -73 -116 -221
-139 -244 -6 -6 -25 -27 -43 -47 -54 -62 -174 -135 -252 -153 -55 -13 -189
-12 -266 2 -44 8 -98 17 -120 20 -41 5 -167 45 -220 69 -16 8 -113 50 -215 95
-102 44 -194 85 -205 90 -144 68 -640 242 -910 320 -241 69 -562 146 -690 165
-11 2 -60 10 -110 19 -49 8 -144 22 -210 30 -66 9 -140 18 -165 22 -49 6 -805
16 -811 9z"/>
</g>
</svg>
