<svg width="116" height="40" viewBox="0 0 116 40" fill="none" xmlns="http://www.w3.org/2000/svg">
<g filter="url(#filter0_d_3303_36)">
<path d="M60.0479 11.94C59.9545 12.0933 59.8577 12.2067 59.7577 12.28C59.6642 12.3467 59.5408 12.38 59.3873 12.38C59.2405 12.38 59.0804 12.33 58.9069 12.23C58.7401 12.1233 58.5433 12.01 58.3164 11.89C58.0896 11.77 57.8293 11.66 57.5358 11.56C57.2422 11.4533 56.8985 11.4 56.5049 11.4C55.811 11.4 55.2905 11.5567 54.9435 11.87C54.5966 12.1767 54.4231 12.58 54.4231 13.08C54.4231 13.4 54.5165 13.6667 54.7033 13.88C54.8968 14.0867 55.1471 14.2667 55.454 14.42C55.7676 14.5733 56.1212 14.71 56.5149 14.83C56.9086 14.95 57.3122 15.0833 57.7259 15.23C58.1396 15.37 58.5433 15.5367 58.937 15.73C59.3306 15.9233 59.6809 16.1667 59.9879 16.46C60.3015 16.7533 60.5517 17.1133 60.7385 17.54C60.932 17.96 61.0287 18.4733 61.0287 19.08C61.0287 19.74 60.912 20.36 60.6784 20.94C60.4516 21.5133 60.1213 22.0167 59.6876 22.45C59.2539 22.8767 58.7168 23.2133 58.0762 23.46C57.4423 23.7067 56.7217 23.83 55.9144 23.83C55.454 23.83 54.9936 23.7833 54.5332 23.69C54.0795 23.5967 53.6391 23.4667 53.2121 23.3C52.7917 23.1333 52.3947 22.9333 52.021 22.7C51.6474 22.4667 51.3204 22.2067 51.0402 21.92L51.921 20.5C51.9944 20.3933 52.0911 20.3067 52.2112 20.24C52.3313 20.1667 52.4581 20.13 52.5915 20.13C52.7717 20.13 52.9618 20.1967 53.162 20.33C53.3622 20.4633 53.5924 20.61 53.8526 20.77C54.1128 20.93 54.4131 21.0767 54.7534 21.21C55.1003 21.3433 55.514 21.41 55.9944 21.41C56.695 21.41 57.2355 21.25 57.6158 20.93C58.0028 20.61 58.1963 20.1333 58.1963 19.5C58.1963 19.1333 58.0996 18.8367 57.9061 18.61C57.7192 18.3833 57.4724 18.1933 57.1654 18.04C56.8585 17.8867 56.5082 17.7567 56.1145 17.65C55.7209 17.5367 55.3172 17.4133 54.9035 17.28C54.4898 17.1467 54.0861 16.9867 53.6925 16.8C53.2988 16.6133 52.9485 16.3667 52.6416 16.06C52.3346 15.7533 52.0844 15.3733 51.8909 14.92C51.7041 14.4667 51.6107 13.9033 51.6107 13.23C51.6107 12.69 51.7175 12.1667 51.931 11.66C52.1445 11.1533 52.4581 10.7033 52.8718 10.31C53.2855 9.91667 53.7926 9.6 54.3931 9.36C55.0003 9.12 55.6942 9 56.4749 9C57.3489 9 58.1563 9.13667 58.8969 9.41C59.6442 9.67667 60.2748 10.05 60.7885 10.53L60.0479 11.94Z" fill="white"/>
<path d="M78.8396 16.41C78.8396 17.47 78.6594 18.4533 78.2991 19.36C77.9455 20.2667 77.4417 21.05 76.7878 21.71C76.1406 22.37 75.36 22.89 74.4458 23.27C73.5317 23.6433 72.5175 23.83 71.4032 23.83C70.289 23.83 69.2748 23.6433 68.3606 23.27C67.4465 22.89 66.6625 22.37 66.0086 21.71C65.3547 21.05 64.8476 20.2667 64.4873 19.36C64.1337 18.4533 63.9569 17.47 63.9569 16.41C63.9569 15.35 64.1337 14.37 64.4873 13.47C64.8476 12.5633 65.3547 11.78 66.0086 11.12C66.6625 10.46 67.4465 9.94333 68.3606 9.57C69.2748 9.19 70.289 9 71.4032 9C72.5175 9 73.5317 9.19 74.4458 9.57C75.36 9.94333 76.1406 10.4633 76.7878 11.13C77.4417 11.79 77.9455 12.5733 78.2991 13.48C78.6594 14.38 78.8396 15.3567 78.8396 16.41ZM75.767 16.41C75.767 15.65 75.6669 14.97 75.4667 14.37C75.2665 13.7633 74.9763 13.25 74.596 12.83C74.2223 12.4033 73.7653 12.08 73.2248 11.86C72.691 11.6333 72.0838 11.52 71.4032 11.52C70.7227 11.52 70.1121 11.6333 69.5717 11.86C69.0312 12.08 68.5708 12.4033 68.1905 12.83C67.8168 13.25 67.5299 13.7633 67.3298 14.37C67.1296 14.97 67.0295 15.65 67.0295 16.41C67.0295 17.1767 67.1296 17.8633 67.3298 18.47C67.5299 19.07 67.8168 19.58 68.1905 20C68.5708 20.42 69.0312 20.7433 69.5717 20.97C70.1121 21.19 70.7227 21.3 71.4032 21.3C72.0838 21.3 72.691 21.19 73.2248 20.97C73.7653 20.7433 74.2223 20.42 74.596 20C74.9763 19.58 75.2665 19.07 75.4667 18.47C75.6669 17.8633 75.767 17.1767 75.767 16.41Z" fill="white"/>
<path d="M91.2511 21.23V23.67H82.6338V9.16H85.6363V21.23H91.2511Z" fill="white"/>
<path d="M97.7159 23.67H94.6933V9.16H97.7159V23.67Z" fill="white"/>
<path d="M110.221 11.94C110.128 12.0933 110.031 12.2067 109.931 12.28C109.838 12.3467 109.714 12.38 109.561 12.38C109.414 12.38 109.254 12.33 109.08 12.23C108.913 12.1233 108.717 12.01 108.49 11.89C108.263 11.77 108.003 11.66 107.709 11.56C107.416 11.4533 107.072 11.4 106.678 11.4C105.984 11.4 105.464 11.5567 105.117 11.87C104.77 12.1767 104.596 12.58 104.596 13.08C104.596 13.4 104.69 13.6667 104.877 13.88C105.07 14.0867 105.32 14.2667 105.627 14.42C105.941 14.5733 106.295 14.71 106.688 14.83C107.082 14.95 107.486 15.0833 107.899 15.23C108.313 15.37 108.717 15.5367 109.11 15.73C109.504 15.9233 109.854 16.1667 110.161 16.46C110.475 16.7533 110.725 17.1133 110.912 17.54C111.105 17.96 111.202 18.4733 111.202 19.08C111.202 19.74 111.085 20.36 110.852 20.94C110.625 21.5133 110.295 22.0167 109.861 22.45C109.427 22.8767 108.89 23.2133 108.25 23.46C107.616 23.7067 106.895 23.83 106.088 23.83C105.627 23.83 105.167 23.7833 104.707 23.69C104.253 23.5967 103.812 23.4667 103.385 23.3C102.965 23.1333 102.568 22.9333 102.194 22.7C101.821 22.4667 101.494 22.2067 101.214 21.92L102.094 20.5C102.168 20.3933 102.264 20.3067 102.385 20.24C102.505 20.1667 102.631 20.13 102.765 20.13C102.945 20.13 103.135 20.1967 103.335 20.33C103.536 20.4633 103.766 20.61 104.026 20.77C104.286 20.93 104.586 21.0767 104.927 21.21C105.274 21.3433 105.687 21.41 106.168 21.41C106.868 21.41 107.409 21.25 107.789 20.93C108.176 20.61 108.37 20.1333 108.37 19.5C108.37 19.1333 108.273 18.8367 108.079 18.61C107.893 18.3833 107.646 18.1933 107.339 18.04C107.032 17.8867 106.682 17.7567 106.288 17.65C105.894 17.5367 105.491 17.4133 105.077 17.28C104.663 17.1467 104.259 16.9867 103.866 16.8C103.472 16.6133 103.122 16.3667 102.815 16.06C102.508 15.7533 102.258 15.3733 102.064 14.92C101.877 14.4667 101.784 13.9033 101.784 13.23C101.784 12.69 101.891 12.1667 102.104 11.66C102.318 11.1533 102.631 10.7033 103.045 10.31C103.459 9.91667 103.966 9.6 104.566 9.36C105.174 9.12 105.868 9 106.648 9C107.522 9 108.33 9.13667 109.07 9.41C109.818 9.67667 110.448 10.05 110.962 10.53L110.221 11.94Z" fill="white"/>
<path fill-rule="evenodd" clip-rule="evenodd" d="M25.0937 4.75L27.5201 7.17431L34.7006 0H29.7852L25.0937 4.75ZM36.0274 8.11181L32.6001 4.75L36.0274 1.32568V8.11181ZM10.0785 19.7489L16.2572 13.5755L18.6832 15.9994L12.5046 22.1728L10.0785 19.7489ZM25.0898 19.7505L31.2684 13.5771L33.6944 16.0011L27.5158 22.1745L25.0898 19.7505ZM20.0097 17.326L17.5837 19.7499L23.7624 25.9233L26.1884 23.4994L20.0097 17.326ZM16.2605 21.0757L22.4401 27.25L20.0137 29.7368L13.8341 23.5L16.2605 21.0757ZM35.0891 17.3257L36.0274 18.2632V23.1118L32.6001 19.75L35.0891 17.3257ZM6.32615 15.9989L12.5048 9.8255L14.9308 12.2494L8.75218 18.4228L6.32615 15.9989ZM27.516 9.82713L21.3374 16.0005L23.7634 18.4245L29.9421 12.2511L27.516 9.82713ZM31.2733 6.07568L36.0274 10.7632V15.6118L28.8469 8.5L31.2733 6.07568ZM17.5873 4.75L23.7669 10.9243L26.1933 8.5L20.0137 2.26318L17.5873 4.75ZM16.2582 6.07672L13.8321 8.50067L20.0108 14.6741L22.4368 12.2501L16.2582 6.07672ZM29.9465 27.25L27.5201 24.8257L20.4022 32H25.255L29.9465 27.25ZM16.2605 28.5757L18.6869 31.0625L17.7486 32H12.8958L16.2605 28.5757ZM14.9337 27.25L12.5073 24.8257L5.32683 32H10.2422L14.9337 27.25ZM28.8469 23.5L31.2733 21.0757L36.0274 25.7632V30.6743L28.8469 23.5ZM4 23.8882V30.6743L7.42724 27.25L4 23.8882ZM27.9086 32L31.2733 28.5757L34.7006 32H27.9086ZM21.3405 0.9375L23.7669 3.42431L27.1316 0H22.2788L21.3405 0.9375ZM12.1188 0L8.75407 3.42431L5.32683 0H12.1188ZM8.75406 25.9243L11.1805 23.5L4 16.3882V21.2368L8.75406 25.9243ZM12.5073 7.17431L10.0809 4.75L14.7724 0H19.6252L12.5073 7.17431ZM8.75406 10.9243L11.1805 8.5L4 1.32568V6.23681L8.75406 10.9243ZM7.42724 12.25L4.9383 14.6743L4 13.7368V8.88818L7.42724 12.25Z" fill="white"/>
</g>
<defs>
<filter id="filter0_d_3303_36" x="0" y="0" width="115.202" height="40" filterUnits="userSpaceOnUse" color-interpolation-filters="sRGB">
<feFlood flood-opacity="0" result="BackgroundImageFix"/>
<feColorMatrix in="SourceAlpha" type="matrix" values="0 0 0 0 0 0 0 0 0 0 0 0 0 0 0 0 0 0 127 0" result="hardAlpha"/>
<feOffset dy="4"/>
<feGaussianBlur stdDeviation="2"/>
<feComposite in2="hardAlpha" operator="out"/>
<feColorMatrix type="matrix" values="0 0 0 0 0 0 0 0 0 0 0 0 0 0 0 0 0 0 0.25 0"/>
<feBlend mode="normal" in2="BackgroundImageFix" result="effect1_dropShadow_3303_36"/>
<feBlend mode="normal" in="SourceGraphic" in2="effect1_dropShadow_3303_36" result="shape"/>
</filter>
</defs>
</svg>
