<svg width="99.000244" height="92.000000" viewBox="0 0 99.0002 92" fill="none" xmlns="http://www.w3.org/2000/svg" xmlns:xlink="http://www.w3.org/1999/xlink">
	<desc>
			Created with Pixso.
	</desc>
	<defs/>
	<path id="Vector" d="M88.7371 65.8896C86.4077 65.8896 84.3096 65.8896 82.2075 65.8896C72.3682 65.8896 62.5178 65.8848 52.6802 65.897C51.6553 65.897 50.6121 65.9585 49.5901 66.0439C47.0344 66.2642 44.7656 65.4141 42.8296 63.8774C42.2073 63.3818 41.9331 62.2446 41.8093 61.3535C41.4685 58.894 41.9817 56.6021 43.8389 54.7993C44.2688 54.3784 44.8179 54.0854 45.5706 53.5522C45.5706 55.4209 45.533 56.9731 45.5796 58.5215C45.6567 61.0366 47.7861 62.7725 50.2234 62.3604C51.9119 62.0757 53.2686 60.3501 53.3198 58.3149C53.3713 56.1533 53.4089 53.9888 53.3584 51.8403C53.3391 51.0625 53.6096 50.9067 54.3201 50.7607C59.8567 49.6455 65.3374 50.167 70.7512 51.3979C73.1785 51.9541 75.3005 53.248 76.604 55.5933C76.781 55.9204 77.4575 56.1123 77.9011 56.1147C82.9336 56.1426 87.9724 56.2427 93.0005 56.0991C96.0537 56.0073 98.2712 58.3877 98.3289 61.1167C98.5278 69.7529 98.8 78.3857 98.999 87.0132C99.0586 89.668 96.7788 91.9497 94.1865 91.999C91.7217 92.0396 89.342 89.7983 89.2649 87.2397C89.0632 80.6777 88.9058 74.1133 88.7397 67.5435C88.7261 67.0601 88.7371 66.5742 88.7371 65.8896Z" fill="#FFFFFF" fill-opacity="1.000000" fill-rule="evenodd"/>
	<path id="Vector" d="M16.625 26.1172C15.8237 25.1963 15.0793 24.3833 14.3801 23.5303C12.5872 21.334 10.4841 20.9546 8.54736 22.5098C6.6333 24.0488 6.44824 26.5146 8.20996 28.5928C9.57397 30.1943 11.0481 31.7051 12.488 33.2446C12.698 33.4775 12.9456 33.7476 13.2231 33.8237C15.1482 34.3403 14.9805 35.6294 14.8127 37.2363C14.4919 40.3574 14.1985 43.5225 14.425 46.6318C14.5908 48.9048 15.7339 51.0894 16.2207 53.3613C17.7983 60.6978 18.3521 68.1108 17.46 75.5962C16.9438 79.8975 16.1382 84.1035 14.5588 88.1543C13.8127 90.0542 11.7244 92.395 9.16895 91.8838C5.9834 91.2539 4.03833 88.4497 5.229 85.3887C6.87891 81.1387 7.46924 76.7114 7.94702 72.2495C8.42529 67.7944 8.0835 63.3618 7.25293 58.9565C6.9624 57.4155 6.77002 55.8486 6.39868 54.3315C6.28687 53.8623 5.8147 53.2769 5.37378 53.1187C2.36182 52.0542 1.06543 49.6235 0.598877 46.7881C-0.380859 40.7759 -0.234375 34.7783 1.60547 28.9058C2.25342 26.8237 2.82007 24.6807 3.76147 22.7329C4.82764 20.5205 6.66821 19.0703 9.15332 18.437C14.3782 17.105 17.6313 20.7769 16.625 26.1172Z" fill="#FFFFFF" fill-opacity="1.000000" fill-rule="evenodd"/>
	<path id="Vector" d="M61.8506 24.7769C62.0806 31.2217 56.092 37.043 49.4041 37.0381C43.1377 37.0337 36.9055 31.6172 37.0107 24.4365C37.1099 17.9019 42.6794 12.1924 49.6011 12.2681C56.6365 12.3403 62.1943 18.4077 61.8506 24.7769ZM49.3491 29.3701C52.177 29.4023 54.2532 27.4287 54.2781 24.667C54.2891 22.0728 52.0166 19.6816 49.5002 19.6479C47.0034 19.6211 44.4751 22.0015 44.5945 24.5366C44.7383 27.4224 46.0703 29.3223 49.3491 29.3701Z" fill="#FFFFFF" fill-opacity="1.000000" fill-rule="evenodd"/>
	<path id="Vector" d="M85.478 69.2119C85.478 70.8979 85.478 72.4565 85.478 74.0923C64.3674 74.0923 43.3354 74.0923 22.2056 74.0923C22.2056 72.4639 22.2056 70.875 22.2056 69.2119C43.2878 69.2119 64.3308 69.2119 85.478 69.2119Z" fill="#FFFFFF" fill-opacity="1.000000" fill-rule="evenodd"/>
	<path id="Vector" d="M22.1824 57.793C21.9019 53.9258 26.3174 48.6479 31.3708 48.9946C35.9919 49.3149 39.9912 53.2852 39.907 58.0361C39.8281 62.6909 35.76 66.6729 31.1199 66.6865C26.5962 66.7056 22.0356 62.7515 22.1824 57.793Z" fill="#FFFFFF" fill-opacity="1.000000" fill-rule="evenodd"/>
	<path id="Vector" d="M19.1741 0.000976562C22.9277 -0.0678711 27.6567 3.06494 27.7668 8.58545C27.8667 13.9355 23.9307 17.501 19.2759 17.6909C14.5532 17.8848 10.408 13.9272 10.3457 9.11426C10.2751 3.78271 14.1196 0.252441 19.1741 0.000976562Z" fill="#FFFFFF" fill-opacity="1.000000" fill-rule="evenodd"/>
	<path id="Vector" d="M31.0769 38.7627C26.7393 38.8145 22.6189 37.8789 18.6826 36.0845C14.5642 34.2075 11.2249 31.3516 8.61328 27.6758C7.25024 25.7598 7.61035 24.0444 9.42456 22.9375C10.5051 22.2803 11.6309 22.1655 12.6831 23.0083C13.1682 23.3975 13.6465 23.8315 14.0151 24.3271C18.9578 30.9248 25.8108 32.8267 33.616 32.231C35.8032 32.0688 38.0371 31.2793 39.2737 34.0034C39.3352 34.1421 39.5862 34.1846 39.7053 34.314C40.1545 34.8271 41.063 35.6401 40.9558 35.8228C40.4937 36.5811 39.8301 37.418 39.0464 37.7129C37.7732 38.1938 36.3467 38.3325 34.9709 38.5098C33.6802 38.6665 32.374 38.6851 31.0769 38.7627Z" fill="#FFFFFF" fill-opacity="1.000000" fill-rule="evenodd"/>
	<path id="Vector" d="M46.3926 38.415C48.4375 38.415 50.3406 38.415 52.3948 38.415C52.4214 38.6997 52.4736 39.0835 52.4736 39.4658C52.481 45.6167 52.4883 51.7622 52.4719 57.9194C52.4683 59.209 52.2776 60.4761 51.0254 61.1865C49.0554 62.3105 46.8418 61.1899 46.4668 58.9272C46.3926 58.4438 46.3962 57.9517 46.3943 57.4604C46.3906 51.5283 46.3926 45.5967 46.3926 39.6719C46.3926 39.2319 46.3926 38.7915 46.3926 38.415Z" fill="#FFFFFF" fill-opacity="1.000000" fill-rule="evenodd"/>
	<path id="Vector" d="M49.4077 28.3779C47.4104 28.3589 45.8567 26.7231 45.8464 24.6128C45.8337 22.6284 47.5176 20.9102 49.4829 20.8999C51.395 20.8916 53.1194 22.7017 53.0532 24.6772C52.9983 26.7744 51.395 28.3975 49.4077 28.3779Z" fill="#FFFFFF" fill-opacity="1.000000" fill-rule="evenodd"/>
</svg>
