<svg width="87.000000" height="92.000000" viewBox="0 0 87 92" fill="none" xmlns="http://www.w3.org/2000/svg" xmlns:xlink="http://www.w3.org/1999/xlink">
	<desc>
			Created with Pixso.
	</desc>
	<defs/>
	<path id="Vector" d="M7.23767 62.0933C7.54846 62.144 7.85828 62.1865 8.16907 62.2212C13.4611 62.8267 18.7101 61.4507 23.041 58.2983C26.463 55.812 29.0084 52.4365 30.4492 48.5547C36.6138 52.6191 38.6147 60.8706 34.8655 67.3398C33.8671 69.0591 34.4529 71.2632 36.1697 72.2612C36.6122 72.519 37.0861 72.6689 37.5658 72.7246C38.9429 72.8823 40.3466 72.231 41.0864 70.9536C46.5201 61.5806 43.9681 49.7368 35.5475 43.354C35.5541 43.3125 35.5632 43.2725 35.5673 43.2319L37.2626 28.4087C40.1584 31.0132 43.8182 32.6787 47.7125 33.126C50.2653 33.4194 52.9209 33.188 55.525 32.3545C57.1466 31.8369 58.0414 30.0996 57.5244 28.4766C57.0066 26.8525 55.2723 25.9565 53.6492 26.4761C47.0347 28.5908 39.938 24.9248 37.8252 18.3057C37.5634 17.4819 36.9858 16.8472 36.2699 16.4883C35.6576 16.002 34.9252 15.6797 34.114 15.5864L32.2025 15.3677C31.8214 15.3252 31.4452 15.3384 31.0798 15.396C21.1519 14.7173 12.321 21.9951 11.1776 31.9917C10.9836 33.6841 12.1984 35.2134 13.8895 35.4087C15.5814 35.6035 17.1093 34.3872 17.3032 32.6943C17.9197 27.3052 21.8636 23.0923 26.8441 21.8779L24.5457 41.9697C24.5109 42.2788 24.5051 42.5835 24.52 42.8843C24.4811 43.0205 24.4487 43.1572 24.4255 43.3003C23.8381 47.0117 21.8462 50.27 18.8145 52.4756C15.7827 54.6802 12.0732 55.5737 8.36377 54.9824C6.40259 54.6729 4.55981 56.0107 4.24915 57.9741C3.93677 59.9395 5.27563 61.7817 7.23767 62.0933Z" fill="#FFFFFF" fill-opacity="1.000000" fill-rule="nonzero"/>
	<path id="Vector" d="M42.0532 7.12109C42.0532 11.0537 38.8684 14.2422 34.9399 14.2422C31.0114 14.2422 27.8267 11.0537 27.8267 7.12109C27.8267 3.18799 31.0114 0 34.9399 0C38.8684 0 42.0532 3.18799 42.0532 7.12109Z" fill="#FFFFFF" fill-opacity="1.000000" fill-rule="evenodd"/>
	<path id="Vector" d="M76.8241 75.564L6.05273 75.564C2.71521 75.564 0 78.2803 0 81.623C0 84.9629 2.71521 87.6807 6.05273 87.6807L76.8241 87.6807C80.1606 87.6807 82.8776 84.9634 82.8776 81.623C82.8767 78.2812 80.1606 75.564 76.8241 75.564ZM6.05273 85.7026C3.80481 85.7026 1.97693 83.8726 1.97693 81.623C1.97693 79.3721 3.80481 77.5415 6.05273 77.5415L8.91785 77.5415C7.0188 77.9277 5.58789 79.6074 5.58789 81.623C5.58789 83.6387 7.0188 85.3179 8.91785 85.7026L6.05273 85.7026ZM10.5767 85.7026C12.4766 85.3179 13.9059 83.6387 13.9059 81.623C13.9059 79.6074 12.4766 77.9277 10.5767 77.5415L72.2992 77.5415C70.401 77.9277 68.9692 79.6074 68.9692 81.623C68.9692 83.6387 70.401 85.3179 72.3009 85.7026L10.5767 85.7026ZM76.8241 85.7026L73.9604 85.7026C75.8588 85.3179 77.2905 83.6387 77.2905 81.623C77.2905 79.6074 75.8588 77.9277 73.9604 77.5415L76.8241 77.5415C79.0719 77.5415 80.8989 79.3721 80.8989 81.623C80.8989 83.8726 79.0719 85.7026 76.8241 85.7026Z" fill="#FFFFFF" fill-opacity="1.000000" fill-rule="nonzero"/>
	<path id="Vector" d="M79.8003 88.8955L3.07568 88.8955C2.21899 88.8955 1.52466 89.5898 1.52466 90.4468C1.52466 91.3042 2.21899 92 3.07568 92L79.7996 92C80.6554 92 81.3514 91.3042 81.3514 90.4468C81.3523 89.5898 80.6562 88.8955 79.8003 88.8955Z" fill="#FFFFFF" fill-opacity="1.000000" fill-rule="nonzero"/>
	<path id="Vector" d="M67.9618 29.728L77.9843 43.0229L60.3431 72.7471L79.7142 72.7471L86.9999 44.4736L86.7 44.3286L86.8615 44.2051L75.1479 28.6699L81.9597 22.6494L79.9761 20.4014L73.3392 26.2686L72.7534 25.4922L81.9779 17.3359L78.9652 13.9209L62.1569 28.7803L65.1687 32.1968L67.9618 29.728Z" fill="#FFFFFF" fill-opacity="1.000000" fill-rule="nonzero"/>
</svg>
