<svg width="77.000000" height="92.000000" viewBox="0 0 77 92" fill="none" xmlns="http://www.w3.org/2000/svg" xmlns:xlink="http://www.w3.org/1999/xlink">
	<desc>
			Created with Pixso.
	</desc>
	<defs/>
	<path id="Vector" d="M66.6714 91.7275C69.897 91.7275 72.5457 88.9307 72.5457 85.5093L72.5457 82.6377C72.5457 80.3301 63.1584 71.9419 57.3252 66.8203C51.3608 61.5869 51.8989 61.0854 51.8989 50.4336L52.2971 51.5117C52.5593 52.3687 53.0281 53.1768 53.7007 53.8569L53.7129 53.8457L67.313 67.5518C69.5193 69.7764 73.1086 69.7847 75.3296 67.5732C77.5483 65.3589 77.5581 61.7603 75.3511 59.5371L66.7322 50.8521C58.7761 42.8301 59.6372 27.8638 51.6877 27.9893L38.8086 27.9893L38.1941 27.9893L25.3135 27.9893C17.3613 27.8647 18.2234 42.8301 10.2673 50.8521L1.64917 59.5371C-0.557861 61.7603 -0.548828 65.3589 1.67139 67.5732C3.88989 69.7837 7.47852 69.7764 9.68628 67.5518L23.2856 53.8462L23.2971 53.8579C23.9714 53.1777 24.4409 52.3687 24.7014 51.5127L25.0996 50.4341C25.0996 61.0864 25.637 61.5874 19.675 66.8208C13.8394 71.9419 4.4519 80.3311 4.4519 82.6382L4.4519 85.5103C4.4519 88.9312 7.10156 91.7285 10.3286 91.7285L23.5461 91.7285C21.2849 89.4604 20.9465 87.0684 21.2988 84.2188C22.4319 75.0132 37.4526 73.4688 47.062 74.0308C54.583 75.4106 51.3115 77.7246 49.5298 77.6768C49.2134 77.666 48.9021 77.6611 48.6064 77.6597C27.2593 75.6289 18.4954 85.4624 31.1294 91.2192C34.5703 92.6016 61.3657 91.7275 66.6714 91.7275ZM38.4866 0C31.2334 0 25.3528 5.89551 25.3528 13.1665C25.3528 20.4429 31.2334 26.3384 38.4866 26.3384C45.7412 26.3384 51.6221 20.4429 51.6221 13.1665C51.6221 5.89551 45.7422 0 38.4866 0Z" fill="#FFFFFF" fill-opacity="1.000000" fill-rule="evenodd"/>
</svg>
