<svg width="108.000732" height="92.000488" viewBox="0 0 108.001 92.0005" fill="none" xmlns="http://www.w3.org/2000/svg" xmlns:xlink="http://www.w3.org/1999/xlink">
	<desc>
			Created with Pixso.
	</desc>
	<defs/>
	<path id="Vector" d="M53.6875 13.1963C55.6675 11.3828 57.5405 9.53857 59.5464 7.854C65.2896 3.03027 71.8225 0.090332 79.4175 0.0151367C93.2375 -0.120117 104.103 7.49902 107.228 20.7354C108.609 26.6001 108.01 32.4126 106.446 38.1714C106.25 38.8901 105.821 38.9043 105.247 38.9033C96.6426 38.895 88.0376 38.8989 79.4336 38.8989C74.2495 38.8989 69.0654 38.877 63.8816 38.917C63.0474 38.9243 62.6736 38.6562 62.4395 37.8745C61.9944 36.3916 61.4614 34.9355 60.9404 33.4766C60.4175 32.0088 59.7554 31.4531 58.6074 31.457C57.3916 31.4595 56.6465 32.0449 56.1514 33.4946C54.3735 38.7095 52.6155 43.9326 50.8484 49.1523C50.7805 49.3511 50.6865 49.5405 50.5354 49.9004C50.3616 49.5024 50.2244 49.2397 50.1294 48.9619C46.5964 38.6768 43.0664 28.3862 39.5376 18.0967C39.5144 18.0293 39.4966 17.958 39.4724 17.8911C38.9324 16.3359 37.9465 15.4424 36.7834 15.4556C35.6545 15.4673 34.7134 16.3247 34.1885 17.855C31.7075 25.0762 29.2334 32.3003 26.7554 39.5229C26.6304 39.8896 26.4905 40.252 26.2744 40.8481C25.4094 38.3525 24.6445 36.0854 23.8296 33.8364C23.6245 33.2739 23.3464 32.6846 22.9434 32.2612C21.7234 30.9839 20.0054 31.2837 19.2004 32.854C18.2964 34.6167 17.3804 36.3745 16.5134 38.1562C16.2366 38.7246 15.8745 38.917 15.2576 38.915C11.0464 38.8931 6.8335 38.917 2.62158 38.873C2.27856 38.8701 1.71338 38.5239 1.63037 38.2314C-0.712402 29.8672 -0.866455 21.6289 3.4104 13.7642C7.51953 6.20654 14.0496 2.02148 22.3774 0.526367C32.9944 -1.37646 42.0176 1.97021 49.8516 9.08643C50.5974 9.76318 51.3025 10.4902 51.9885 11.23C52.6494 11.9419 53.2605 12.7002 53.6875 13.1963Z" fill="#FFFFFF" fill-opacity="1.000000" fill-rule="evenodd"/>
	<path id="Vector" d="M20.9136 40.2314C21.8926 43.0669 22.7847 45.6479 23.6755 48.231C24.2095 49.7788 25.1025 50.5781 26.2886 50.5752C27.4585 50.5718 28.3716 49.7627 28.9026 48.2148C31.3787 40.9912 33.8455 33.7642 36.3196 26.5376C36.4575 26.1357 36.6145 25.7407 36.8306 25.1631C38.1116 28.8818 39.3354 32.4194 40.5496 35.96C42.9685 43.0127 45.3835 50.0679 47.8005 57.1206C47.8706 57.3252 47.9395 57.5298 48.0176 57.73C48.5266 59.0396 49.4275 59.7524 50.5486 59.7363C51.6956 59.7217 52.6006 59.0244 53.0586 57.7061C54.0486 54.8452 55.0046 51.9756 55.9766 49.1099C56.7935 46.6929 57.6145 44.2754 58.4915 41.686C58.6956 41.9961 58.8364 42.1714 58.9365 42.3682C59.4785 43.4219 60.3564 43.8037 61.5066 43.8018C71.6584 43.7881 81.8145 43.793 91.9666 43.793C95.6035 43.793 99.2395 43.7939 102.875 43.7988C103.19 43.7988 103.505 43.834 104 43.8633C102.265 47.1611 100.006 49.8779 97.5356 52.5132C97.2896 52.3921 97.0615 52.3057 96.8586 52.1802C82.4155 43.2627 63.9885 51.2139 60.5386 67.8804C59.7046 71.9141 59.9536 75.9229 61.2825 79.8354C61.5356 80.5771 61.3936 81.0225 60.8796 81.626C58.7556 84.1177 56.7236 86.6934 54.6616 89.2412C54.4417 89.5132 54.2456 89.8027 53.9866 90.1528C53.1545 88.9995 52.3816 87.9229 51.6035 86.8511C47.8025 81.6118 42.9097 77.561 37.6885 73.8394C31.7065 69.5737 25.7214 65.3042 19.8625 60.8735C14.9666 57.1729 10.4194 53.0557 6.71753 48.1016C5.75464 46.814 4.90845 45.4351 3.86255 43.8823C4.50146 43.8408 4.86963 43.7979 5.23755 43.7979C9.01758 43.793 12.8005 43.7246 16.5786 43.8252C18.3726 43.873 19.5535 43.2695 20.1885 41.583C20.3396 41.186 20.5906 40.8262 20.9136 40.2314Z" fill="#FFFFFF" fill-opacity="1.000000" fill-rule="evenodd"/>
	<path id="Vector" d="M84.0925 91.9995C73.5134 92.1035 64.7046 83.3594 64.6184 72.6685C64.5344 61.999 73.1965 53.1055 83.7805 52.998C94.4895 52.8877 103.384 61.499 103.49 72.085C103.607 83.1777 95.1174 91.8931 84.0925 91.9995ZM68.4216 72.5005C68.3884 81.1455 75.4026 88.2231 84.0356 88.2524C92.6206 88.2822 99.7336 81.1987 99.7766 72.5796C99.8176 64.0547 92.7744 56.8374 84.3835 56.8032C75.4465 56.7681 68.4546 63.6445 68.4216 72.5005Z" fill="#FFFFFF" fill-opacity="1.000000" fill-rule="evenodd"/>
	<path id="Vector" d="M86.9294 69.6699C89.3254 69.6699 91.6206 69.6655 93.9185 69.6719C95.4285 69.6748 95.7004 69.9473 95.7004 71.4185C95.7004 72.2104 95.7056 73.0054 95.6956 73.7998C95.6804 75.0352 95.4146 75.3228 94.1565 75.3359C92.1064 75.3569 90.0525 75.3848 88.0034 75.3286C87.0986 75.3047 86.8276 75.6104 86.8535 76.502C86.9116 78.5586 86.8806 80.6172 86.8665 82.6733C86.8584 83.9087 86.6245 84.1382 85.4116 84.1626C84.5134 84.1807 83.6125 84.1836 82.7124 84.1685C81.5664 84.1494 81.2615 83.8374 81.2566 82.6562C81.2446 80.2778 81.2534 77.8999 81.2534 75.3438C79.7595 75.3438 78.3354 75.3418 76.9094 75.3438C75.9375 75.3457 74.9675 75.3691 73.9934 75.354C72.7886 75.333 72.4355 74.9849 72.4165 73.813C72.4016 72.9463 72.4016 72.0801 72.4165 71.2139C72.4355 70.0518 72.8054 69.6797 73.9895 69.6738C76.3606 69.6616 78.7295 69.6699 81.2524 69.6699C81.2524 68.5166 81.2524 67.4468 81.2524 66.3789C81.2524 65.0435 81.2424 63.7075 81.2546 62.373C81.2656 61.1899 81.6055 60.8511 82.8135 60.8262C83.6775 60.8101 84.5425 60.8052 85.4065 60.8291C86.5425 60.8594 86.8674 61.1899 86.8745 62.3462C86.8875 64.3677 86.8716 66.3877 86.8755 68.4092C86.8745 68.7954 86.9075 69.1802 86.9294 69.6699Z" fill="#FFFFFF" fill-opacity="1.000000" fill-rule="evenodd"/>
</svg>
