<svg width="87.000000" height="92.000000" viewBox="0 0 87 92" fill="none" xmlns="http://www.w3.org/2000/svg" xmlns:xlink="http://www.w3.org/1999/xlink">
	<desc>
			Created with Pixso.
	</desc>
	<defs/>
	<path id="Vector" d="M7.23 62.09C7.54 62.14 7.85 62.18 8.16 62.22C13.46 62.82 18.71 61.45 23.04 58.29C26.46 55.81 29 52.43 30.44 48.55C36.61 52.61 38.61 60.87 34.86 67.33C33.86 69.05 34.45 71.26 36.16 72.26C36.61 72.51 37.08 72.66 37.56 72.72C38.94 72.88 40.34 72.23 41.08 70.95C46.52 61.58 43.96 49.73 35.54 43.35C35.55 43.31 35.56 43.27 35.56 43.23L37.26 28.4C40.15 31.01 43.81 32.67 47.71 33.12C50.26 33.41 52.92 33.18 55.52 32.35C57.14 31.83 58.04 30.09 57.52 28.47C57 26.85 55.27 25.95 53.64 26.47C47.03 28.59 39.93 24.92 37.82 18.3C37.56 17.48 36.98 16.84 36.26 16.48C35.65 16 34.92 15.67 34.11 15.58L32.2 15.36C31.82 15.32 31.44 15.33 31.07 15.39C21.15 14.71 12.32 21.99 11.17 31.99C10.98 33.68 12.19 35.21 13.88 35.4C15.58 35.6 17.1 34.38 17.3 32.69C17.91 27.3 21.86 23.09 26.84 21.87L24.54 41.96C24.51 42.27 24.5 42.58 24.52 42.88C24.48 43.02 24.44 43.15 24.42 43.3C23.83 47.01 21.84 50.27 18.81 52.47C15.78 54.68 12.07 55.57 8.36 54.98C6.4 54.67 4.55 56.01 4.24 57.97C3.93 59.93 5.27 61.78 7.23 62.09Z" fill="#FFFFFF" fill-opacity="1.000000" fill-rule="nonzero"/>
	<path id="Vector" d="M42.05 7.12C42.05 11.05 38.86 14.24 34.93 14.24C31.01 14.24 27.82 11.05 27.82 7.12C27.82 3.18 31.01 0 34.93 0C38.86 0 42.05 3.18 42.05 7.12Z" fill="#FFFFFF" fill-opacity="1.000000" fill-rule="evenodd"/>
	<path id="Vector" d="M79.8 88.89L3.07 88.89C2.21 88.89 1.52 89.58 1.52 90.44C1.52 91.3 2.21 92 3.07 92L79.79 92C80.65 92 81.35 91.3 81.35 90.44C81.35 89.58 80.65 88.89 79.8 88.89Z" fill="#FFFFFF" fill-opacity="1.000000" fill-rule="nonzero"/>
	<path id="Vector" d="M67.96 29.72L77.98 43.02L60.34 72.74L79.71 72.74L86.99 44.47L86.7 44.32L86.86 44.2L75.14 28.66L81.95 22.64L79.97 20.4L73.33 26.26L72.75 25.49L81.97 17.33L78.96 13.92L62.15 28.78L65.16 32.19L67.96 29.72Z" fill="#FFFFFF" fill-opacity="1.000000" fill-rule="nonzero"/>
</svg>
