<svg width="91.000000" height="92.000000" viewBox="0 0 91 92" fill="none" xmlns="http://www.w3.org/2000/svg" xmlns:xlink="http://www.w3.org/1999/xlink">
	<desc>
			Created with Pixso.
	</desc>
	<defs/>
	<path id="Vector" d="M41.9136 92C39.4453 91.0591 36.8508 90.3633 34.5308 89.1348C26.1472 84.6987 21.3147 74.4072 22.9282 65.4824C24.8506 54.854 32.7141 47.3149 43.0334 46.1035C55.1936 44.6772 65.8879 52.9692 67.9922 65.7148C69.906 77.311 62.3684 88.4287 51.2922 91.23C50.5298 91.4243 49.7949 91.7407 49.0493 92C46.6699 92 44.293 92 41.9136 92ZM45.5151 48.9199C34.5754 48.9053 25.5049 58.1001 25.5608 69.1499C25.6147 79.9839 34.5925 89.0459 45.335 89.1108C56.3213 89.1758 65.3716 80.0874 65.364 68.9951C65.3555 58.0034 56.3896 48.9346 45.5151 48.9199Z" fill="#FFFFFF" fill-opacity="1.000000" fill-rule="evenodd"/>
	<path id="Vector" d="M0 17.188C2.02466 14.7241 4.04785 12.2598 6.2959 9.52051C13.5171 22.0244 20.5945 34.2783 27.615 46.4336C25.5159 48.7729 23.5376 50.9785 21.4324 53.3267C18.2954 48.0688 15.1753 42.8105 12.0273 37.5703C8.03052 30.9194 4.01147 24.2827 0.000732422 17.6406C0 17.4893 0 17.3374 0 17.188Z" fill="#FFFFFF" fill-opacity="1.000000" fill-rule="evenodd"/>
	<path id="Vector" d="M73.8213 0.243164C72.2993 2.85596 70.9763 5.27539 69.4832 7.58203C69.1284 8.12939 68.2007 8.58887 67.5337 8.5918C52.833 8.64795 38.1318 8.64795 23.4304 8.5918C22.7642 8.58887 21.8357 8.13037 21.481 7.58447C19.9868 5.27734 18.6638 2.85791 17.1411 0.243164C36.0891 0.243164 54.802 0.243164 73.8213 0.243164Z" fill="#FFFFFF" fill-opacity="1.000000" fill-rule="evenodd"/>
	<path id="Vector" d="M13.9846 0.0234375C21.9719 13.8638 29.812 27.4463 37.7314 41.1655C35.0752 42.3916 32.5706 43.5483 29.8965 44.7837C26.9763 39.7524 24.0483 34.7261 21.1392 29.6895C17.1379 22.7656 13.1907 15.8091 9.12085 8.92725C8.33374 7.5957 8.34985 6.71729 9.37402 5.59033C10.9207 3.88623 12.3223 2.04688 13.9846 0.0234375Z" fill="#FFFFFF" fill-opacity="1.000000" fill-rule="evenodd"/>
	<path id="Vector" d="M60.908 44.7148C58.4465 43.5796 55.9773 42.4385 53.2339 41.1714C61.0898 27.5552 68.9519 13.9292 76.9883 0C78.8074 2.24561 80.5552 4.33154 82.199 6.50146C82.4641 6.84961 82.4734 7.68701 82.2432 8.08594C75.1682 20.2969 68.0488 32.4814 60.908 44.7148Z" fill="#FFFFFF" fill-opacity="1.000000" fill-rule="evenodd"/>
	<path id="Vector" d="M84.678 9.49316C86.9209 12.2661 88.927 14.7446 91 17.3066C83.8289 29.3428 76.6897 41.3271 69.5371 53.333C67.4304 50.981 65.4529 48.7773 63.3521 46.4346C70.3472 34.3159 77.4043 22.0918 84.678 9.49316Z" fill="#FFFFFF" fill-opacity="1.000000" fill-rule="evenodd"/>
	<path id="Vector" d="M23.9194 11.7637C38.4312 11.7637 52.5664 11.7637 67.0459 11.7637C65.4639 14.4785 64.0623 16.9961 62.519 19.4233C62.25 19.8462 61.3823 20.0625 60.7898 20.0649C50.5569 20.1025 40.323 20.1079 30.0894 20.0532C29.4656 20.0503 28.5835 19.6689 28.2668 19.1719C26.7922 16.8608 25.4727 14.4502 23.9194 11.7637Z" fill="#FFFFFF" fill-opacity="1.000000" fill-rule="evenodd"/>
	<path id="Vector" d="M62.4624 69.103C62.4546 78.8525 55.0684 86.1948 45.2808 86.1768C35.7944 86.1606 28.4963 78.6646 28.4844 68.9268C28.4727 59.2188 35.908 51.8354 45.6787 51.8525C55.1768 51.8687 62.469 59.3643 62.4624 69.103ZM43.3364 80.4868C45.2004 80.4868 46.6538 80.4868 48.2214 80.4868C48.2214 72.7715 48.2214 65.1812 48.2214 57.6128C44.9575 57.2168 45.0547 57.3101 43.179 59.3481C42.092 60.5288 40.72 61.5186 39.3184 62.3066C36.5928 63.8359 36.5166 63.8208 37.3359 67.3081C39.282 66.3345 41.1787 65.3872 43.3364 64.3086C43.3364 69.729 43.3364 75 43.3364 80.4868Z" fill="#FFFFFF" fill-opacity="1.000000" fill-rule="evenodd"/>
</svg>
