<?xml version="1.0" standalone="no"?>
<!DOCTYPE svg PUBLIC "-//W3C//DTD SVG 20010904//EN"
 "http://www.w3.org/TR/2001/REC-SVG-20010904/DTD/svg10.dtd">
<svg version="1.0" xmlns="http://www.w3.org/2000/svg"
 width="2240.000000pt" height="2240.000000pt" viewBox="0 0 2240.000000 2240.000000"
 preserveAspectRatio="xMidYMid meet">
<metadata>
Created by potrace 1.14, written by Peter Selinger 2001-2017
</metadata>
<g transform="translate(0.000000,2240.000000) scale(0.100000,-0.100000)"
fill="#000000" stroke="none">
<path d="M3852 15066 c-27 -35 -126 -342 -157 -491 -3 -11 -7 -31 -10 -45 -8
-40 -14 -72 -20 -110 -3 -20 -7 -45 -9 -55 -3 -20 -15 -110 -22 -170 -23 -206
-23 -625 1 -820 2 -16 6 -55 10 -85 3 -30 8 -71 11 -90 3 -19 7 -48 10 -65 8
-59 38 -236 49 -285 3 -14 10 -45 16 -70 5 -25 12 -58 15 -75 3 -16 18 -76 33
-132 16 -57 27 -103 25 -103 -2 0 -38 17 -81 38 -43 21 -105 48 -138 61 -33
13 -69 27 -80 31 -26 11 -143 47 -175 54 -90 20 -124 26 -200 36 -177 23 -359
12 -542 -36 -10 -2 -26 -6 -35 -8 -109 -25 -312 -130 -436 -224 -63 -48 -191
-172 -245 -237 -129 -158 -255 -403 -308 -600 -24 -87 -33 -131 -39 -176 -3
-24 -7 -51 -10 -59 -16 -60 -21 -255 -9 -405 3 -44 6 -86 7 -92 0 -7 3 -13 6
-13 3 0 6 -12 7 -27 0 -16 3 -41 7 -58 3 -16 8 -42 11 -56 69 -327 332 -763
532 -881 143 -86 334 -154 566 -204 40 -8 82 -17 93 -20 11 -2 31 -6 45 -9 22
-4 67 -13 160 -31 14 -3 57 -12 95 -19 39 -8 81 -17 95 -20 14 -3 39 -8 55
-11 143 -26 340 -87 460 -145 126 -60 193 -118 271 -236 30 -45 54 -84 54 -87
0 -3 13 -27 28 -53 61 -104 146 -329 168 -448 2 -11 6 -31 9 -45 23 -119 29
-187 29 -370 0 -154 -6 -273 -19 -360 -1 -8 -5 -40 -10 -70 -4 -30 -9 -64 -11
-75 -2 -11 -7 -40 -10 -65 -3 -25 -8 -54 -11 -65 -2 -11 -7 -45 -9 -75 -5 -46
-2 -58 15 -77 39 -42 97 -8 139 80 17 34 42 91 56 127 15 36 31 74 35 85 5 11
16 37 25 58 9 21 16 43 16 50 0 7 7 25 15 40 8 15 19 42 24 60 5 18 21 70 35
117 31 100 75 261 81 299 3 14 13 69 24 121 11 52 23 115 26 140 3 25 8 56 11
70 11 59 19 117 29 210 2 19 6 49 9 65 8 44 18 143 20 192 2 23 5 46 9 49 3 3
3 12 0 20 -6 16 22 18 82 5 60 -14 152 -27 260 -37 135 -13 444 -7 532 11 11
2 36 6 54 9 71 12 96 17 154 32 33 9 67 17 75 19 113 26 475 194 488 227 2 4
8 8 13 8 10 0 127 84 186 133 57 46 245 241 270 278 14 22 30 39 34 39 5 0 9
6 9 13 0 7 8 22 18 33 22 24 101 146 127 197 11 20 23 37 27 37 5 0 7 3 6 8
-1 4 16 45 39 92 35 73 51 109 58 130 1 3 7 17 13 32 14 33 80 244 87 278 49
235 59 325 59 530 0 155 -9 248 -35 378 -6 31 -12 64 -13 72 -3 16 -25 96 -34
120 -3 8 -6 20 -7 25 -12 54 -131 306 -147 313 -4 2 -8 8 -8 14 0 9 -51 87
-75 114 -5 6 -26 31 -45 55 -44 54 -61 72 -135 138 -57 51 -214 161 -231 161
-4 0 -15 6 -23 14 -27 23 -238 103 -323 122 -10 2 -28 6 -40 9 -119 27 -223
36 -388 36 -172 0 -294 -11 -430 -37 -14 -3 -38 -7 -55 -10 -16 -3 -57 -12
-90 -21 -33 -8 -64 -16 -70 -18 -42 -9 -77 -19 -118 -32 -26 -8 -54 -16 -62
-17 -8 -1 -18 -5 -21 -9 -4 -4 -15 -7 -25 -7 -101 0 111 416 397 777 177 223
394 443 583 591 19 15 57 45 85 68 28 22 104 76 169 119 116 76 118 78 111
109 -8 38 -68 166 -103 221 -14 22 -26 42 -26 45 -1 7 -37 62 -50 76 -5 6 -28
34 -50 61 -22 28 -54 60 -71 71 l-32 21 -93 -48 c-52 -26 -120 -64 -152 -84
-31 -20 -61 -37 -66 -37 -5 0 -11 -7 -15 -15 -3 -8 -11 -15 -19 -15 -7 0 -22
-8 -33 -18 -10 -10 -40 -32 -66 -50 -25 -18 -52 -38 -60 -44 -7 -7 -29 -25
-48 -39 -36 -28 -51 -40 -135 -113 -95 -83 -224 -206 -297 -284 -57 -59 -69
-61 -46 -5 6 15 12 35 14 43 4 19 41 103 91 208 20 42 36 80 35 85 -1 4 3 7 8
7 6 0 10 4 10 9 0 5 22 55 49 112 97 207 95 201 66 237 -19 24 -131 137 -161
162 -88 75 -274 170 -332 170 -18 0 -52 -51 -116 -174 -20 -38 -41 -75 -47
-83 -6 -7 -9 -13 -5 -13 3 0 -5 -18 -19 -40 -14 -22 -25 -46 -25 -55 0 -8 -5
-15 -10 -15 -6 0 -14 -8 -17 -17 -4 -10 -20 -36 -35 -57 l-28 -39 5 38 c6 48
23 101 47 143 17 31 23 61 19 108 -1 15 -13 27 -38 39 -66 30 -194 96 -203
105 -12 12 -110 53 -179 75 -101 33 -153 33 -179 1z"/>
<path d="M10238 12792 c-15 -2 -36 -15 -47 -28 -19 -24 -20 -37 -15 -242 15
-646 18 -1321 8 -1582 -4 -96 -7 -197 -6 -225 0 -87 1 -398 0 -460 0 -33 2
-116 5 -185 8 -165 9 -413 2 -635 -4 -115 -1 -210 6 -263 12 -80 13 -82 43
-90 17 -5 232 -9 478 -10 l448 -1 11 21 c16 29 20 270 5 290 -6 8 -23 14 -38
13 -16 -1 -28 2 -28 7 0 5 -5 6 -10 3 -28 -18 -583 -23 -603 -6 -8 6 -11 26
-9 48 1 21 4 363 5 760 2 397 6 725 9 729 4 4 24 8 45 10 21 1 72 6 113 9 41
4 81 7 88 6 6 -1 19 -1 27 -1 8 0 23 0 33 0 9 0 33 0 52 1 19 1 41 1 48 0 6
-1 19 -1 27 -1 8 0 22 0 30 0 8 0 21 0 28 -1 48 -3 86 6 90 20 2 9 3 48 2 86
-1 39 -3 96 -4 127 -1 53 -3 58 -27 64 -25 7 -97 9 -119 4 -11 -2 -268 0 -350
3 -27 1 -55 5 -61 9 -7 5 -11 66 -12 170 0 90 -4 215 -7 278 -12 198 -12 769
0 773 22 9 238 10 507 4 153 -4 200 -2 208 8 12 14 15 206 5 248 -4 15 -12 28
-19 28 -6 1 -209 3 -451 4 -242 2 -451 5 -465 7 -14 2 -37 2 -52 0z"/>
<path d="M11555 12787 c-51 -17 -53 -25 -57 -222 0 -11 3 -85 7 -165 4 -80 8
-269 9 -420 1 -151 5 -281 10 -288 4 -6 4 -12 -1 -12 -4 0 -8 -27 -8 -60 0
-33 3 -60 7 -60 4 0 4 -10 -1 -22 -5 -13 -5 -33 0 -45 5 -13 4 -25 -1 -28 -6
-3 -6 -15 0 -30 5 -14 6 -25 2 -25 -4 0 -7 -25 -7 -55 0 -30 3 -55 7 -55 4 0
3 -13 -2 -30 -5 -18 -5 -30 0 -30 6 0 6 -10 0 -25 -6 -15 -6 -26 1 -30 5 -4 7
-11 3 -16 -20 -33 -20 -1455 0 -1488 4 -5 3 -12 -1 -14 -10 -7 -9 -480 1 -532
4 -22 12 -44 17 -50 6 -6 183 -11 480 -13 l469 -2 10 26 c11 28 19 269 10 283
-7 10 -87 30 -94 23 -5 -5 -88 -9 -316 -15 -47 -1 -109 0 -138 3 -29 4 -55 3
-58 -1 -3 -6 -74 -1 -82 5 -1 2 -2 20 -2 42 1 21 2 366 3 766 1 399 5 729 8
732 7 7 53 14 117 18 24 1 45 5 48 9 3 5 15 4 27 0 12 -5 34 -5 49 0 16 4 28
5 28 1 0 -6 77 -6 140 1 14 1 35 -1 47 -5 12 -4 25 -3 28 2 3 5 15 6 28 1 12
-5 32 -5 45 0 23 9 26 20 24 99 -3 155 -5 180 -17 190 -13 11 -13 11 -255 11
-147 0 -223 2 -284 7 -14 2 -17 8 -14 27 3 14 1 28 -3 31 -5 3 -5 14 1 24 6
12 7 21 0 25 -6 3 -6 15 0 30 6 15 6 27 0 30 -6 4 -7 13 -1 24 5 9 6 23 1 31
-4 7 -4 23 0 36 5 12 6 25 3 28 -16 16 -25 935 -9 938 6 0 40 2 76 4 36 1 65
3 65 4 0 3 185 1 378 -4 103 -2 189 0 192 5 21 33 20 236 0 269 -9 14 -65 16
-440 16 -236 0 -450 2 -475 5 -25 3 -59 1 -75 -4z"/>
<path d="M12811 12776 c-17 -5 -33 -17 -36 -27 -8 -24 -10 -277 -3 -285 3 -3
14 -5 24 -5 11 0 130 3 267 5 l247 5 0 -52 c1 -29 3 -108 6 -177 3 -69 7 -219
9 -335 2 -115 7 -262 11 -325 9 -146 9 -339 0 -410 -7 -61 -7 -259 0 -360 7
-90 6 -194 -1 -335 -12 -231 -16 -394 -20 -887 l-4 -498 27 -1 c86 -2 236 1
240 6 4 3 7 517 9 1143 3 1345 5 1542 17 1542 5 0 3 6 -3 13 -6 8 -9 16 -6 18
3 4 6 61 5 109 -1 16 8 170 14 265 2 33 7 112 11 175 4 63 9 118 11 121 2 4
21 3 43 -1 22 -4 44 -4 50 0 6 3 34 3 61 0 28 -4 50 -2 50 2 0 5 4 7 9 4 8 -5
40 -7 116 -6 11 1 49 1 85 1 164 1 162 -1 158 167 -2 69 -7 127 -13 130 -16
10 -1349 8 -1384 -2z"/>
<path d="M19546 12779 c-58 -9 -56 -4 -58 -183 -2 -120 0 -130 18 -136 10 -4
23 -5 28 -2 5 2 118 6 252 8 l244 3 0 -52 c1 -29 3 -108 6 -177 3 -69 7 -213
9 -320 2 -107 7 -253 11 -325 8 -152 8 -361 0 -425 -8 -63 -5 -385 4 -410 4
-11 1 -171 -5 -285 -12 -226 -16 -390 -20 -887 l-5 -498 32 -1 c111 -3 230 -1
236 5 3 4 7 510 9 1124 2 1313 5 1552 17 1552 5 0 4 6 0 13 -5 6 -8 26 -7 42
1 17 4 86 7 155 5 142 15 318 21 370 2 19 4 56 4 81 1 44 3 47 31 51 16 3 34
2 39 -2 6 -3 38 -3 71 0 33 3 60 3 60 0 0 -5 200 -4 295 3 82 6 86 14 83 165
-1 73 -6 126 -12 130 -13 8 -1319 9 -1370 1z"/>
<path d="M14623 12767 c-18 -6 -33 -14 -33 -19 0 -5 -4 -7 -9 -4 -14 9 -104
-86 -128 -134 -38 -79 -40 -95 -47 -261 -2 -46 -5 -86 -6 -89 -1 -3 -1 -9 0
-15 1 -5 4 -53 6 -105 10 -227 14 -346 14 -355 -1 -5 -3 -219 -5 -475 -2 -256
-6 -501 -10 -545 -3 -44 -6 -87 -6 -95 0 -8 0 -51 0 -95 0 -67 1 -117 2 -197
0 -7 -1 -98 -2 -201 -1 -104 1 -190 3 -193 3 -2 2 -21 -1 -42 -4 -20 -4 -56 0
-79 3 -24 4 -45 1 -48 -3 -2 -4 -31 -3 -62 1 -56 1 -179 -1 -276 -1 -26 1 -50
4 -52 3 -3 2 -22 -1 -43 -4 -20 -4 -48 -1 -62 3 -14 1 -45 -6 -70 -6 -25 -11
-72 -10 -105 1 -72 15 -82 103 -79 32 1 85 2 118 3 33 1 66 5 73 10 11 7 13
62 12 277 -1 148 -3 303 -5 344 -2 41 -7 147 -10 235 -4 88 -7 210 -7 270 0
61 0 139 0 175 1 222 3 336 7 359 3 14 8 62 10 105 5 74 19 108 36 88 7 -8 78
-174 100 -232 7 -19 16 -40 22 -47 5 -7 6 -17 3 -22 -4 -5 -2 -12 3 -15 5 -3
12 -23 16 -43 10 -45 4 -24 55 -203 23 -80 44 -156 47 -170 7 -36 9 -43 16
-60 4 -8 9 -26 11 -40 3 -14 15 -59 26 -100 12 -41 23 -82 25 -90 2 -8 4 -15
5 -15 1 0 3 -7 5 -15 11 -42 68 -262 81 -310 8 -30 17 -65 20 -78 5 -26 33
-139 62 -253 11 -41 29 -96 40 -122 l21 -46 125 3 c154 4 169 12 165 91 -2 27
-6 57 -10 65 -23 46 -105 316 -101 333 1 4 -3 7 -9 7 -5 0 -7 5 -4 11 4 5 2
22 -4 37 -6 15 -13 38 -16 52 -39 193 -43 206 -176 610 -22 69 -42 130 -43
135 -2 6 -6 17 -9 25 -29 78 -71 228 -84 304 -5 28 -30 100 -55 156 -39 89
-52 135 -42 153 5 9 34 42 64 75 65 69 85 93 99 120 6 11 17 26 23 34 7 7 24
33 37 58 13 25 29 52 36 60 36 46 134 310 142 385 13 123 5 250 -23 351 -8 28
-16 60 -18 71 -16 81 -98 273 -116 273 -6 0 -10 5 -10 10 0 15 -17 35 -81 100
-59 59 -174 125 -259 149 -25 8 -58 18 -73 24 -37 13 -174 16 -214 4z m241
-389 c55 -22 121 -85 169 -161 48 -76 69 -159 72 -297 2 -123 -19 -215 -70
-300 -12 -19 -26 -49 -32 -66 -9 -24 -88 -144 -148 -223 -31 -41 -84 -90 -111
-104 -59 -30 -55 -78 -52 658 1 72 -1 210 -4 309 -3 141 -1 181 9 192 17 16
120 12 167 -8z"/>
<path d="M8755 12763 c-96 -12 -192 -63 -203 -109 -12 -49 0 -893 13 -914 3
-5 2 -10 -4 -10 -7 0 -7 -8 -1 -25 6 -17 6 -25 -1 -25 -6 0 -7 -5 -3 -11 7
-13 12 -152 19 -594 7 -450 7 -461 5 -620 -1 -82 1 -175 4 -205 7 -67 7 -380
0 -585 -8 -253 -9 -529 -1 -556 12 -46 51 -54 262 -53 304 1 332 5 490 76 73
33 221 145 291 219 22 24 53 67 69 94 16 28 32 52 35 55 10 9 49 100 55 130 1
3 4 14 8 25 26 80 38 308 23 460 -8 92 -51 323 -70 380 -1 6 -6 27 -11 48 -4
20 -11 40 -16 43 -5 3 -9 12 -9 21 0 37 -113 241 -170 307 -74 86 -166 168
-206 185 l-32 12 72 72 c61 61 143 177 151 212 1 6 14 37 30 70 15 33 29 63
30 68 2 4 3 8 5 10 1 1 3 9 5 17 2 8 10 32 19 53 9 20 13 37 10 37 -4 0 -2 6
3 13 27 33 42 198 30 317 -12 115 -15 134 -31 200 -9 36 -18 73 -20 82 -10 37
-46 109 -89 174 -45 69 -149 184 -166 184 -5 0 -14 7 -21 15 -24 29 -141 88
-213 107 -68 19 -276 31 -362 21z m342 -369 c99 -48 178 -148 203 -258 19 -86
22 -114 25 -214 2 -91 -1 -127 -19 -207 -5 -25 -56 -152 -90 -227 -61 -133
-191 -259 -281 -274 -22 -3 -44 -8 -49 -12 -5 -3 -6 0 -2 6 3 6 2 13 -2 16 -5
3 -6 25 -3 48 6 39 5 407 -1 505 -2 22 1 39 6 36 5 -4 6 0 1 7 -12 19 -18 144
-19 356 -1 176 1 194 18 213 41 46 124 48 213 5z m-15 -1496 c17 -4 52 -32 74
-60 5 -7 40 -46 77 -87 62 -69 135 -177 142 -211 2 -8 15 -43 28 -77 21 -53
28 -75 42 -133 1 -3 5 -39 9 -80 5 -41 10 -84 12 -95 2 -11 5 -103 5 -205 1
-210 -6 -244 -67 -336 -68 -102 -144 -164 -252 -203 -57 -21 -257 -27 -269 -7
-4 6 -8 79 -9 161 -5 385 -7 498 -7 605 0 63 0 252 -1 420 -1 262 1 306 14
312 15 7 171 5 202 -4z"/>
<path d="M16508 12765 c-2 -2 -22 -7 -43 -10 -187 -24 -334 -116 -465 -290
-83 -109 -137 -234 -166 -380 -2 -11 -6 -31 -9 -45 -21 -98 -44 -241 -50 -310
-10 -111 -16 -164 -21 -172 -5 -8 -8 -31 -19 -143 -5 -53 -5 -703 0 -825 12
-285 16 -367 20 -390 2 -14 6 -47 10 -75 3 -27 10 -75 15 -105 5 -30 11 -72
15 -93 3 -21 11 -48 17 -60 7 -12 11 -25 10 -29 -1 -4 3 -20 10 -35 6 -15 12
-33 13 -39 11 -50 123 -305 140 -316 5 -4 6 -8 2 -8 -23 0 99 -145 175 -207
36 -29 166 -103 182 -103 7 0 16 -4 22 -8 5 -5 36 -14 69 -21 33 -7 71 -16 85
-20 38 -12 179 -6 230 8 25 8 52 15 60 16 8 2 15 4 15 5 0 1 9 3 20 5 37 7
140 62 185 99 160 130 239 240 318 446 25 65 63 200 56 200 -3 0 0 9 6 20 6
10 12 32 14 47 2 15 8 55 14 88 6 33 14 80 17 105 3 25 8 56 10 70 19 102 27
884 12 1110 -4 58 -9 143 -12 190 -11 156 -15 215 -20 240 -3 14 -7 41 -10 60
-3 19 -8 49 -12 65 -3 17 -7 41 -9 55 -13 95 -40 181 -102 330 -77 185 -152
289 -288 398 -16 13 -63 40 -104 59 -104 49 -111 52 -145 59 -35 8 -260 15
-267 9z m250 -309 c17 -4 32 -11 32 -14 0 -4 13 -13 28 -19 46 -21 110 -90
144 -156 73 -141 123 -269 132 -337 2 -19 5 -35 6 -35 1 0 3 -11 5 -25 1 -14
5 -36 8 -50 14 -61 17 -78 22 -120 3 -25 8 -63 11 -85 3 -22 7 -65 8 -96 2
-31 7 -62 10 -68 4 -6 2 -11 -5 -11 -8 0 -8 -4 -2 -12 10 -13 9 -870 -1 -1068
-5 -115 -20 -251 -42 -395 -9 -62 -68 -225 -110 -307 -41 -80 -51 -96 -83
-129 -81 -83 -191 -130 -287 -123 -33 2 -77 6 -99 9 -45 6 -175 66 -211 98
-27 23 -103 136 -126 187 -31 67 -58 140 -52 140 4 0 2 6 -3 13 -12 15 -40
124 -49 192 -2 17 -6 41 -9 55 -6 29 -16 102 -21 145 -1 17 -3 30 -4 30 -3 0
-6 34 -16 135 -10 114 -12 963 -2 1036 4 28 10 57 12 65 3 8 7 32 10 55 2 22
9 67 15 100 6 32 13 86 16 119 5 61 12 107 21 137 3 9 6 25 8 35 57 284 170
445 350 497 43 13 230 14 284 2z"/>
<path d="M18539 12765 c-3 -2 -27 -6 -54 -9 -74 -9 -108 -17 -124 -30 -8 -6
-16 -9 -18 -7 -7 6 -67 -22 -122 -57 -54 -34 -162 -136 -213 -202 -67 -86
-139 -263 -164 -405 -3 -16 -9 -48 -14 -70 -5 -22 -12 -60 -15 -85 -4 -24 -9
-48 -11 -52 -3 -4 -7 -40 -9 -80 -7 -108 -12 -147 -25 -203 -6 -27 -14 -88
-18 -135 -12 -174 -4 -997 13 -1155 7 -72 17 -160 19 -175 1 -8 8 -55 15 -105
7 -49 18 -101 24 -115 6 -14 11 -27 12 -30 22 -78 29 -100 39 -125 7 -16 28
-66 46 -110 90 -222 157 -313 301 -412 59 -41 161 -87 224 -102 28 -6 61 -14
75 -17 14 -4 63 -7 110 -8 135 -3 310 54 410 133 52 41 180 166 180 175 0 4 8
16 18 27 11 10 25 32 33 47 8 15 18 30 24 34 5 4 6 8 1 8 -5 0 -2 8 7 18 8 9
16 19 16 22 0 3 5 19 12 35 7 17 13 32 13 35 1 3 4 10 8 15 6 10 45 132 54
168 2 9 6 25 9 35 40 152 69 353 82 557 8 143 8 744 -1 860 -4 50 -9 128 -11
175 -8 174 -21 307 -41 410 -8 41 -17 91 -19 110 -19 135 -120 377 -228 544
-24 38 -134 142 -183 174 -44 28 -179 88 -223 98 -31 7 -246 15 -252 9z m224
-309 c58 -13 187 -110 187 -142 0 -7 4 -14 8 -16 9 -4 72 -131 103 -208 31
-79 40 -110 45 -154 2 -21 7 -42 10 -48 3 -5 8 -24 10 -41 3 -18 9 -57 14 -87
5 -30 12 -73 15 -95 2 -22 7 -50 9 -62 29 -142 23 -1211 -8 -1438 -9 -69 -18
-142 -21 -170 -1 -16 -4 -30 -5 -30 -1 0 -4 -11 -6 -25 -16 -86 -105 -300
-156 -373 -92 -133 -256 -188 -436 -146 -54 12 -172 67 -172 80 0 5 -5 9 -11
9 -6 0 -16 6 -22 13 -38 40 -134 197 -121 197 4 0 2 6 -4 13 -8 10 -63 153
-61 160 0 1 -2 13 -5 27 -3 14 -8 36 -10 50 -3 14 -7 36 -10 50 -13 58 -33
187 -42 265 -1 17 -5 50 -8 75 -12 96 -15 189 -15 590 -1 447 0 475 22 575 3
11 8 43 11 70 4 28 9 61 11 75 2 14 9 65 15 114 6 49 18 116 26 150 8 34 17
72 20 86 3 14 7 33 10 42 3 9 7 26 9 37 10 54 70 167 120 226 90 106 179 142
337 139 57 -1 115 -5 131 -8z"/>
</g>
</svg>
