<svg width="100.000000" height="34.000000" viewBox="0 0 100 34" fill="none" xmlns="http://www.w3.org/2000/svg" xmlns:xlink="http://www.w3.org/1999/xlink">
	<desc>
			Created with Pixso.
	</desc>
	<defs/>
	<path id="engl" d="M90.2167 26.5697C89.0667 26.5697 88.1333 25.641 88.1333 24.4966L88.1333 0L88.1167 0L80.9167 0L70.7333 0C62.3167 0 55.3167 6.07019 53.9167 14.0479L53.9167 13.5668C53.9167 6.07019 47.8167 0 40.2833 0C32.75 0 26.65 6.07019 26.65 13.5668L26.65 26.3209L10.2167 26.3209C8.7 26.3209 7.48333 25.1102 7.48333 23.601C7.48333 22.0917 8.7 20.881 10.2167 20.881L23.1 20.881L23.1 12.9034L11.35 12.9034C9.81667 12.9034 8.58333 11.6595 8.58333 10.1503C8.58333 8.64099 9.81667 7.38049 11.35 7.38049L23.1167 7.38049L23.1167 0L11.3333 0C5.8 0 1.31667 4.46143 1.31667 9.96777C1.31667 12.3893 2.18333 14.6117 3.63333 16.3365C1.41667 18.161 0 20.9308 0 24.0156C0 29.522 4.48333 33.9834 10.0167 33.9834C10.3 33.9834 33.8167 33.9834 33.8167 33.9834L33.8167 13.6166C33.8167 10.0673 36.7167 7.18152 40.2833 7.18152C43.85 7.18152 46.75 10.0673 46.75 13.6166L46.75 34L53.9167 34L53.9167 19.9521C55.3 27.8136 62.1 33.801 70.35 34L70.3667 34C70.5 34 70.6167 34 70.75 34C73.2167 34 76.35 33.1873 77.6667 31.9766L77.6667 13.6498L70.35 13.6498L70.35 26.5697C64.55 26.5697 60.75 22.1912 60.75 17C60.75 11.5103 65.2333 7.04883 70.75 7.04883L80.9333 7.04883L80.9333 24.5132C80.9333 29.7542 85.2 34 90.4667 34L100 34L100 26.5697L90.2167 26.5697Z" fill="#000000" fill-opacity="1.000000" fill-rule="nonzero"/>
</svg>
