<svg width="100.000000" height="43.000000" viewBox="0 0 100 43" fill="none" xmlns="http://www.w3.org/2000/svg" xmlns:xlink="http://www.w3.org/1999/xlink">
	<desc>
			Created with Pixso.
	</desc>
	<defs/>
	<path id="path14454" d="M84.9317 40.3204L85.3723 40.3204C85.5904 40.3204 85.7468 40.2919 85.8415 40.238C85.9336 40.1755 85.9779 40.0853 85.9779 39.9535C85.9779 39.8364 85.9353 39.7488 85.8415 39.6863C85.7511 39.6282 85.6086 39.5961 85.4279 39.5961L84.9317 39.5961L84.9317 40.3204ZM84.3982 41.8315L84.3982 39.1807L85.6538 39.1807C85.9666 39.1807 86.1934 39.2491 86.3359 39.3966C86.4758 39.5406 86.5488 39.7184 86.5488 39.9275C86.5488 40.1331 86.4897 40.2961 86.3698 40.421C86.2508 40.5433 86.0726 40.6284 85.8319 40.6692C85.9414 40.71 86.0266 40.7681 86.09 40.8409C86.1543 40.9103 86.2569 41.0647 86.3968 41.299L86.7061 41.8315L86.0396 41.8315L85.8224 41.4065C85.6886 41.1498 85.5678 40.9753 85.467 40.8817C85.3671 40.7888 85.2376 40.7412 85.0681 40.7412L84.9317 40.7412L84.9317 41.8315L84.3982 41.8315ZM85.5608 38.4893C84.95 38.4893 84.4477 38.6879 84.0662 39.0981C83.6865 39.498 83.4962 39.9683 83.4962 40.4991C83.4962 41.0508 83.69 41.5271 84.0862 41.9183C84.4833 42.3086 84.9543 42.5065 85.5078 42.5065C86.0587 42.5065 86.5323 42.3086 86.9286 41.9183C87.3205 41.5271 87.5203 41.0508 87.5203 40.4991C87.5203 40.1183 87.4213 39.7705 87.2214 39.4521C87.0242 39.1294 86.7669 38.8866 86.4559 38.7261C86.1465 38.5691 85.8441 38.4893 85.5608 38.4893ZM85.4348 38C86.1813 38 86.7948 38.2472 87.2762 38.7426C87.7593 39.2369 88 39.8251 88 40.4991C88 41.1827 87.755 41.7717 87.2675 42.261C86.7756 42.7528 86.1856 43 85.5009 43C84.8048 43 84.2183 42.7528 83.7291 42.2627C83.2398 41.7769 83 41.187 83 40.4991C83 40.0125 83.1277 39.5675 83.3867 39.1641C83.6422 38.759 83.9654 38.4624 84.3521 38.2784C84.7405 38.0902 85.0985 38 85.4348 38Z" fill="#000000" fill-opacity="1.000000" fill-rule="nonzero"/>
	<path id="path14458" d="M15 0L30 0.000854492L30 18L15 0Z" fill="#000000" fill-opacity="1.000000" fill-rule="nonzero"/>
	<path id="path14462" d="M24.9924 12L25 30L19.6326 25.9366L16.0109 25.9402L16 16.382L19.6267 16.382L24.9924 12Z" fill="#000000" fill-opacity="1.000000" fill-rule="nonzero"/>
	<path id="path14466" d="M30 24L30 42.9888L15 43L30 24Z" fill="#000000" fill-opacity="1.000000" fill-rule="nonzero"/>
	<path id="path14470" d="M33 21L33 43L49 42.9875L33 21Z" fill="#000000" fill-opacity="1.000000" fill-rule="nonzero"/>
	<path id="path14474" d="M45 0.00891113L60.9852 0L61 21L45 0.00891113Z" fill="#000000" fill-opacity="1.000000" fill-rule="nonzero"/>
	<path id="path14478" d="M65 0.0106201L65.0325 43L81 42.9867L80.9728 0L65 0.0106201Z" fill="#000000" fill-opacity="1.000000" fill-rule="nonzero"/>
	<path id="path14482" d="M83 0.00354004L83.0184 24.9958C83.0184 24.9958 83.4844 25.0038 87.92 24.9977C95.8101 24.9958 100.008 19.3871 100 12.5419C99.9939 5.68945 95.9614 -0.00524902 87.906 0C83.5762 0.00610352 83 0.00354004 83 0.00354004Z" fill="#000000" fill-opacity="1.000000" fill-rule="nonzero"/>
	<path id="path14486" d="M50.5116 43L53.1831 42.9973C63.0511 42.9894 64.5547 31.7303 61.738 27.5573C59.9433 24.9202 45.5942 6.16418 43.9865 3.953C42.3177 1.65796 44.4385 0 44.4385 0L41.8203 0.00708008C31.9462 0.0123291 30.4434 11.3412 33.2654 15.5117C35.054 18.1523 49.2256 37.047 51.0134 39.1229C53.0275 41.4579 50.5116 43 50.5116 43Z" fill="#000000" fill-opacity="1.000000" fill-rule="nonzero"/>
	<path id="path14490" d="M15 42.9877L15 0L0 0.0141602L0.0283203 43L15 42.9877Z" fill="#000000" fill-opacity="1.000000" fill-rule="nonzero"/>
</svg>
