<svg width="100.000000" height="66.000000" viewBox="0 0 100 66" fill="none" xmlns="http://www.w3.org/2000/svg" xmlns:xlink="http://www.w3.org/1999/xlink">
	<desc>
			Created with Pixso.
	</desc>
	<defs/>
	<path id="Vector" d="M10.0326 31.0536C10.5554 31.7031 11.8318 32.9985 10.7845 34.001C9.6835 35.0472 5.92209 37.4343 4.01724 37.3851C2.03 37.4343 -0.349274 34.827 0.0427856 32.4727C0.350739 31.09 2.02823 29.1796 2.83563 28.3262C3.64127 27.4075 12.9723 17.719 18.626 14.3512C20.1549 13.4197 23.6477 12.6682 24.6414 13.1504C25.6618 13.6252 27.205 15.0571 27.2194 18.3904C27.2042 20.6464 27.2042 22.9026 27.2194 25.1586C27.205 26.041 27.5416 26.8597 28.7232 25.9227C29.3552 25.4279 30.8322 25.3588 31.8383 25.4861C32.8445 25.6317 33.4478 26.3831 32.5902 27.0144C31.704 27.6112 28.1467 30.6824 26.8971 31.9269C27.0045 39.3464 23.2431 59.6095 22.6004 61.9474C22.0974 64.0125 20.6938 65.0004 18.9482 65.6591C17.2027 66.2267 14.1807 66.365 14.6516 63.8032C15.1206 61.3142 19.6858 43.0981 20.2372 37.7108C20.3572 37.1614 19.9544 36.9558 19.4853 37.4926C19.0145 38.0474 16.6638 40.1616 14.6516 40.3308C12.6375 40.5728 11.182 39.1045 10.8919 38.6934C10.7577 38.4568 10.6234 37.911 11.2142 37.6017C11.8318 37.3651 17.9403 33.6808 21.8485 30.2876C22.0347 27.7458 22.3498 21.3997 22.3856 19.4802C22.5055 18.0574 21.3651 18.8743 20.7743 19.371C20.1567 19.8295 12.2346 26.5851 9.81778 29.4142C9.2789 29.9983 9.54742 30.7479 10.0326 31.0536Z" fill="#000000" fill-opacity="1.000000" fill-rule="nonzero"/>
	<path id="Vector" d="M36.0131 30.8757C36.462 31.1439 37.4105 30.8027 37.8595 30.2188C38.3609 29.5728 39.447 28.4761 39.2714 27.9196C39.1773 27.3812 38.2939 26.9012 36.882 27.0436C35.4428 27.1768 32.9303 27.3831 29.4963 32.2991C28.517 34.2242 29.0619 36.3447 30.4738 36.3502C31.2323 36.3447 31.8442 37.2352 31.3427 37.9907C30.7581 38.7389 28.9261 41.8885 30.7997 44.0144C32.7257 46.1312 35.8501 44.4889 37.2078 42.3721C38.5654 40.2462 40.5331 36.6202 41.1178 35.6932C41.4165 35.0472 41.8926 35.3885 41.7695 35.9122C41.7568 36.3447 42.1279 38.6859 42.5298 39.5254C43.0131 40.5874 44.1662 40.6221 44.4848 39.4141C44.912 38.2607 46.8815 32.6147 47.8517 31.5309C48.1359 31.2462 48.4093 31.3484 48.2862 31.7498C48.2735 32.2389 48.1034 34.8739 48.8293 36.0199C49.528 37.2681 50.5797 38.3282 52.0876 37.0052C53.5665 35.5911 54.01 34.0181 54.3684 33.1732C54.5187 32.7863 54.9984 32.6914 55.1287 33.0637C55.4691 34.6312 59.8805 36.7534 61.6454 30.4359C61.7124 29.8429 62.3912 29.6367 62.6229 30.2169C62.7985 30.8684 63.4104 31.6239 64.4693 31.5309C65.4468 31.4852 67.6879 29.8429 68.5966 27.4797C68.841 26.9688 69.4528 27.1749 69.7913 27.4797C70.1317 27.7224 71.4205 28.5436 72.6152 28.0272C73.8643 27.5856 75.765 26.0126 77.3941 22.9907C79.0233 19.9889 81.4671 14.9249 82.0645 13.4651C82.4174 12.5289 83.0963 12.8721 82.9333 13.5746C82.622 14.5162 81.1956 20.0236 83.4764 21.8976C85.8134 23.7881 89.6148 20.5381 90.7534 19.4889C91.9228 18.3484 98.0992 12.8739 99.6595 11.2771C100.474 10.4779 99.7284 8.6311 98.4648 9.63477C97.147 10.6841 91.2422 15.8848 89.8845 16.8611C88.5269 17.9377 86.7999 19.5509 85.7573 18.7224C85.0314 18.1093 85.3373 16.1586 85.7573 15.1093C86.1519 14.1056 87.238 11.2316 87.6036 10.4012C88.0526 9.58923 87.5765 8.28809 86.8434 8.10193C86.0831 8.0144 84.997 8.28992 84.5625 9.0874C84.2856 9.48694 83.6393 9.58923 83.6936 8.86841C83.7081 8.08374 83.8439 6.06543 82.7161 5.14575C81.5359 4.14941 79.9682 4.6676 78.9147 6.24243C77.6656 8.11841 76.9868 11.4724 79.0233 11.9359C79.4994 12.0874 79.8053 12.5326 79.4578 13.2498C79.0577 13.9706 76.1035 20.3356 74.7874 22.3374C73.5258 24.3046 72.4396 25.1257 71.8549 24.6367C71.3535 24.1659 71.998 21.7042 75.2219 18.5052C75.431 18.3405 75.5699 18.1014 75.6103 17.8369C75.6507 17.5725 75.5894 17.3025 75.4391 17.0819C75.2219 16.6403 74.0688 16.5381 73.2669 16.8629C72.4378 17.2899 71.998 17.5636 71.5291 17.9578C70.9788 18.2479 70.6403 18.2479 70.443 17.9578C70.233 17.6312 69.9615 16.9469 72.6152 15.3301C73.0841 15.0326 73.4914 14.8958 74.353 15.0016C75.2563 15.0326 75.5278 14.6549 75.765 14.3447C76.0021 14.0399 76.6809 13.1166 76.9597 12.5929C77.1552 12.0892 76.9525 11.6111 76.1994 11.4979C75.3921 11.4724 72.8451 11.4724 69.6809 14.0162C68.0934 15.2371 67.1086 17.0162 67.2914 17.9578C67.3801 18.9998 67.4815 19.9924 69.5723 20.1476C70.2638 20.1641 70.2312 20.8812 69.8981 21.2424C69.6212 21.7042 68.9079 22.3538 68.4862 23.2133C68.2617 23.9286 66.8099 26.0601 66.2053 27.0454C65.5138 28.2389 64.2919 28.4451 64.3589 26.7169C64.4603 25.8429 64.4947 23.8246 64.4675 22.9943C64.9708 21.2917 68.7034 5.27893 69.0292 2.84827C69.3152 1.51624 68.5676 0.0782471 67.8345 0.00158691C67.0742 -0.0585938 63.8828 1.58374 62.8383 8.21326C61.7106 14.8611 61.3721 16.4341 61.4264 18.1768C58.7238 18.0071 56.6203 19.7863 55.67 22.6659C54.7196 25.5344 53.7693 28.9561 53.1719 30.7662C52.5474 32.6512 52.0043 33.7462 51.3255 33.6147C50.6467 33.4724 50.9852 30.6002 51.2169 29.1257C51.5283 27.7242 51.9355 25.3976 52.1944 23.9797C52.4804 22.5254 51.8016 22.2516 51.2169 22.3374C50.5779 22.3884 47.0498 24.1659 46.0035 28.5782C45.8261 29.5728 44.74 30.0509 44.9174 28.7972C45.0133 27.4506 45.0803 26.5619 44.0485 26.6074C43.5145 26.5619 42.1623 27.3137 41.3332 29.3447C40.5331 31.2827 38.5636 35.3192 37.206 37.8849C35.8483 40.5217 34.2861 42.2334 33.5132 41.498C32.657 40.8647 34.6264 37.4432 35.2509 36.571C36.0511 36.0034 37.5463 34.8411 37.0974 34.0527C36.7317 33.1987 34.5594 33.5417 33.839 34.1622C33.2 34.8429 32.2497 35.2534 31.884 34.8192C31.4351 34.4304 32.3854 33.0619 33.1873 32.1914C34.0164 31.2827 34.764 30.3228 36.0131 30.8757Z" fill="#000000" fill-opacity="1.000000" fill-rule="nonzero"/>
	<path id="Vector" d="M60.5707 22.0323C59.5688 21.6934 57.8788 24.1019 57.4647 25.5632C57.0021 27.0441 56.6264 29.5865 57.6651 29.9523C58.6286 30.3894 59.881 27.7131 60.3703 26.4214C60.883 25.1725 61.384 22.696 60.5707 22.0323Z" fill="#FFFFFF" fill-opacity="1.000000" fill-rule="nonzero"/>
	<path id="Vector" d="M90.0015 4.55737C89.9441 2.51099 91.5599 1.04395 93.4434 1C95.3594 1.04211 96.9751 2.51099 97 4.55737C96.9751 6.51392 95.3613 7.98279 93.4434 8C91.5599 7.98279 89.9441 6.51392 90.0015 4.55737Z" fill="#000000" fill-opacity="1.000000" fill-rule="nonzero"/>
	<path id="Vector" d="M93.4501 7C94.1259 6.99792 94.7734 6.68738 95.2512 6.13623C95.729 5.58508 95.9982 4.83826 96 4.05884C95.9694 2.31958 94.8679 1.04712 93.4501 1C92.0613 1.04712 90.9598 2.31958 91.0023 4.05884C90.988 4.43958 91.0408 4.81958 91.1575 5.17615C91.2742 5.53259 91.4523 5.85815 91.6811 6.13306C91.9099 6.40796 92.1846 6.62646 92.4886 6.77551C92.7927 6.92456 93.1198 7.00085 93.4501 7Z" fill="#FFFFFF" fill-opacity="1.000000" fill-rule="nonzero"/>
	<path id="Vector" d="M92.5769 6L92 6L92 2L93.5 2C94.4308 2.01904 94.9019 2.36768 94.8846 3.14282C94.9 3.8667 94.4481 4.17712 93.8462 4.28577L95 6L94.3077 6L93.2692 4.28577L92.5769 4.28577L92.5769 6Z" fill="#000000" fill-opacity="1.000000" fill-rule="nonzero"/>
	<path id="Vector" d="M93.8 3.98572C94.4178 4.02979 94.9511 3.99878 95 3.49634C94.9511 3.05273 94.4267 2.97278 93.9333 3.00708L93 3.00708L93 3.98572L93.8 3.98572Z" fill="#FFFFFF" fill-opacity="1.000000" fill-rule="nonzero"/>
</svg>
