<svg width="150.000000" height="30.000000" viewBox="0 0 150 30" fill="none" xmlns="http://www.w3.org/2000/svg" xmlns:xlink="http://www.w3.org/1999/xlink">
	<desc>
			Created with Pixso.
	</desc>
	<defs/>
	<path id="logo" d="M78.354 23.2461C79.701 19.0052 81.2635 11.2566 83.0415 0C84.7387 0 85.6277 0.510498 85.7085 1.53137C85.7354 1.84558 85.7489 2.06812 85.7489 2.19897C85.7759 2.32983 85.7354 2.78796 85.6277 3.57324Q85.4661 4.71204 85.1428 6.79321C84.9542 8.18066 84.7118 9.79053 84.4154 11.623C84.1191 13.4554 83.7823 15.3665 83.4052 17.3561C82.4892 22.0419 81.5463 25.9948 80.5765 29.2146C79.6067 29.8691 78.8524 29.9739 78.3136 29.5288Q77.9499 29.1754 77.667 28.5864C77.4785 28.1675 77.2629 27.6963 77.0205 27.1727C76.6703 26.7278 76.0237 25.5497 75.0808 23.6388C74.1379 21.7278 73.3701 20.2095 72.7775 19.0837Q71.9289 17.3953 71.1207 15.9424Q69.2618 12.6832 68.0092 12.1335C67.0393 13.5995 65.3152 17.6178 62.8368 24.1885C62.4057 25.3403 62.0151 26.4136 61.6649 27.4083C61.3147 28.377 61.0183 29.1624 60.7758 29.7644L58.2705 29.6466L48.1681 6.95032C48.1142 6.81934 48.0873 6.68848 48.0873 6.55762C48.0873 6.42676 48.1277 6.29578 48.2085 6.16492C48.3163 6.03406 48.4914 5.91626 48.7338 5.81152C49.1918 5.65442 49.6498 5.57593 50.1078 5.57593C50.5657 5.57593 50.889 5.66748 51.0776 5.85083C51.2931 6.00781 51.4547 6.21729 51.5625 6.479C51.6972 6.74084 51.805 7.02881 51.8858 7.3429C51.9666 7.6571 52.1147 8.06287 52.3303 8.56018C52.5727 9.05762 52.9095 9.79053 53.3405 10.7592C53.7985 11.7278 54.2834 12.7487 54.7953 13.822L56.3308 17.0419C56.8427 18.089 57.3276 19.0576 57.7856 19.9476C58.7554 21.911 59.3615 23.0105 59.604 23.2461Q64.2915 12.0157 65.3825 9.93457C66.1099 8.521 66.5679 7.6571 66.7565 7.3429C67.0528 6.89795 67.2818 6.67542 67.4434 6.67542C68.6018 6.67542 70.555 9.18848 73.3028 14.2146C74.0571 15.5497 74.7575 16.8325 75.4041 18.0629Q77.7883 22.5393 78.354 23.2461ZM0.969818 23.1675Q0 21.0471 0 18.1807Q0 15.3141 0.929413 13.1152Q1.75745 11.2042 3.08627 9.75122L3.08633 9.7511L3.08643 9.75098Q3.3139 9.50232 3.55603 9.26697Q4.75793 8.12598 6.16766 7.375L6.16769 7.375L6.16769 7.375Q8.88147 5.92932 12.3653 5.92932Q17.9014 5.92932 21.4978 8.4032Q23.213 9.60315 24.2001 11.2416Q25.5388 13.4636 25.5388 16.4922Q25.5388 23.0105 22.4273 26.1125Q19.3561 29.2146 12.8098 29.2146Q5.98242 29.2146 2.73239 25.8049Q1.6543 24.6738 0.969818 23.1675ZM5.54282 24.1704L5.54285 24.1704Q7.94391 26.6624 12.931 26.6624Q16.6396 26.6624 19.2542 24.9711L19.2543 24.9711L19.2544 24.9709L19.2545 24.9709Q19.973 24.5061 20.6088 23.9136Q21.6623 22.946 22.3396 21.7629L22.3397 21.7629L22.34 21.7623L22.34 21.7623L22.3401 21.7622Q23.5587 19.6331 23.5587 16.8063Q23.5587 14.7479 22.6825 13.1788Q21.8036 11.605 20.0431 10.5236Q17.0528 8.63879 12.4865 8.63879Q10.9351 8.63879 9.53806 9.10327Q7.66022 9.72754 6.06143 11.191Q4.57315 12.5735 3.89096 14.2784L3.89093 14.2784L3.8909 14.2784L3.89087 14.2786L3.89084 14.2787Q3.31357 15.7216 3.31357 17.3953Q3.31357 21.8568 5.54282 24.1704ZM43.1573 14.2932C43.5075 15.7592 43.6826 18.0497 43.6826 21.1649L43.6422 23.5602C43.6422 24.4764 43.6557 25.4843 43.6826 26.5837C43.7096 27.6571 43.8578 28.7173 44.1272 29.7644C44.5582 29.7905 44.9084 29.8298 45.1778 29.8822C45.4472 29.9346 45.6223 29.9739 45.7031 30C45.8648 30 46.0803 29.9215 46.3497 29.7644C46.2958 28.691 46.2689 27.5785 46.2689 26.4268L46.3093 23.3246C46.3093 20.6807 46.2285 18.6125 46.0668 17.1204C45.6897 12.8534 44.1406 10.7198 41.4197 10.7198Q37.8233 10.7198 31.2769 15.3927C31.2769 15.1832 31.3039 14.8037 31.3578 14.2539C31.4386 13.678 31.479 13.089 31.479 12.4869C31.479 10.9424 31.1422 10.1702 30.4688 10.1702C30.0377 10.1702 29.472 10.3927 28.7715 10.8376C28.6907 11.0732 28.5695 12.0549 28.4079 13.7827C28.2732 15.5105 28.2058 18.2068 28.2058 21.8717Q28.2058 28.0366 28.7311 29.3717L31.4386 29.3717L31.4386 18.691Q31.8022 17.2383 35.0754 15.7068C35.9914 15.2617 37.1767 14.8168 38.6315 14.3717Q40.8136 13.7042 42.1875 13.7042Q43.1007 13.7042 43.2078 13.9979Q43.2523 14.1202 43.1573 14.2932ZM108.944 14.5681C108.89 14.4371 108.863 14.2932 108.863 14.1361C108.863 13.9529 108.93 13.7173 109.065 13.4293C109.2 13.1414 109.388 12.8927 109.631 12.6832C109.9 12.4739 110.183 12.3822 110.48 12.4083C110.803 12.4083 111.059 12.5917 111.247 12.9581L118.036 25.2095C118.252 24.8953 118.588 24.3193 119.046 23.4817Q119.774 22.1859 120.663 20.5759C121.282 19.5026 121.915 18.39 122.562 17.2383C123.235 16.0602 123.855 14.9869 124.421 14.0183C125.714 11.7932 126.482 10.6807 126.724 10.6807C127.29 10.6807 127.694 10.89 127.936 11.309C128.206 11.7015 128.341 12.0026 128.341 12.212L128.341 12.6439C126.832 15.8376 125.431 18.7827 124.138 21.479C122.872 24.1754 122.023 25.9293 121.592 26.7408C121.188 27.5261 120.824 28.1544 120.501 28.6256C119.935 29.4371 119.383 29.8429 118.844 29.8429C118.305 29.8429 117.686 29.4371 116.985 28.6256C116.285 27.788 115.49 26.6754 114.601 25.288C113.039 22.7749 111.153 19.2015 108.944 14.5681ZM148.99 23.8744C144.221 25.9686 140.652 27.0157 138.281 27.0157C135.506 27.0157 133.782 25.8246 133.109 23.4424C133.351 22.5524 133.769 21.8848 134.362 21.4398C135.385 20.6283 136.867 20.2225 138.807 20.2225L144.626 20.4581C145.515 20.4581 146.296 20.3665 146.969 20.1832C148.505 19.7644 149.3 18.7566 149.353 17.1597C149.38 16.9764 149.394 16.7932 149.394 16.61C149.394 15.9554 149.124 15.3141 148.586 14.6859C148.047 14.0576 147.32 13.4948 146.404 12.9974C144.464 11.9503 142.713 11.4268 141.15 11.4268Q139.723 11.4268 138.39 11.7822Q137.422 12.0406 136.503 12.4869C135.048 13.1937 133.782 14.1624 132.705 15.3927C131.627 16.623 130.859 17.9319 130.401 19.3193Q129.755 21.3612 129.755 22.6178C129.755 23.4554 129.782 24.123 129.836 24.6204Q130.163 25.8928 130.891 26.8655Q132.319 28.7744 135.291 29.5288C137.931 30.1832 140.773 30.0131 143.817 29.0183C146.862 28.0236 148.922 26.6361 150 24.8561C150 24.5942 149.906 24.3717 149.717 24.1885C149.529 23.979 149.286 23.8744 148.99 23.8744ZM95.326 28.979C98.6934 28.2461 101.387 26.3351 103.408 23.2461C103.596 24.0576 103.758 25.0131 103.893 26.1125Q103.974 26.8193 104.054 27.6439C104.108 28.1937 104.189 28.822 104.297 29.5288L106.681 29.5288C106.412 28.4817 106.237 27.3298 106.156 26.0732C106.102 24.7905 106.034 22.9843 105.954 20.6544C105.9 18.2985 105.698 16.4659 105.348 15.1571C104.809 13.089 103.758 12.0549 102.196 12.0549C101.711 11.9764 101.158 11.9371 100.539 11.9371C99.9461 11.9371 99.2861 12.0157 98.5587 12.1727C96.0803 12.7487 93.7769 14.0314 91.6487 16.021C90.625 16.9634 89.7495 17.9974 89.0221 19.123C88.3217 20.2487 87.8367 21.2958 87.5674 22.2644C87.298 23.233 87.1633 24.0183 87.1633 24.6204C87.1633 25.1963 87.2171 25.7198 87.3249 26.191C87.3249 27.1859 87.8233 27.9581 88.82 28.5078C89.2511 28.7434 89.7225 28.9136 90.2344 29.0183C90.7462 29.123 91.2042 29.1885 91.6083 29.2146L93.1843 29.2146C93.8308 29.2146 94.5447 29.1361 95.326 28.979ZM143.615 13.979C144.262 14.1624 144.881 14.4634 145.474 14.8822C146.094 15.301 146.404 15.7461 146.404 16.2173C146.404 16.61 146.08 16.9371 145.434 17.199C144.383 17.6963 142.363 17.9451 139.372 17.9451C138.295 17.9451 136.678 17.8534 134.523 17.6702Q134.523 17.6416 134.524 17.613Q134.581 16.2697 137.311 15.0393C138.066 14.699 138.928 14.3979 139.898 14.1361C140.867 13.8481 141.568 13.7042 141.999 13.7042C142.43 13.7042 142.969 13.7958 143.615 13.979ZM100.943 14.8822C102.478 14.8822 103.246 15.6414 103.246 17.1597C103.246 18.2592 102.815 19.5288 101.953 20.9686Q101.024 22.5785 99.6094 23.9529Q96.6225 26.7845 93.3729 27.1276Q93.0175 27.165 92.6589 27.1727C90.827 26.8848 89.9111 25.9686 89.9111 24.4241C89.9111 23.2461 90.4499 21.911 91.5275 20.4188C92.2549 19.3717 93.1304 18.4293 94.1541 17.5917Q97.4272 14.8429 100.377 14.8429Q100.66 14.8429 100.943 14.8822Z" fill="#F8F1EA" fill-opacity="1.000000" fill-rule="evenodd"/>
</svg>
