<svg width="30.000000" height="30.000000" viewBox="0 0 30 30" fill="none" xmlns="http://www.w3.org/2000/svg" xmlns:xlink="http://www.w3.org/1999/xlink">
	<desc>
			Created with Pixso.
	</desc>
	<defs/>
	<path id="instagram" d="M15 7.95923C13.6075 7.95923 12.2462 8.37207 11.0883 9.14575C9.93048 9.91943 9.02805 11.019 8.49515 12.3055C7.96222 13.5922 7.82281 15.0078 8.09448 16.3735C8.36615 17.7394 9.03671 18.9939 10.0214 19.9786C11.0061 20.9633 12.2606 21.6339 13.6264 21.9055C14.9922 22.1772 16.4079 22.0377 17.6944 21.5049C18.981 20.9719 20.0806 20.0696 20.8542 18.9116C21.6279 17.7538 22.0408 16.3926 22.0408 15C22.0408 13.1327 21.299 11.3418 19.9786 10.0214C18.6582 8.70093 16.8673 7.95923 15 7.95923ZM15 20.2041C13.9707 20.2041 12.9646 19.8989 12.1088 19.327C11.253 18.7552 10.5859 17.9424 10.192 16.9915C9.79816 16.0406 9.6951 14.9943 9.8959 13.9847C10.0967 12.9752 10.5923 12.048 11.3202 11.3202C12.048 10.5924 12.9753 10.0967 13.9847 9.89587C14.9942 9.69507 16.0406 9.79822 16.9915 10.192C17.9424 10.5859 18.7552 11.2529 19.327 12.1088C19.8989 12.9646 20.2041 13.9707 20.2041 15C20.2 16.3789 19.6505 17.7003 18.6754 18.6754C17.7003 19.6505 16.379 20.2001 15 20.2041ZM21.7347 0L8.26532 0C6.07321 0 3.97089 0.87085 2.42084 2.4209C0.870819 3.97095 0 6.07324 0 8.26526L0 21.7347C0 23.9268 0.870819 26.0291 2.42084 27.5791C3.97089 29.1292 6.07321 30 8.26532 30L21.7347 30C23.9268 30 26.0291 29.1292 27.5792 27.5791C29.1292 26.0291 30 23.9268 30 21.7347L30 8.26526C30 6.07324 29.1292 3.97095 27.5792 2.4209C26.0291 0.87085 23.9268 0 21.7347 0ZM28.1633 21.7347C28.1633 23.4397 27.486 25.0748 26.2804 26.2804C25.0748 27.486 23.4397 28.1632 21.7347 28.1632L8.26532 28.1632C6.56033 28.1632 4.9252 27.486 3.7196 26.2804C2.51404 25.0748 1.83673 23.4397 1.83673 21.7347L1.83673 8.26526C1.83673 6.5603 2.51404 4.92517 3.7196 3.7196C4.9252 2.51404 6.56033 1.83679 8.26532 1.83679L21.7347 1.83679C23.4397 1.83679 25.0748 2.51404 26.2804 3.7196C27.486 4.92517 28.1633 6.5603 28.1633 8.26526L28.1633 21.7347ZM24.4898 7.04077C24.4898 7.34351 24.4 7.63953 24.2318 7.89124C24.0637 8.14294 23.8246 8.33911 23.5449 8.45496C23.2652 8.5708 22.9575 8.60107 22.6606 8.54199C22.3637 8.48291 22.0909 8.33716 21.8769 8.12317C21.6628 7.90906 21.517 7.63635 21.458 7.33948C21.3989 7.04248 21.4292 6.73474 21.5451 6.45508C21.6609 6.17542 21.8571 5.9364 22.1088 5.76819C22.3605 5.59998 22.6565 5.51025 22.9592 5.51025C23.3651 5.51025 23.7545 5.67151 24.0415 5.9585C24.3286 6.24561 24.4898 6.63489 24.4898 7.04077Z" fill="#F8F1EA" fill-opacity="1.000000" fill-rule="nonzero"/>
</svg>
