<svg width="100.000000" height="26.000000" viewBox="0 0 100 26" fill="none" xmlns="http://www.w3.org/2000/svg" xmlns:xlink="http://www.w3.org/1999/xlink">
	<desc>
			Created with Pixso.
	</desc>
	<defs/>
	<path id="marshal" d="M13.5299 25.663C13.0853 25.3334 13.0952 25.2474 13.9709 21.7411C14.4634 19.7692 14.9177 17.5293 14.9803 16.7635L15.0943 15.3712L13.9208 17.6802C11.8308 21.7927 10.2918 23.7897 8.29999 24.9736C7.05188 25.7156 4.73932 25.9653 3.19025 25.5254C0.0322876 24.6288 -1.09503 20.3427 1.25049 18.15C2.66296 16.8297 6.70288 17.3585 6.25024 18.8047C6.1012 19.2812 5.979 19.3197 5.05798 19.1797C4.16028 19.0431 3.95605 19.1 3.42902 19.6348C2.96277 20.1077 2.82617 20.4869 2.82617 21.3104C2.82617 22.2057 2.94135 22.4729 3.55078 22.9932C4.80054 24.0596 6.72052 23.7097 8.26727 22.1335C9.33594 21.0449 11.1752 17.6165 13.5301 12.3241C15.9769 6.82483 17.4495 3.8562 18.7286 1.84509C19.888 0.0222168 20.0721 -0.13208 20.8512 0.0661621C21.7333 0.290649 21.7795 1.09656 21.0096 2.84009C19.5579 6.12854 18.5143 9.99365 18.2386 13.1022L18.0799 14.8936L20.3816 11.5497C23.3029 7.30615 24.9912 5.18176 27.6428 2.41382C29.3351 0.647217 29.8935 0.204468 30.4297 0.204468C31.273 0.204468 31.5252 0.794434 31.034 1.61792C30.8319 1.95715 29.6382 3.95435 28.3816 6.05615C23.7238 13.8469 21.6151 19.5662 22.3624 22.3812C22.684 23.5927 23.2259 23.7866 24.5439 23.163C25.9817 22.4827 26.7098 21.7229 27.5595 20.0159C29.1133 16.8939 32.1952 14.5353 34.7209 14.5353C35.3835 14.5353 36.1379 14.6858 36.3967 14.8696C36.8003 15.1562 36.9319 15.1562 37.3184 14.8696C37.9059 14.4338 38.9581 14.4419 39.3206 14.885C39.553 15.1689 39.363 15.718 38.3077 17.8109C37.5932 19.2277 36.7635 20.8363 36.464 21.3857C36.1647 21.9348 35.9921 22.4576 36.0806 22.5475C36.6197 23.0942 39.054 20.4685 41.5323 16.6677C42.389 15.3539 42.3956 15.3259 42.0415 14.4661C41.5811 13.3488 41.5804 11.1295 42.0398 10.2281C42.426 9.47107 43.4759 8.80298 44.2794 8.80298C44.5549 8.80298 45.0902 9.11707 45.4686 9.5011C46.0308 10.0713 46.157 10.4016 46.157 11.302C46.157 11.9333 45.9556 12.8048 45.686 13.3411C45.0659 14.5737 45.0796 14.6201 46.014 14.4663C46.981 14.3073 47.8054 14.8131 47.8054 15.5657C47.8054 15.8557 47.0575 17.0537 46.1365 18.2391C43.0197 22.2506 42.5165 24.2626 44.8806 23.2606C46.4212 22.6079 47.2012 21.8287 50.868 17.2806C53.5386 13.9683 54.5599 12.8634 54.9508 12.8634C55.5527 12.8634 56.5187 13.4836 56.5187 13.8704C56.5187 14.0151 56.0779 14.7262 55.5389 15.4501L54.5587 16.7666L54.8715 17.8606C55.0434 18.4619 55.2301 19.4106 55.2864 19.9691C55.3427 20.5275 55.4407 20.9843 55.5043 20.9843C55.5678 20.9843 56.2298 20.5502 56.9756 20.0198C58.0573 19.2499 58.4536 18.7794 58.9363 17.6909C61.5765 11.7384 63.6688 7.16345 63.9571 6.71301C64.364 6.07727 65.7115 5.96826 66.1743 6.53394C66.4868 6.91602 66.4814 6.93164 63.9689 12.9293L62.8903 15.5029L63.9053 14.8998C65.0185 14.2382 65.8844 14.1345 66.4521 14.595C66.9872 15.0288 67.3574 16.3516 67.1909 17.2343C67.0406 18.0315 65.9296 20.3766 64.877 22.1188C64.5107 22.7247 64.3777 23.1338 64.547 23.1338C65.1826 23.1338 66.8445 21.4222 67.4721 20.1212C68.2968 18.4111 70.846 15.7677 72.4147 14.9956C73.9018 14.2635 75.7846 14.204 76.5064 14.8666C76.9331 15.2583 77.015 15.2688 77.1368 14.9478C77.4335 14.1635 79.5972 14.2903 79.5972 15.092C79.5972 15.2733 78.8555 16.8739 77.9488 18.6486C77.0421 20.4231 76.3003 22.108 76.3003 22.3927C76.3003 23.3058 76.9463 23.2299 78.1939 22.1703C79.1524 21.3566 79.6114 20.6837 80.5328 18.7422C82.8254 13.9114 86.3055 9.46143 89.485 7.29492C91.3362 6.03357 93.0204 6.16467 93.0204 7.57007C93.0204 8.31616 91.4954 11.6512 90.4486 13.1945C89.3788 14.7712 86.984 17.0439 84.7614 18.5914C82.3184 20.292 82.2256 20.3995 82.0461 21.7256C81.8716 23.0184 82.4747 23.7701 83.4815 23.5138C84.5318 23.2463 86.689 20.7539 88.0659 18.2174C89.8776 14.8793 90.7781 13.4612 92.2772 11.5846C93.8473 9.61914 97.1976 6.75745 98.1863 6.53723C99.1509 6.32227 99.822 6.5769 99.9807 7.21802C100.147 7.88916 99.214 10.5229 98.1726 12.3239C97.1929 14.0175 93.9528 17.3146 91.5392 19.0734C89.6434 20.455 89.2441 21.16 89.5827 22.5283C90.0198 24.2939 92.0295 23.5564 94.2323 20.822C95.512 19.2336 95.7124 19.0739 96.0258 19.3918C96.535 19.9082 96.2708 20.6213 94.8745 22.4973C93.5527 24.2733 91.7512 25.64 90.4093 25.8846C88.9308 26.1541 87.3577 25.1084 86.8227 23.5C86.7803 23.3729 86.3826 23.6166 85.9387 24.0413C84.8224 25.1089 82.9799 26 81.8881 26C81.1918 26 80.8101 25.8335 80.2856 25.3019C79.9072 24.9177 79.5972 24.3804 79.5972 24.1077C79.5972 23.8348 79.5398 23.6116 79.4694 23.6116C79.3989 23.6116 78.7897 24.0341 78.1153 24.5502C76.0436 26.1361 74.962 26.2587 73.9725 25.019L73.5759 24.5222L72.7599 25.0093C72.311 25.2767 71.4388 25.6102 70.8218 25.7496C69.515 26.0454 68.5276 25.7321 67.6207 24.7341L67.0656 24.1237L66.1302 24.8108C64.7025 25.8597 63.7628 26.1066 62.9058 25.657C62.0197 25.1923 61.4625 24.4014 61.4698 23.6182C61.4728 23.2863 62.1087 21.7855 62.8828 20.2832C63.6566 18.7806 64.2901 17.4641 64.2901 17.3571C64.2901 16.8984 63.6161 17.2448 62.4238 18.3148C61.3172 19.3085 60.9684 19.86 59.8185 22.4319C58.3003 25.8278 57.732 26.4094 56.5776 25.7485C55.9022 25.3616 55.7416 24.4974 56.1641 23.5186C56.292 23.2224 55.7736 23.4845 54.6536 24.2822C51.8329 26.2914 49.5606 26.4557 48.0014 24.7628L47.3719 24.0792L46.1167 24.8411C45.2195 25.3857 44.4786 25.6335 43.5173 25.7101C42.2676 25.8097 42.1223 25.7659 41.4567 25.0909C40.9363 24.5631 40.7408 24.1404 40.7408 23.5425C40.7408 22.396 42.1321 19.696 43.5588 18.0751C44.3062 17.2255 44.6552 16.6575 44.4922 16.5553C44.1758 16.3571 44.2897 16.2256 42.0403 19.3901C39.5589 22.8811 38.132 24.4143 36.6828 25.1469C35.2114 25.8904 34.2339 25.9274 33.5394 25.2655L33.0194 24.7701L32.0616 25.2655C30.8147 25.9109 29.1039 25.9176 28.0748 25.2812C27.6497 25.0181 27.2418 24.6445 27.1686 24.451C27.0609 24.1669 26.8445 24.2321 26.0476 24.7881C24.3709 25.9583 22.3348 26.2336 20.9028 25.4839C19.8077 24.9106 19.4024 22.4417 19.8501 19.0734L20.0248 17.7598L19.2877 19.0734C17.2451 22.7158 14.8058 26 14.1431 26C14.0557 26 13.7797 25.8484 13.5299 25.663ZM51.9374 23.5026C52.4068 23.0266 52.5149 22.6786 52.512 21.6515C52.5085 20.1871 52.3081 19.2626 52.0156 19.3619C51.6007 19.5028 49.6894 22.0697 49.6894 22.4861C49.6894 22.9552 50.6888 24.089 51.1024 24.089C51.2437 24.089 51.6195 23.8251 51.9374 23.5026ZM72.6996 22.3016C74.6566 20.6025 76.0519 16.4437 74.7289 16.2526C72.9897 16.0013 69.6999 19.7921 69.6349 22.1223C69.5878 23.8014 70.8844 23.8773 72.6996 22.3014L72.6996 22.3016ZM32.0631 22.6843C33.6578 21.6584 34.9719 19.5262 35.2422 17.5261C35.4024 16.3417 35.1061 16.031 34.0688 16.2949C31.9117 16.8442 28.675 21.795 29.6744 23.0168C30.1139 23.5537 30.8764 23.4474 32.0631 22.6843ZM86.61 14.5947C88.2929 12.9147 90.7536 9.2804 90.2084 9.2804C90.0994 9.2804 89.1729 10.1775 88.1497 11.274C86.3649 13.1863 84.09 16.4458 84.54 16.4458C84.6588 16.4458 85.5903 15.613 86.61 14.5947ZM94.3049 14.1768C95.4654 13.0944 97.7989 9.2804 97.3008 9.2804C96.6193 9.2804 91.843 15.4126 91.843 16.2875C91.843 16.4291 92.3394 16.066 92.946 15.4805C93.397 15.0438 93.8499 14.6093 94.3049 14.1768ZM44.2457 12.3618C44.4741 11.698 44.2794 10.7135 43.9198 10.7135C43.6198 10.7135 43.3204 11.7919 43.4518 12.3995C43.648 13.3048 43.9264 13.2916 44.246 12.3618L44.2457 12.3618Z" fill="#000000" fill-opacity="1.000000" fill-rule="nonzero"/>
</svg>
