<svg width="100.000000" height="29.000000" viewBox="0 0 100 29" fill="none" xmlns="http://www.w3.org/2000/svg" xmlns:xlink="http://www.w3.org/1999/xlink">
	<desc>
			Created with Pixso.
	</desc>
	<defs/>
	<path id="path3057" d="M37.5462 6.04309C37.5462 6.04309 35.4344 5.63403 35.4226 2.87598C35.4105 0.118652 38.1747 0.0212402 38.1433 0.00854492C38.1116 -0.00402832 38.7702 -0.00964355 38.9966 0.0421143C39.5846 0.174683 39.8073 0.208252 39.8073 0.208252L40.4167 0.318359L40.8683 0.384644L41.4047 0.461792L41.9209 0.507202L42.5717 0.59436L43.0886 0.627686L43.95 0.68396L44.6443 0.727417L45.2752 0.750244C45.2752 0.750244 48.9562 0.773193 51.196 0.21875C53.8654 -0.443726 53.1262 2.83118 51.827 3.28601C51.8173 3.28796 51.7308 16.7521 51.7308 16.7521L51.8589 16.9202L52.0045 17.053L52.1625 17.1864L52.3207 17.3293C52.3953 17.4065 52.7324 17.7382 52.7109 18.5254C52.6895 19.3125 52.2258 19.9772 51.6895 19.9438C51.1536 19.9103 50.1754 19.6985 50.1754 19.6985L49.86 19.6552L49.5248 19.6445L49.2288 19.6445L48.925 19.6552C48.925 19.6552 47.7493 19.6835 47.2449 19.8635C47.0961 19.9171 46.8726 19.9414 46.8726 19.9414L46.5908 19.9312L46.3896 19.8873C46.3896 19.8873 45.6422 19.601 45.6324 18.4818C45.6225 17.3623 47.0005 16.8308 47.0005 16.8308L47.0005 14.7375L43.8027 14.7375L43.8027 16.9199C43.8027 16.9199 44.8992 17.2625 44.8242 18.3589C44.749 19.4557 44.1557 19.9181 43.8557 19.9747C43.5505 20.0304 43.5089 19.9767 43.5089 19.9767L43.1401 19.8647L42.73 19.7772L42.405 19.7109C42.405 19.7109 40.9929 19.4036 39.8495 19.688L39.5656 19.744L39.3228 19.7876L39.1533 19.8212L38.9244 19.8541L38.7238 19.8541L38.5027 19.8314C38.5027 19.8314 37.7356 19.744 37.7356 18.6478C37.7356 17.551 39.0708 16.8513 39.0708 16.8411C39.0901 16.3907 39.0823 14.4944 39.0823 14.4944L38.7546 14.4489C38.7546 14.4489 34.1725 14.5255 34.0028 9.73071C33.8884 6.49573 37.3155 6.12415 37.3254 6.12195C37.4097 6.09949 37.5462 6.04321 37.5462 6.04321L37.5462 6.04309ZM47.0322 4.74768C47.0322 4.74768 43.652 4.92004 43.6763 10.861C43.6763 10.8732 47.0558 10.861 47.0558 10.861L47.0322 4.74768L47.0322 4.74768Z" fill="#000000" fill-opacity="1.000000" fill-rule="nonzero"/>
	<path id="path3065" d="M23.6814 0.995361C25.1429 1.01294 26.999 0.509399 26.999 0.509399L27.8682 0.337646L28.311 0.276611L28.8669 0.230957C28.8669 0.230957 34.3839 -0.311768 34.3738 6.2417C34.3698 9.32092 30.2638 12.2522 30.2638 12.2522C30.2638 12.2522 30.0382 13.0511 30.8113 15.9825C31.5841 18.9142 32.8925 20.7292 32.8925 20.7292C32.8925 20.7292 33.7278 19.5001 35.8676 19.5132C36.6203 19.5178 40.2154 20.3535 39.9898 24.5165C39.7422 29.0654 35.7848 29 35.775 29C35.2696 28.9655 33.5787 29.3129 31.1332 26.7742C28.6652 24.2145 28.5244 22.9182 27.6429 21.2157C26.7613 19.5132 25.819 15.3922 25.819 15.3922L25.7648 15.125L25.6461 15.0902L25.5493 15.1008L25.4426 15.1143L24.5408 15.4724C24.5408 15.4724 24.4664 17.5809 24.5408 17.6025C24.6155 17.6243 25.7648 17.9366 25.7547 19.04C25.7425 20.3604 24.5731 20.3253 24.5731 20.3253C24.5731 20.3253 23.8326 20.3124 23.0052 20.0928C22.1779 19.8735 20.934 19.9781 20.934 19.9781C20.37 20.1742 19.6528 20.2418 19.5049 20.2538C19.377 20.2483 18.3813 20.1709 18.4095 19.1572C18.4419 18.0106 20 17.4523 20 17.4523L19.9897 11.3486C19.9897 11.3486 20 5.34912 19.9897 3.3125C17.8962 2.82605 18.0273 1.34497 18.0051 1.31018C17.9831 1.27539 17.9831 -0.0447998 19.0882 0.0012207L19.2269 0.0012207L19.3227 0.0142822C19.7926 0.130127 20.7924 0.963257 23.6814 0.995361L23.6814 0.995361ZM19.3227 0.0142822L19.1522 0.00366211L19.3227 0.0142822ZM24.3899 4.1355L24.3899 10.2499C24.3899 10.2499 25.5715 10.4453 27.2143 8.98645C27.7675 8.49561 28.3091 7.75928 28.3956 6.27637C28.4822 4.79297 27.7938 4.14624 27.0753 3.73987C26.3565 3.33411 25.4328 3.62488 25.4328 3.62488L25.2699 3.68127L25.1407 3.71631L24.9919 3.76404L24.8432 3.82263L24.7121 3.89221L24.5953 3.94824L24.3899 4.13562L24.3899 4.1355Z" fill="#000000" fill-opacity="1.000000" fill-rule="nonzero"/>
	<path id="path3073" d="M9.06506 0.00219727C15.5391 0.157715 18.04 6.44751 17.9995 10.8535C17.9592 15.26 14.5181 21.0712 8.94165 20.9994C3.3653 20.9281 -0.0738525 15.1542 0.0012207 10.515C0.0767822 5.87598 3.42749 -0.133057 9.06506 0.00219727ZM9.00885 3.47339C6.13501 3.45251 6.23517 12.0991 9.05383 12.1879C11.7501 12.2719 12.181 3.49744 9.00885 3.47339Z" fill="#000000" fill-opacity="1.000000" fill-rule="nonzero"/>
	<path id="path3081" d="M88.355 17.2656C88.355 17.2656 87.0402 17.6327 87.0006 18.8557C86.9748 19.6512 87.7722 19.9116 87.7722 19.9116L87.9304 19.9698L88.1837 20L88.3527 19.9907L88.584 19.9801L88.7549 19.9434L88.9601 19.9073L89.1426 19.8833L89.4595 19.837L89.8237 19.8168L90.273 19.7977L90.7814 19.7799L91.2792 19.7622L92.2969 19.7823L92.9033 19.7814L93.5947 19.7946L94.4069 19.8231L95.2185 19.8789L95.8967 19.9072L96.6479 19.949L97.193 19.9847L97.6063 19.9675L97.7751 19.9435C97.7751 19.9435 98.1652 19.9807 98.534 18.8221C98.5898 18.6482 99.8006 15.3608 99.8006 15.3608C99.8006 15.3608 100.113 14.0833 98.975 13.8984C97.8369 13.7136 97.3163 15.3801 96.7004 15.8812C96.6544 15.9183 95.5801 17.1429 94.7271 17.1414C93.8656 17.1394 92.4763 17.1173 92.4763 17.1173L92.5313 12.0077L93.9951 11.9923C93.9951 11.9923 94.54 12.9086 95.364 12.897C96.188 12.8859 96.9462 12.5204 96.9937 11.793C97.0209 11.3881 97.0413 8.74072 97.0413 8.74072C97.0413 8.74072 97.0723 7.51685 95.5463 7.42773C94.7723 7.38293 94.3262 7.80554 94.1667 8.04883C94.1592 8.05945 92.4812 8.0166 92.4812 8.0166L92.4763 4.84851L94.7739 4.84558C94.7739 4.84558 95.6498 4.68713 97.0573 6.14636C97.3351 6.4325 97.9716 7.56592 99.0254 7.5061C100.08 7.44666 99.9985 6.59412 99.9985 6.59412L99.8853 6.06592L99.7336 5.6178L99.4441 4.73401L99.3074 4.2981L99.1342 3.72693L98.9727 3.17053L98.8095 2.66699L98.6839 2.23145L98.5676 1.91895C98.5676 1.91895 98.4539 0.943359 97.332 1.06921C97.2964 1.07275 96.5184 1.13562 96.5184 1.13562L95.8629 1.15076L94.7837 1.20972L93.946 1.23352L91.3885 1.18372L90.4802 1.1261L89.7407 1.04419L88.8696 1L88.286 1.02856C88.286 1.02856 87.3772 1.10767 87.3839 2.13416C87.3849 2.41748 88.05 2.91248 88.4085 3.35547C88.4478 3.40381 88.355 17.2656 88.355 17.2656Z" fill="#000000" fill-opacity="1.000000" fill-rule="nonzero"/>
	<path id="path3089" d="M80.4768 21.1436C80.4768 21.1436 79.532 20.5791 78.4789 20.5719C77.4261 20.5651 74.6686 21.7324 74.64 24.9825C74.6109 28.2325 76.2264 28.9082 78.6105 28.9933C80.9949 29.0797 82.8732 28.3328 83.9097 27.0364C84.9459 25.7404 85.7526 23.6963 85.7949 21.9292C85.7949 21.9165 85.9564 11.9082 85.9564 11.9082C85.9564 11.9082 87.0449 11.3396 86.9985 10.2821C86.9518 9.22498 86.3459 8.92639 85.9653 8.91931C85.5847 8.91211 85.1243 9.1626 85.1243 9.1626C85.1243 9.1626 84.0656 9.52795 83.4058 9.48779C82.7458 9.44763 82.0483 9.29736 81.8351 9.25281C81.6374 9.21021 81.1396 9.07471 81.1396 9.07471L80.9756 9.05664L80.7601 9.02686C80.7601 9.02686 79.8824 9.04919 79.8798 10.1329C79.8757 11.2174 81.1208 11.8448 81.1208 11.8448L81.0746 14.7242C81.0746 14.7242 81.1382 15.4387 80.11 15.4598C79.0829 15.4813 78.4872 15.4296 77.5775 14.3839C76.668 13.3381 76.5244 11.2227 76.5795 10.1266C76.6349 9.03015 77.0645 5.4967 79.8447 5.29163C81.0775 5.20166 82.1132 6.26636 82.1132 6.26636C82.1132 6.26636 83.1642 7.24634 83.8759 7.15063C84.5875 7.05481 85.2021 6.80713 85.2401 5.9292C85.2497 5.70886 85.2875 5.43286 84.8362 5.04309C84.7792 4.99475 84.1065 4.14648 84.4751 1.48572C84.6773 0.0301514 83.0789 0.0343018 82.9753 0.0172119C82.8732 0.00012207 82.3454 -0.120972 81.0224 0.638306C80.9984 0.650635 80.6049 1.06104 78.7119 0.744873C78.6964 0.742188 75.7059 0.602051 73.4788 3.30774C72.9894 3.90247 71.2213 5.80212 71.0108 9.99365C70.8851 12.5004 71.8678 14.8629 73.5134 16.87C73.9146 17.3573 75.8664 19.8842 80.4874 19.6355C80.5051 19.6334 80.4767 21.1436 80.4767 21.1436L80.4768 21.1436Z" fill="#000000" fill-opacity="1.000000" fill-rule="nonzero"/>
	<path id="path3097" d="M55.3543 17.177C55.3543 17.177 53.9882 17.6498 54.0001 18.7781C54.0119 19.9058 54.9778 19.9064 54.9778 19.9064L55.1529 19.8914L55.4285 19.8237L55.617 19.7833C55.617 19.7833 57.6165 19.4886 58.7667 19.7964C58.7745 19.7983 58.9291 19.8259 58.9291 19.8259L59.1918 19.8794L59.3919 19.9321L59.6312 19.9745L59.8818 20L60.1206 19.9875C60.1206 19.9875 60.8619 19.839 60.8993 18.7935C60.9356 17.7477 60.0837 17.3958 60.0837 17.3958L60.0828 5.02942L60.1823 4.89368C60.1823 4.89368 60.7957 4.10693 61.8503 4.14709C62.9049 4.18787 63.5709 5.6532 63.5944 5.74902C63.618 5.84412 64.3491 7.47314 64.3473 9.45581C64.3458 11.1525 63.5815 13.7164 63.5815 13.7164C63.5815 13.7164 63.1782 15.5339 61.5886 18.0195C61.5825 18.028 61.4867 18.2102 61.4867 18.2102C61.4867 18.2102 61.2848 18.6427 61.2988 18.9822C61.3124 19.3214 61.4536 19.892 62.167 19.8922C62.1785 19.8922 62.3789 19.8796 62.3789 19.8796L62.7177 19.8389L63.3314 19.7714L63.8466 19.7286L64.5366 19.7034L65.25 19.7034L65.7399 19.7439L66.1417 19.7719L66.4552 19.7845L66.7316 19.8245L66.9317 19.8647L67.196 19.9202L67.4819 19.9481L67.747 19.9456L68.0229 19.9075C68.0229 19.9075 68.8151 19.7551 68.8638 18.6434C68.9125 17.5322 68.0837 17.0551 67.7212 17.1934C67.7112 17.1969 67.4603 17.0424 66.4805 17.7209C66.476 17.723 66.3549 17.7886 66.3549 17.7886L66.204 17.8163L66.0532 17.8163L65.9279 17.7764L65.8141 17.668L65.7397 17.532L65.7273 17.4218L65.7273 17.2734L65.751 17.1501L65.8023 17.0573L65.89 16.934C65.89 16.934 68.5637 13.5262 68.9264 12.5361C69.2886 11.5455 69.8665 10.975 69.9924 8.51904C70.1132 6.13123 68.7606 4.09509 68.7606 4.09509C68.7606 4.09509 67.2571 1.63513 65.3875 0.998291C63.5178 0.362061 63.8587 0.442505 62.5903 0.374878C61.7358 0.327881 60.1541 0.743286 59.2037 1.29675C59.1879 1.30762 59.0782 1.3114 59.0782 1.3114L58.9273 1.26929L58.6003 1.05261C58.6003 1.05261 56.7954 -0.100952 55.7032 0.00720215C54.6115 0.114624 54.0217 0.958618 54.0473 1.82654C54.0728 2.69385 54.5004 3.43823 55.3157 4.07861C55.3257 4.08728 55.3541 17.177 55.3541 17.177L55.3543 17.177Z" fill="#000000" fill-opacity="1.000000" fill-rule="nonzero"/>
	<path id="path3105" d="M44.1474 20L43.7528 19.8776L43.3239 19.7852L42.9976 19.7185C42.9496 19.7079 42.5906 19.6339 42.0994 19.593C41.5878 19.5504 40.9 19.5406 40.2644 19.6965L39.9919 19.7509L39.7542 19.7936L39.5925 19.8252L39.4075 19.8524L39.2621 19.8524L39.0696 19.8319C39.0372 19.8208 38.9714 19.792 38.9269 19.7549C38.8573 19.6965 38.7234 19.5491 38.7234 19.1412C38.7234 18.8081 38.9309 18.4839 39.2319 18.2004C39.3743 18.0667 39.5189 17.9602 39.6297 17.8851C39.6851 17.8484 39.7311 17.8195 39.763 17.7999C40.0516 17.6235 40.0535 17.3588 40.0535 17.3485C40.0733 16.8937 40.0637 14.5615 40.0637 14.5615L39.2977 14.4546L39.2629 14.4551C39.2008 14.4561 35.154 14.4983 35.0024 10.219C34.9537 8.83887 35.6388 8.08899 36.3726 7.65527C36.7469 7.43433 37.1298 7.30054 37.4234 7.22168C37.7294 7.14001 37.9479 7.11523 37.9503 7.11462C38.0552 7.0863 39.7515 6.41406 39.7515 6.41406C39.7515 6.41406 38.0536 6.04871 37.9069 5.9884C37.7431 5.92065 37.5238 5.80688 37.3051 5.62146C36.8829 5.26453 36.423 4.61279 36.4176 3.39062C36.4128 2.23828 36.9648 1.67651 37.5267 1.37219C37.8181 1.21411 38.1149 1.12695 38.3411 1.0791C38.4531 1.05505 38.5454 1.04126 38.6094 1.03345C38.6592 1.02698 38.7026 1.01526 38.7403 1.00012C38.7963 0.998169 38.8951 1.01392 38.9818 1.0155C39.1778 1.01904 39.3526 1.03125 39.4123 1.04504C40.0219 1.18311 40.2535 1.21716 40.2535 1.21716L40.8545 1.32629L41.3128 1.3938L41.86 1.47217L42.377 1.51843L43.0308 1.60571L43.5609 1.6405L44.4199 1.69641L45.1182 1.73999L45.7593 1.76343C45.7593 1.76343 46.695 1.76941 47.9064 1.70532C49.1288 1.6405 50.6371 1.50269 51.7784 1.21985C52.8555 0.952026 53.0073 1.42078 52.9998 1.84338C52.9888 2.49731 52.5527 3.19263 52.1511 3.33337C52.1511 3.33337 51.8322 3.61035 51.8282 3.94702L51.8237 4.37549L51.8117 5.90002L51.7792 10.5225L51.7338 17.4205L51.9921 17.7601L52.1766 17.9285L52.3407 18.0669L52.4743 18.189C52.486 18.2014 52.5029 18.2192 52.5222 18.2444C52.545 18.2742 52.5742 18.3171 52.6028 18.3771C52.6577 18.4933 52.7203 18.6921 52.7115 19.0048C52.6925 19.703 52.3094 19.95 52.19 19.9429C51.6789 19.9108 50.731 19.7041 50.731 19.7041L50.3767 19.6545L50.0113 19.6433L49.7021 19.6433L49.3918 19.6538C49.3535 19.6553 49.066 19.6627 48.7214 19.6914C48.371 19.7206 47.8961 19.7754 47.5815 19.8883C47.5114 19.913 47.3951 19.9313 47.3414 19.9384L47.136 19.9308L47.0257 19.9067C46.9861 19.8816 46.9079 19.8257 46.849 19.7596C46.7382 19.6346 46.5974 19.4014 46.5942 18.9707C46.5875 18.2568 47.5601 17.8256 47.6506 17.7904L47.9574 17.6719L47.9574 14.743L43.8324 14.743L43.8324 17.7845L44.1681 17.8896C44.2173 17.9049 44.8976 18.1511 44.8516 18.8175C44.7887 19.7429 44.3124 19.9723 44.2733 19.9799C44.2195 19.9899 44.178 19.995 44.1451 19.9972L44.1471 19.9998L44.1474 20ZM46.8487 4.91199C46.4832 5.03784 46.0035 5.2749 45.5278 5.71985C44.5632 6.62183 43.6947 8.29797 43.7067 11.3667C43.7067 11.375 43.8259 11.8584 44.316 11.8633L44.701 11.8649C45.0175 11.8651 45.4388 11.8647 45.8605 11.8638C46.7033 11.8623 48.0146 11.8575 48.0146 11.8575L47.987 4.75037C47.987 4.75037 47.2371 4.77734 46.8487 4.91162L46.8487 4.91199Z" fill="#FF8028" fill-opacity="1.000000" fill-rule="nonzero"/>
	<path id="path3109" d="M25.5034 0.750488C26.0952 0.636597 26.5383 0.521362 26.6266 0.497803L27.4648 0.331299L27.8806 0.274414L28.4256 0.229126C28.4256 0.229126 28.737 0.200195 29.1985 0.24646C29.6776 0.294312 30.3069 0.421143 30.9293 0.731079C32.1313 1.32935 33.4012 2.65271 33.3965 5.7406C33.3931 8.50085 29.5881 11.282 29.5105 11.3378L29.381 11.4307C29.381 11.4307 29.0399 12.473 29.8652 15.6163C30.6571 18.6312 31.9975 20.504 32.0175 20.532L32.3919 21.0538C32.3919 21.0538 32.8153 20.4708 32.8885 20.395C32.9775 20.3036 33.1202 20.1743 33.323 20.0437C33.7261 19.7839 34.3809 19.5073 35.3547 19.5137C36.026 19.5172 39.1905 20.2795 38.991 23.9877C38.8774 26.0724 37.9385 27.0416 37.0593 27.5192C36.6062 27.7654 36.155 27.8864 35.814 27.9452C35.5302 27.9948 35.329 27.9998 35.2782 28C35.1492 27.9934 34.9525 28.0063 34.6932 27.9948C34.4555 27.9844 34.1581 27.9491 33.8069 27.845C33.106 27.6361 32.144 27.1372 30.9745 25.9182C29.7736 24.6675 29.1528 23.7404 28.7252 22.9299C28.2742 22.0746 28.0198 21.3257 27.5818 20.4761C26.7407 18.8456 25.8164 14.8031 25.8102 14.7745L25.6988 14.2236L25.217 14.0824L25.0289 14.1035L24.8624 14.1243L23.6157 14.6215C23.6157 14.6215 23.5849 15.4851 23.5757 16.0195C23.5711 16.2914 23.569 16.5634 23.5725 16.7695C23.5743 16.8843 23.5782 16.9808 23.5839 17.0493C23.6176 17.4425 23.8893 17.5665 23.9504 17.5844C23.965 17.5885 24.0316 17.6071 24.1229 17.6454C24.2167 17.6854 24.3317 17.7438 24.4403 17.8248C24.6544 17.9839 24.8153 18.2007 24.8121 18.535C24.8051 19.3367 24.1586 19.3263 24.1194 19.325C24.1194 19.325 23.43 19.3121 22.6627 19.1078C22.1934 18.9827 21.6308 18.9545 21.2083 18.9529C20.773 18.9513 20.3896 18.984 20.3896 18.984L20.3358 19.0032C19.8638 19.1677 19.249 19.2349 19.0565 19.2521C18.9884 19.2461 18.8235 19.2225 18.6802 19.1421C18.548 19.0673 18.4358 18.9547 18.4436 18.6719C18.4642 17.9357 19.5956 17.4661 19.7067 17.4261L20.0281 17.3099L20.0173 10.8484C20.0173 10.8484 20.0276 4.84717 20.0173 2.80945L20.0155 2.40979L19.6462 2.32373C18.7159 2.10632 18.3506 1.69019 18.1952 1.39722C18.1125 1.24146 18.0762 1.09607 18.0595 0.988159C18.0511 0.933105 18.0476 0.887329 18.0457 0.855103C18.0397 0.750732 18.0192 0.671387 18 0.617188C18.0106 0.523193 18.0757 0.431763 18.1201 0.324097C18.1976 0.13501 18.3287 -0.012085 18.6367 0.000732422L18.7529 0.000732422C18.7859 0.0106201 18.8594 0.0317383 18.9016 0.050293C18.9765 0.0828857 19.0616 0.123657 19.1601 0.169434C19.3759 0.269653 19.6492 0.392334 20.0017 0.512207C20.7162 0.755127 21.7319 0.978516 23.2156 0.995239C23.9731 1.00403 24.8329 0.879395 25.5034 0.750488L25.5034 0.750488ZM23.453 10.168C23.453 10.168 23.9575 10.2635 24.1505 10.2578C24.3101 10.2523 24.5431 10.2285 24.8356 10.1503C25.4066 9.99719 26.1738 9.64502 27.0444 8.86829C27.6846 8.29822 28.2934 7.43921 28.3883 5.80652C28.4891 4.07117 27.6489 3.26648 26.8248 2.79907C26.3561 2.53296 25.8451 2.5061 25.4839 2.53052C25.103 2.55701 24.8232 2.64709 24.8232 2.64709L24.6699 2.70081L24.5466 2.73389L24.3741 2.79004L24.1878 2.86316L24.0419 2.94092L23.8721 3.02356L23.453 3.40637L23.453 10.1681L23.453 10.168Z" fill="#FF8028" fill-opacity="1.000000" fill-rule="nonzero"/>
	<path id="path3113" d="M16.9995 11.3488C16.9613 15.5721 13.6664 21.0668 8.44714 20.9994C3.22009 20.9325 -0.0706787 15.4678 0.00115967 11.0237C0.0732422 6.53772 3.29736 0.875244 8.55457 1.00208C14.6319 1.14832 17.0386 7.0708 16.9995 11.3488ZM5.95123 8.2959C5.96863 10.3783 6.66541 13.1201 8.54004 13.1794C12.1573 13.2925 11.9619 3.51135 8.51166 3.48511C6.58374 3.47083 5.93433 6.22583 5.95123 8.2959Z" fill="#FF8028" fill-opacity="1.000000" fill-rule="nonzero"/>
	<path id="path3117" d="M55.3316 10.1304L55.3191 5.62964L55.3136 4.14441L55.3112 3.7262C55.3087 3.36072 55.1315 3.19031 55.1294 3.18835C54.3961 2.60986 54.0668 1.98694 54.0472 1.31482C54.0299 0.721924 54.4228 0.0908203 55.2784 0.00549316C56.183 -0.0843506 57.834 0.951538 57.884 0.983643L58.262 1.23438L58.5649 1.32019C58.5649 1.32019 58.9049 1.25989 58.9495 1.229C59.8344 0.711548 61.3128 0.332886 62.0647 0.374756C62.3777 0.391235 62.5911 0.398926 62.7643 0.410889C62.9151 0.421143 63.0306 0.434448 63.162 0.463501C63.459 0.529419 63.8278 0.66626 64.7322 0.975464C66.4133 1.5509 67.8328 3.85425 67.8482 3.87903C67.8482 3.87903 68.1641 4.3606 68.4624 5.11035C68.7682 5.87805 69.0482 6.90393 68.993 7.99353C68.9333 9.17847 68.7659 9.88232 68.5815 10.3992C68.3775 10.9708 68.1442 11.3601 67.964 11.8542C67.6392 12.7454 65.053 16.0713 65.0142 16.1212L64.9029 16.2773L64.7984 16.4685L64.7502 16.7214L64.7505 16.949L64.7764 17.1921L64.9367 17.4858L65.18 17.7183L65.4655 17.8105L65.7216 17.8105L65.977 17.7635L66.1846 17.6497C66.649 17.3265 66.9258 17.2145 67.0405 17.1854C67.0681 17.179 67.0853 17.1741 67.0971 17.1748C67.2718 17.1892 67.3425 17.1602 67.3533 17.1559C67.4132 17.1757 67.53 17.2413 67.6055 17.3157C67.7493 17.4569 67.8885 17.7107 67.8707 18.1182C67.8524 18.53 67.7071 18.7146 67.6044 18.8038C67.5465 18.8544 67.4897 18.885 67.4489 18.9021L67.1812 18.9474L66.9727 18.949L66.7336 18.9259L66.4921 18.8754L66.2805 18.833L65.972 18.7886L65.6381 18.7739L65.2499 18.7467L64.751 18.7061L64.0156 18.7054L63.3121 18.7316L62.7836 18.775L62.1661 18.8436L61.839 18.8827L61.6554 18.8936C61.334 18.889 61.2706 18.7023 61.2607 18.4585C61.2531 18.2684 61.3909 17.9495 61.3998 17.931C61.4183 17.8929 61.4605 17.8104 61.4637 17.8062C63.0031 15.3875 63.4643 13.5665 63.5146 13.3521C63.5458 13.2467 63.7228 12.6327 63.8996 11.8392C64.0916 10.9795 64.2932 9.86731 64.2946 8.95764C64.2955 7.90332 64.1025 6.95105 63.9098 6.25452C63.7278 5.59595 63.5416 5.17102 63.53 5.12415C63.4979 4.99158 62.7462 3.20789 61.3673 3.15466C60.7296 3.13025 60.2256 3.35767 59.8857 3.58765C59.715 3.70215 59.584 3.81897 59.4934 3.90881C59.3926 4.00928 59.3368 4.08301 59.3368 4.08301L59.1343 4.35938L59.1348 17.2184C59.1348 17.2184 59.4557 17.3694 59.496 17.3951C59.5502 17.4291 59.6225 17.4817 59.6932 17.5562C59.8276 17.6981 59.9593 17.918 59.9467 18.2725C59.9331 18.6517 59.8016 18.8176 59.7131 18.8969C59.662 18.9419 59.6118 18.9694 59.5759 18.9849L59.3978 19L59.2021 18.9796L58.9979 18.9432L58.8041 18.8922L58.5262 18.8352L58.3761 18.8077C57.736 18.6398 56.9037 18.6416 56.2647 18.6764C55.6024 18.713 55.0743 18.792 55.0743 18.792L54.8674 18.8363L54.6192 18.8973L54.5013 18.9075C54.417 18.9033 54.006 18.8539 54.0001 18.2703C53.9924 17.5662 54.9329 17.1809 55.0291 17.1476L55.348 17.0367L55.3318 10.1304L55.3316 10.1304Z" fill="#FF8028" fill-opacity="1.000000" fill-rule="nonzero"/>
	<path id="path3121" d="M80.4492 20.8964C80.4517 20.7054 80.4537 20.5144 80.4537 20.371C80.4542 19.816 79.9649 19.6327 79.9476 19.6344C77.7344 19.7538 76.194 19.2056 75.1586 18.589C74.6384 18.2791 74.2429 17.9493 73.9552 17.6691C73.8116 17.5295 73.6939 17.4019 73.601 17.295C73.5053 17.1847 73.4347 17.0961 73.3865 17.0377C71.8051 15.1 70.8933 12.8607 71.01 10.5195C71.1115 8.49829 71.5848 7.04614 72.0816 6.03479C72.3304 5.52832 72.5866 5.12903 72.8098 4.82068C73.0392 4.50391 73.2336 4.28174 73.3516 4.13782C74.3864 2.87549 75.5981 2.27661 76.5573 1.9928C77.0349 1.85132 77.4483 1.78882 77.7437 1.76208C77.8875 1.74866 78.0026 1.74426 78.0822 1.74292C78.1227 1.74292 78.1456 1.73926 78.1462 1.73975C79.1179 1.90247 79.7406 1.88489 80.1439 1.80725C80.3466 1.76782 80.4971 1.71362 80.6082 1.65723C80.6801 1.62036 80.719 1.58728 80.7249 1.58423C81.3532 1.22144 81.7772 1.07861 82.0282 1.02795C82.1411 1.00537 82.2261 0.998779 82.2876 1.00012C82.3406 1.00122 82.3726 1.00867 82.3885 1.01172C82.4147 1.01587 82.5353 1.01892 82.6981 1.04419C82.8353 1.06543 82.9919 1.10315 83.1315 1.16919C83.377 1.28564 83.5533 1.46045 83.491 1.9093C83.1149 4.63757 83.7699 5.72046 84.0225 5.93542C84.1985 6.08899 84.2347 6.18042 84.2438 6.20898C84.2489 6.22559 84.2515 6.24316 84.2523 6.26904C84.2538 6.31714 84.2503 6.36206 84.2484 6.40417C84.2283 6.87183 83.9799 7.05762 83.298 7.15002C82.8531 7.20984 82.0151 6.4845 81.912 6.39099C81.8865 6.36511 81.8164 6.29651 81.7088 6.20483C81.5796 6.09473 81.3932 5.94946 81.1638 5.80774C80.7123 5.52771 80.0526 5.23328 79.3094 5.28796C77.7006 5.40698 76.7811 6.51062 76.2766 7.6582C75.779 8.79053 75.653 10.0234 75.6243 10.5981C75.5693 11.6953 75.6919 14.0126 76.743 15.2264C77.7709 16.4144 78.5159 16.4857 79.6149 16.4631C80.2337 16.4502 80.6383 16.2179 80.8578 15.8625C80.959 15.6993 81.0024 15.537 81.0205 15.4158C81.0338 15.3231 81.0338 15.2507 81.0322 15.2104L81.0836 12.0275L80.8104 11.889C80.7427 11.8546 79.8397 11.3485 79.8421 10.6342C79.8431 10.2709 79.9742 10.1561 80.0549 10.1038C80.1093 10.0686 80.1674 10.0487 80.2142 10.0377L80.414 10.0548L80.5493 10.0702C80.6663 10.1018 81.061 10.2081 81.2333 10.2452C81.4542 10.2917 82.1779 10.4473 82.8611 10.4891C83.2604 10.5137 83.7436 10.4172 84.0952 10.3289C84.462 10.2378 84.7773 10.1279 84.7773 10.1279L84.8101 10.1101C84.8221 10.1035 85.1814 9.91626 85.4283 9.92102C85.5732 9.92358 85.9653 10.025 85.9991 10.8051C86.0292 11.4916 85.2717 11.9301 85.2238 11.9557L84.9662 12.0908L84.8002 22.422C84.76 24.0612 84.0038 25.9945 83.0353 27.2111C82.1273 28.3521 80.418 29.0762 78.1286 28.9937C75.8735 28.9124 74.5995 28.3427 74.6246 25.4894C74.6498 22.6141 77.0847 21.5698 77.9789 21.5762C78.4309 21.5787 78.873 21.7036 79.2116 21.8346C79.5353 21.9602 80.4214 22.4858 80.4214 22.4858C80.4214 22.4858 80.4438 21.2753 80.4492 20.8966L80.4492 20.8964Z" fill="#FF8028" fill-opacity="1.000000" fill-rule="nonzero"/>
	<path id="path3125" d="M88.5007 9.8324C88.5104 8.09924 88.519 6.36438 88.5224 5.05981C88.5245 4.40698 88.5245 3.86157 88.5234 3.47803C88.5224 3.28369 88.5219 3.13086 88.5198 3.02527C88.5151 2.71594 88.4028 2.56201 88.3956 2.55359C88.2883 2.43103 88.1597 2.30518 88.0258 2.1803C87.9055 2.06787 87.7805 1.95642 87.6677 1.85034C87.5571 1.74548 87.4773 1.66345 87.4279 1.60059C87.4376 1.05518 87.9088 1.02832 87.9349 1.02673L88.5223 1L89.4222 1.04248L90.2143 1.12402L91.2114 1.18262L93.9807 1.23279L94.8984 1.2085L96.0647 1.14917L96.7679 1.13464L97.6634 1.06702C98.1068 1.02026 98.2796 1.17029 98.3535 1.26208C98.4008 1.32178 98.4302 1.38647 98.448 1.43811C98.4594 1.47168 98.4844 1.5863 98.4844 1.5863L98.6127 1.90723L98.745 2.33118L98.9222 2.84119L99.092 3.38477L99.2798 3.96057L99.4293 4.40088L99.7422 5.28857L99.8961 5.71069L100 6.16162C99.9953 6.19885 99.9825 6.2627 99.9595 6.30542C99.9311 6.35693 99.8358 6.50818 99.4135 6.53064C99.029 6.55066 98.6964 6.37329 98.3932 6.10352C98.2432 5.97021 98.1116 5.82373 97.9929 5.68457L97.8257 5.48608C97.7762 5.42798 97.7195 5.36255 97.6623 5.30786C96.863 4.53833 96.1895 4.17139 95.6852 4.00244C95.4332 3.91772 95.2281 3.88367 95.0748 3.87317C94.9642 3.86523 94.8845 3.86963 94.8372 3.87366L91.9113 3.87805L91.9191 7.9928C91.9191 7.9928 92.8444 8.01465 93.2969 8.02417L93.9226 8.03638L94.134 8.03833C94.4453 8.03931 94.6 7.85059 94.6069 7.84216C94.6981 7.71252 95.0362 7.38159 95.6727 7.41589C96.3521 7.45227 96.5995 7.70813 96.7035 7.87573C96.764 7.9729 96.7946 8.07031 96.8082 8.14392C96.8188 8.19702 96.8199 8.23608 96.8199 8.23608C96.8199 8.23608 96.7988 10.8574 96.7702 11.2576C96.7491 11.5566 96.3609 11.9004 95.4977 11.9115C94.915 11.9191 94.4636 11.2634 94.443 11.2319L94.2983 11.0052L91.9775 11.028L91.9072 17.0818C91.9072 17.0818 93.8893 17.1112 94.8181 17.113C95.454 17.1145 96.0884 16.7115 96.4998 16.3995C96.7191 16.2336 96.9094 16.066 97.0486 15.938C97.1169 15.8746 97.1722 15.8213 97.2122 15.7822C97.4414 15.6096 97.6595 15.3322 97.8223 15.1112C97.9816 14.8945 98.1463 14.6525 98.3289 14.4318C98.6856 13.9988 98.9753 13.8196 99.3115 13.8705C99.9192 13.9622 99.8467 14.535 99.8077 14.7076C99.6758 15.0405 98.5075 17.9882 98.4503 18.1528C98.2669 18.688 98.0991 18.8817 98.0324 18.9406C98.0763 18.9446 98.1391 18.9476 98.1391 18.9476L98.0312 18.9497L97.8721 18.9711L97.4753 18.9861L96.9113 18.9513L96.0981 18.9093L95.366 18.881L94.4983 18.8256L93.614 18.7969L92.8624 18.7833L92.2059 18.7843L91.1098 18.7651L90.5611 18.7822L90.0137 18.8002L89.5261 18.8188L89.111 18.8413L88.7501 18.8899L88.5507 18.9142L88.312 18.9532L88.1572 18.9839L87.9442 18.9929L87.7999 19L87.6204 18.9802L87.4935 18.9371C87.4426 18.9219 86.9864 18.7491 87.0003 18.3588C87.0289 17.5367 88.0289 17.2379 88.0928 17.2213L88.4534 17.1276C88.4534 17.1276 88.4809 13.298 88.5006 9.8324L88.5007 9.8324Z" fill="#FF8028" fill-opacity="1.000000" fill-rule="nonzero"/>
</svg>
