<svg width="100.000000" height="60.000000" viewBox="0 0 100 60" fill="none" xmlns="http://www.w3.org/2000/svg" xmlns:xlink="http://www.w3.org/1999/xlink">
	<desc>
			Created with Pixso.
	</desc>
	<defs/>
	<path id="Vector" d="M1.38303 56.8718C5.04895 49.7523 8.72531 42.6381 12.412 35.5293C17.7982 25.1548 21.2574 17.9818 21.0027 17.7145C20.841 17.5452 16.347 17.8569 11.0156 18.4075C5.68478 18.9579 0.868469 19.3168 0.31311 19.205C-0.566132 19.0269 17.1922 14.7212 46.554 7.99304C51.3672 6.89001 57.6687 5.42078 60.5565 4.72839C63.4444 4.03601 68.9581 2.75635 72.8089 1.88525C76.6597 1.01367 80.3358 0.166992 80.9774 0.00280762C81.6191 -0.160889 68.4911 6.89563 51.8047 15.684C35.1184 24.4723 21.1809 31.9819 20.8311 32.3724C20.4829 32.7628 19.4327 36.6018 18.4976 40.9038L16.798 48.7252L9.50458 53.6989C6.62976 55.6614 3.75226 57.62 0.872101 59.5747C-0.380157 60.4177 -0.346588 60.2412 1.38303 56.8713L1.38303 56.8718Z" fill="#000000" fill-opacity="1.000000" fill-rule="nonzero"/>
	<path id="Vector" d="M26.4096 25.5568C28.6052 24.2129 32.6183 21.7621 35.3276 20.111C38.0369 18.4592 40.5009 16.851 40.8041 16.5372C41.5246 15.7897 40.6297 15.8052 31.6947 16.6917C24.4207 17.413 24.2889 17.4531 23.9672 19.071C23.7876 19.9763 23.2714 21.9788 22.8198 23.5211C22.0214 26.2485 21.7823 28 22.2082 28C22.3236 28 24.2145 26.9006 26.4096 25.5568Z" fill="#FFFFFF" fill-opacity="1.000000" fill-rule="nonzero"/>
	<path id="Vector" d="M63.2111 57.5647C61.6155 56.2172 56.3025 51.9149 51.4046 48.0035L42.4996 40.8922L39.7224 42.4937C38.1945 43.3744 36.8044 44.0952 36.6317 44.0952C36.4591 44.0952 37.4927 40.3738 38.9276 35.8258L41.5368 27.556L43.151 29.5249C44.0387 30.6075 48.1136 35.9196 52.2065 41.3293C56.2994 46.7382 61.1675 53.0386 63.0251 55.3292C67.5645 60.9275 67.5922 61.2627 63.2111 57.5642L63.2111 57.5647ZM78.864 49.7815C79.9222 46.4847 82.0347 39.679 83.5584 34.6569L86.3274 25.5261L85.2435 23.2849C84.6475 22.0525 84.0403 20.7935 83.8939 20.4868C83.7398 20.1642 84.985 20.0991 86.8591 20.3328C90.0319 20.7278 90.1522 20.6847 93.477 17.9609C99.0073 13.4308 100.28 12.472 99.9521 13.0857C99.7805 13.4058 98.5943 15.6038 97.3161 17.9703C95.993 20.4205 94.6857 22.8795 93.3943 25.347C92.5158 27.0371 89.6544 32.4313 87.0344 37.3337C84.4153 42.2356 81.1634 48.3903 79.8082 51.0109C78.4535 53.6309 77.2534 55.7748 77.1419 55.7748C77.031 55.7748 77.8057 53.0776 78.864 49.7815ZM21.7854 41.8717C26.8868 30.3245 27.438 29.3448 28.8441 29.3152C29.5566 29.3007 32.0976 29.0482 34.491 28.7542C36.8845 28.4601 38.9034 28.2831 38.9774 28.3601C39.0514 28.4382 37.4989 29.7061 35.5272 31.1796C32.471 33.4629 32.1089 33.9225 33.0716 34.2972C37.109 35.8706 37.1367 35.5558 32.6724 38.8041L28.5395 41.8108L30.7896 43.8163L33.0408 45.8217L31.01 46.1652C29.8931 46.3546 26.7337 46.8839 23.9893 47.3419L19 48.1747L21.7854 41.8717ZM50.8687 34.2784C47.961 30.2114 45.6513 26.8835 45.7366 26.8835C45.8219 26.8835 47.8305 27.5825 50.1999 28.4371L54.508 29.9902L61.748 21.8292C70.5354 11.924 77.6531 4.22766 77.2555 5.06201C77.0941 5.40027 74.8101 9.41052 72.1788 13.9751C68.8282 19.8016 65.4999 25.6412 62.1939 31.4939C59.3335 36.5649 56.8049 40.9302 56.5742 41.1941C56.3441 41.458 53.7765 38.3461 50.8687 34.2784ZM65.638 31.2826L70.1342 22.181L75.6079 21.4487C78.6184 21.0459 81.1768 20.8174 81.2934 20.9407C81.4095 21.0641 80.0651 22.1779 78.305 23.4161C76.545 24.6538 75.1055 25.9186 75.1055 26.2267C75.1055 26.5338 75.8853 26.9673 76.8394 27.1896C77.7928 27.4113 78.6934 27.7986 78.8403 28.0504C78.9872 28.3024 77.4327 29.6743 75.386 31.1005C73.3398 32.526 71.5299 33.9241 71.3645 34.2076C71.1996 34.4908 72.1089 35.4891 73.3855 36.4265C74.6622 37.3639 75.627 38.2153 75.5293 38.3185C75.4317 38.4215 72.8816 38.7999 69.8619 39.1591C66.8422 39.5182 63.6447 39.9408 62.757 40.0979C61.1567 40.3816 61.1824 40.3025 65.638 31.2826Z" fill="#000000" fill-opacity="1.000000" fill-rule="nonzero"/>
</svg>
