<svg width="23.000000" height="30.000000" viewBox="0 0 23 30" fill="none" xmlns="http://www.w3.org/2000/svg" xmlns:xlink="http://www.w3.org/1999/xlink">
	<desc>
			Created with Pixso.
	</desc>
	<defs/>
	<path id="pinterest" d="M12.2192 0C6.07318 0 0 4.11108 0 10.7648C0 14.9961 2.37195 17.4003 3.80951 17.4003C4.40277 17.4003 4.74396 15.7413 4.74396 15.2731C4.74396 14.7144 3.32458 13.5238 3.32458 11.1975C3.32458 6.36523 6.99036 2.93884 11.7343 2.93884C15.8132 2.93884 18.832 5.26501 18.832 9.5387C18.832 12.7305 17.5565 18.7168 13.423 18.7168C11.9318 18.7168 10.6552 17.6349 10.6552 16.0847C10.6552 13.8123 12.2365 11.6129 12.2365 9.26843C12.2365 5.29004 6.61182 6.01135 6.61182 10.8196C6.61182 11.8293 6.73737 12.9468 7.18683 13.8671C6.35974 17.4377 4.67108 22.7567 4.67108 26.4351C4.67108 27.5707 4.83307 28.6891 4.94043 29.8248C5.14362 30.0537 5.04199 30.0297 5.35345 29.9153C8.37238 25.7676 8.26501 24.9569 9.63068 19.5293C10.3677 20.9363 12.272 21.6931 13.7814 21.6931C20.1422 21.6931 23 15.472 23 9.86462C23 3.89661 17.8602 0.00195312 12.2183 0.00195312L12.2192 0Z" fill="#F8F1EA" fill-opacity="1.000000" fill-rule="nonzero"/>
</svg>
