<svg width="100.000000" height="15.000000" viewBox="0 0 100 15" fill="none" xmlns="http://www.w3.org/2000/svg" xmlns:xlink="http://www.w3.org/1999/xlink">
	<desc>
			Created with Pixso.
	</desc>
	<defs/>
	<path id="Vector" d="M88.7581 14.9998C90.2761 14.9961 91.7759 14.4445 92.5489 13.2662C92.5603 13.7334 92.776 14.4233 92.843 14.6813L95 14.6813C94.9525 14.0199 94.874 13.3301 94.8692 12.6649L94.8692 0L92.6143 0L92.6143 5.66028C91.9426 4.81824 90.4231 4.19226 89.1828 4.20972C85.5211 4.19226 83.668 6.84534 83.6599 9.58704C83.668 12.2052 85.2954 14.9963 88.7581 14.9998ZM49.6405 4.20996C49.5504 4.203 43.9133 4.2666 43.4967 9.62256C43.2171 12.7996 45.7762 15.0071 49.6405 14.9998C53.472 15.0068 55.7856 12.8101 55.7842 9.62256C55.7856 6.5166 53.2366 4.37268 49.6405 4.20996ZM56.6338 0L59.2809 0L59.2809 14.6813L56.6338 14.6813L56.6338 0ZM74.5424 8.56128C74.5997 7.0896 76.8839 6.0072 78.0065 6.01416C79.7269 6.0072 80.119 7.46106 80.1634 8.56128L80.1634 14.6813L82.3856 14.6813L82.3856 8.06604C82.3839 7.71594 82.3447 7.06848 82.1568 6.4386C81.7269 4.94592 79.5112 3.96948 78.3332 3.96216C76.5505 3.96924 75.3052 4.80774 74.5752 5.73108L74.5424 5.6958L74.5424 4.13916L72.2549 4.13916L72.2549 14.6815L74.5424 14.6815L74.5424 8.56128ZM68.4966 13.337C68.5014 13.7651 68.5504 14.2429 68.6272 14.6813L70.8167 14.6813C70.7756 14.3914 70.6776 14.0944 70.6532 13.5847L70.6532 8.03076C70.6579 4.94592 68.2755 4.203 65.9147 4.20996C64.6385 4.203 63.3835 4.3623 62.4178 4.8468C61.4814 5.31738 60.8539 6.11353 60.8166 7.39392L63.3003 7.39392C63.256 6.91992 64.0893 5.92249 65.784 5.90808C67.0404 5.92249 68.2363 6.49548 68.2349 7.18152L68.2349 8.13684C66.8248 8.0979 64.207 8.151 62.8102 8.70288C60.658 9.47791 60.2756 11.1971 60.2611 11.9222C60.2756 13.9141 61.9325 15.0073 64.1499 14.9999C65.7366 15.0071 67.6974 14.5188 68.4966 13.337ZM33.268 8.41968L37.7451 8.41968C38.9426 8.448 39.7368 9.94458 39.8365 10.7546C39.9917 12.0673 40.1582 13.3833 40.4573 14.6815L43.2352 14.6815C42.5504 13.882 42.4229 12.1523 42.2548 11.2146C41.9523 9.2019 42.1875 8.10864 40.3919 7.7478L40.3919 7.71252C42.4916 7.31299 42.8835 5.75281 42.8756 3.85645C42.8837 0.849609 40.1092 0.0323486 37.1894 0.000488281L30.5882 0.000488281L30.5882 14.6818L33.268 14.6818L33.268 8.41968ZM0 0.141602L24.4444 0.141602C26.9916 0.265625 28.825 1.81494 28.9869 4.84656C28.9034 7.599 27.2955 9.39246 24.4444 9.51624L9.60783 9.51624L9.60783 10.3652L28.8235 10.3652L28.8235 11.9572L8.13734 11.9572L8.13734 7.92444L24.4118 7.92444C26.4035 7.85388 27.3742 6.84558 27.5164 4.8468C27.3152 2.69604 26.1879 1.82581 24.4118 1.73364L1.4707 1.73364L1.4707 14.6107L0 14.6107L0 0.141602Z" fill="#FF8200" fill-opacity="1.000000" fill-rule="nonzero"/>
	<path id="Vector" d="M4.46425 12.3851L4.46425 14.7852L3 14.7852L3 3L24.835 3L24.835 7.15527L9.05255 7.15527C7.16333 7.24146 5.50395 8.10107 5.47314 10.5582C5.83569 12.6359 7.13419 13.3131 9.05255 13.3882L29 13.3882L29 15L9.0199 15C7.27081 14.9252 5.29869 14.291 4.46425 12.3851Z" fill="#FF8200" fill-opacity="1.000000" fill-rule="nonzero"/>
	<path id="Vector" d="M4 8C4.90733 6.40515 6.75171 5.84363 8.57822 5.77222L23 5.77222L23 5L4 5L4 8Z" fill="#FFFFFF" fill-opacity="1.000000" fill-rule="nonzero"/>
	<path id="Vector" d="M99.9998 1.5C100.012 0.665039 99.3291 0 98.5173 0C97.6639 0 96.9813 0.665039 97.0004 1.5C96.9916 2.3114 97.6639 2.98633 98.5173 3C99.3293 2.9762 100.012 2.3114 99.9998 1.5Z" fill="#FF8200" fill-opacity="1.000000" fill-rule="nonzero"/>
	<path id="Vector" d="M89.2932 5.92126C91.2292 5.93518 92.6284 8.10974 92.6432 9.46057C92.6284 10.8253 91.3671 12.8571 89.4574 12.8638C87.1797 12.8571 85.9184 10.9684 85.9102 9.46057C85.9184 7.95654 87.0416 5.93518 89.2932 5.92126ZM49.4544 13C47.2653 13.0104 45.8759 11.0298 45.8745 9.49475C45.8759 7.90552 47.1669 6.01685 49.4544 6.02356L49.4544 5.98938L49.4544 6.02356C51.7089 6.01685 52.9996 7.90576 53.0015 9.49475C52.9996 11.0298 51.6004 13.0104 49.4544 13ZM68.142 10.0393C68.0746 12.071 66.7543 12.7959 64.792 12.7959C63.7983 12.7959 62.803 12.653 62.8541 11.2985C62.8623 10.2847 64.7342 9.39624 68.1418 9.76721L68.1418 10.0393L68.142 10.0393ZM33 2.31409L37.5324 2.31409C39.1465 2.33118 40.0924 3.14783 40.0943 4.39001C40.0924 5.64941 39.1467 6.32312 37.5324 6.32983L33 6.32983L33 2.31409ZM99.9999 1.32727C100.008 2.04541 99.4364 2.6377 98.752 2.65454C98.0276 2.6377 97.4562 2.04565 97.471 1.32727C97.4562 0.595703 98.0276 0.00341797 98.719 0C99.4366 0.00341797 100.008 0.595581 99.9999 1.32727Z" fill="#FFFFFF" fill-opacity="1.000000" fill-rule="nonzero"/>
	<path id="Vector" d="M98 3L98.1538 3L98.1538 2.1427L98.5641 2.1427C98.8242 2.13892 98.755 2.4939 98.7692 2.75525L98.7949 3L99 3C98.9243 2.81226 98.9474 2.76331 98.9231 2.51013C98.9166 2.16345 98.9089 2.13892 98.7949 2.02039C98.9089 1.8573 98.955 1.77173 98.9487 1.53052C98.9319 1.07336 98.7473 1.01221 98.5641 1L98 1L98 3Z" fill="#FF8200" fill-opacity="1.000000" fill-rule="nonzero"/>
	<path id="Vector" d="M98.6391 1.00232C98.7807 0.985107 99.0204 1.05554 98.9986 1.5304C98.9606 1.90051 98.7926 1.97095 98.6391 2L98 2L98 1.00232L98.6391 1.00232Z" fill="#FFFFFF" fill-opacity="1.000000" fill-rule="nonzero"/>
</svg>
