<svg width="47.550369" height="7.160645" viewBox="0 0 47.5504 7.16064" fill="none" xmlns="http://www.w3.org/2000/svg" xmlns:xlink="http://www.w3.org/1999/xlink">
	<desc>
			Created with Pixso.
	</desc>
	<defs/>
	<path id="text" d="M-7.62939e-06 0.0805664L1.00097 0.0805664L1.00097 7.08008L-7.62939e-06 7.08008L-7.62939e-06 0.0805664ZM9.1205 0.0805664L9.1205 7.08008L8.30019 7.08008L4.10097 1.86035L4.10097 7.08008L3.09999 7.08008L3.09999 0.0805664L3.9203 0.0805664L8.11952 5.30029L8.11952 0.0805664L9.1205 0.0805664ZM15.951 7.16064Q15.16 7.16064 14.4251 6.9165Q13.6903 6.66992 13.2703 6.2793L13.639 5.50049Q14.0394 5.85938 14.6644 6.08643Q15.2894 6.31104 15.951 6.31104Q16.8201 6.31104 17.2498 6.01562Q17.6795 5.72021 17.6795 5.22949Q17.6795 4.87061 17.4451 4.646Q17.2108 4.41895 16.8641 4.29932Q16.5199 4.17969 15.89 4.03076Q15.1014 3.84033 14.6156 3.6499Q14.1297 3.45947 13.7855 3.06641Q13.4412 2.6709 13.4412 1.99951Q13.4412 1.44043 13.7342 0.991211Q14.0296 0.539551 14.6302 0.270996Q15.2308 0 16.1195 0Q16.7396 0 17.3402 0.161133Q17.9408 0.319824 18.3704 0.620117L18.0409 1.4209Q17.6014 1.14014 17.1009 0.996094Q16.6004 0.849609 16.1195 0.849609Q15.2699 0.849609 14.8451 1.15967Q14.4202 1.46973 14.4202 1.96045Q14.4202 2.31934 14.6595 2.54639Q14.9012 2.771 15.2552 2.89551Q15.6092 3.02002 16.2196 3.15918Q17.0106 3.34961 17.4891 3.54004Q17.9701 3.73047 18.3143 4.12109Q18.661 4.50928 18.661 5.1709Q18.661 5.72021 18.3607 6.17676Q18.0604 6.63086 17.45 6.89697Q16.8397 7.16064 15.951 7.16064ZM21.4092 0.949707L19.0093 0.949707L19.0093 0.0805664L24.8003 0.0805664L24.8003 0.949707L22.4004 0.949707L22.4004 7.08008L21.4092 7.08008L21.4092 0.949707ZM28.9492 7.16064Q27.8896 7.16064 27.04 6.69678Q26.1904 6.23047 25.7045 5.41016Q25.2211 4.58984 25.2211 3.5791Q25.2211 2.5708 25.7045 1.75049Q26.1904 0.930176 27.04 0.466309Q27.8896 0 28.9492 0Q29.999 0 30.8486 0.466309Q31.7006 0.930176 32.1792 1.74561Q32.6601 2.56104 32.6601 3.5791Q32.6601 4.59961 32.1792 5.41504Q31.7006 6.23047 30.8486 6.69678Q29.999 7.16064 28.9492 7.16064ZM28.9492 6.26953Q29.7207 6.26953 30.3359 5.92041Q30.9511 5.57129 31.3051 4.95605Q31.6591 4.34082 31.6591 3.5791Q31.6591 2.81982 31.3051 2.20459Q30.9511 1.58936 30.3359 1.24023Q29.7207 0.891113 28.9492 0.891113Q28.1801 0.891113 27.5551 1.24023Q26.9301 1.58936 26.5737 2.20459Q26.2197 2.81982 26.2197 3.5791Q26.2197 4.34082 26.5737 4.95605Q26.9301 5.57129 27.5551 5.92041Q28.1801 6.26953 28.9492 6.26953ZM37.3199 7.16064Q36.2701 7.16064 35.4253 6.69678Q34.5806 6.23047 34.0997 5.41504Q33.6211 4.59961 33.6211 3.5791Q33.6211 2.56104 34.0997 1.74561Q34.5806 0.930176 35.4302 0.466309Q36.2798 0 37.3296 0Q38.15 0 38.8287 0.275879Q39.5098 0.549316 39.9908 1.09131L39.3414 1.72119Q38.5503 0.891113 37.3711 0.891113Q36.5899 0.891113 35.96 1.24023Q35.3301 1.58936 34.9737 2.20459Q34.6197 2.81982 34.6197 3.5791Q34.6197 4.34082 34.9737 4.95605Q35.3301 5.57129 35.96 5.92041Q36.5899 6.26953 37.3711 6.26953Q38.5406 6.26953 39.3414 5.42969L39.9908 6.05957Q39.5098 6.59912 38.8238 6.87988Q38.1402 7.16064 37.3199 7.16064ZM43.7003 3.96973L42.421 5.271L42.421 7.08008L41.42 7.08008L41.42 0.0805664L42.421 0.0805664L42.421 3.98926L46.2198 0.0805664L47.3599 0.0805664L44.3692 3.22998L47.5504 7.08008L46.3809 7.08008L43.7003 3.96973Z" fill="#F8F1EA" fill-opacity="1.000000" fill-rule="evenodd"/>
</svg>
