<svg width="27.920609" height="7.160645" viewBox="0 0 27.9206 7.16064" fill="none" xmlns="http://www.w3.org/2000/svg" xmlns:xlink="http://www.w3.org/1999/xlink">
	<desc>
			Created with Pixso.
	</desc>
	<defs/>
	<path id="text" d="M2.68066 7.16064Q1.88965 7.16064 1.15478 6.9165Q0.419921 6.66992 -9.53674e-07 6.2793L0.368651 5.50049Q0.769042 5.85938 1.39404 6.08643Q2.01904 6.31104 2.68066 6.31104Q3.5498 6.31104 3.97949 6.01562Q4.40918 5.72021 4.40918 5.22949Q4.40918 4.87061 4.1748 4.646Q3.94043 4.41895 3.59375 4.29932Q3.24951 4.17969 2.61963 4.03076Q1.83105 3.84033 1.34521 3.6499Q0.859374 3.45947 0.515136 3.06641Q0.170897 2.6709 0.170897 1.99951Q0.170897 1.44043 0.463866 0.991211Q0.759276 0.539551 1.35986 0.270996Q1.96045 0 2.84912 0Q3.46924 0 4.06982 0.161133Q4.67041 0.319824 5.1001 0.620117L4.77051 1.4209Q4.33105 1.14014 3.83057 0.996094Q3.33008 0.849609 2.84912 0.849609Q1.99951 0.849609 1.57471 1.15967Q1.1499 1.46973 1.1499 1.96045Q1.1499 2.31934 1.38916 2.54639Q1.63086 2.771 1.98486 2.89551Q2.33887 3.02002 2.94922 3.15918Q3.74023 3.34961 4.21875 3.54004Q4.69971 3.73047 5.04394 4.12109Q5.39062 4.50928 5.39062 5.1709Q5.39062 5.72021 5.09033 6.17676Q4.79004 6.63086 4.17969 6.89697Q3.56933 7.16064 2.68066 7.16064ZM10.0088 7.16064Q8.94926 7.16064 8.09965 6.69678Q7.25004 6.23047 6.7642 5.41016Q6.2808 4.58984 6.2808 3.5791Q6.2808 2.5708 6.7642 1.75049Q7.25004 0.930176 8.09965 0.466309Q8.94926 0 10.0088 0Q11.0586 0 11.9082 0.466309Q12.7603 0.930176 13.2388 1.74561Q13.7198 2.56104 13.7198 3.5791Q13.7198 4.59961 13.2388 5.41504Q12.7603 6.23047 11.9082 6.69678Q11.0586 7.16064 10.0088 7.16064ZM10.0088 6.26953Q10.7803 6.26953 11.3955 5.92041Q12.0108 5.57129 12.3648 4.95605Q12.7188 4.34082 12.7188 3.5791Q12.7188 2.81982 12.3648 2.20459Q12.0108 1.58936 11.3955 1.24023Q10.7803 0.891113 10.0088 0.891113Q9.23978 0.891113 8.61478 1.24023Q7.98978 1.58936 7.63334 2.20459Q7.27934 2.81982 7.27934 3.5791Q7.27934 4.34082 7.63334 4.95605Q7.98978 5.57129 8.61478 5.92041Q9.23978 6.26953 10.0088 6.26953ZM15.2496 0.0805664L16.2506 0.0805664L16.2506 6.21094L20.0397 6.21094L20.0397 7.08008L15.2496 7.08008L15.2496 0.0805664ZM21.1896 0.0805664L24.1389 0.0805664Q25.2497 0.0805664 26.1091 0.52002Q26.9709 0.959473 27.4445 1.75537Q27.9206 2.55127 27.9206 3.5791Q27.9206 4.60938 27.4445 5.40527Q26.9709 6.20117 26.1091 6.64062Q25.2497 7.08008 24.1389 7.08008L21.1896 7.08008L21.1896 0.0805664ZM24.0803 6.21094Q24.9299 6.21094 25.5744 5.88135Q26.2189 5.54932 26.5681 4.95605Q26.9196 4.36035 26.9196 3.5791Q26.9196 2.80029 26.5681 2.20459Q26.2189 1.60889 25.5744 1.2793Q24.9299 0.949707 24.0803 0.949707L22.1906 0.949707L22.1906 6.21094L24.0803 6.21094Z" fill="#000000" fill-opacity="1.000000" fill-rule="evenodd"/>
</svg>
