<svg width="37.999939" height="32.204834" viewBox="0 0 37.9999 32.2048" fill="none" xmlns="http://www.w3.org/2000/svg" xmlns:xlink="http://www.w3.org/1999/xlink">
	<desc>
			Created with Pixso.
	</desc>
	<defs/>
	<path id="twitter" d="M31.8618 3.58374C30.8762 2.4259 29.5665 1.60535 28.1096 1.23291C26.6528 0.860474 25.1191 0.954102 23.7161 1.50134C22.313 2.04846 21.1083 3.02258 20.2648 4.29211C19.4213 5.56165 18.9798 7.06519 18.9999 8.59937L18.9999 10.2714C16.1243 10.3475 13.2748 9.69592 10.7052 8.37451C8.13568 7.0531 5.9259 5.10291 4.27264 2.69763C4.27264 2.69763 -2.27277 17.7448 12.4545 24.4323C9.08441 26.7695 5.06982 27.9415 0.999939 27.7761C15.7272 36.1356 33.7272 27.7761 33.7272 8.54932C33.7272 8.08447 33.6814 7.61963 33.5963 7.16162C35.2654 5.47961 36.9999 1.02576 36.9999 1.02576C36.9999 1.02576 33.6978 3.01868 31.8618 3.58374Z" stroke="#F8F1EA" stroke-opacity="1.000000" stroke-width="2.000000" stroke-linejoin="round"/>
</svg>
