<svg width="100.000000" height="35.000000" viewBox="0 0 100 35" fill="none" xmlns="http://www.w3.org/2000/svg" xmlns:xlink="http://www.w3.org/1999/xlink">
	<desc>
			Created with Pixso.
	</desc>
	<defs/>
	<path id="Vector" d="M61.1624 0L63.1155 0C63.3983 0.0269775 63.6822 0.0432129 63.9661 0.0670166C63.4747 2.09131 62.8481 4.0769 62.2752 6.07751C61.5867 8.4032 60.8992 10.7279 60.1745 13.0419C60.9363 12.6561 61.7188 12.3148 62.5271 12.0491C63.4375 11.7531 64.3676 11.3933 65.338 11.4993C65.6064 11.4777 65.8521 11.6721 65.9388 11.9335C66.2412 12.6832 66.0234 13.4966 65.9862 14.2722C66.747 14.0896 67.1579 13.3442 67.6833 12.8171C68.5019 12.0696 69.5352 11.5781 70.6098 11.4128C71.3633 11.3447 72.1985 11.3588 72.8405 11.8276C72.9954 12.0588 72.9438 12.4229 72.7786 12.6421C72.2491 12.8971 71.6194 12.843 71.1136 13.1649C70.9329 13.3422 70.9091 13.623 70.8266 13.8541C70.2051 16.0255 69.5476 18.1881 69.0077 20.3832C68.8673 20.8066 69.0211 21.3932 69.4805 21.5001C69.9688 21.5197 70.4745 21.5693 70.9546 21.4473C71.3541 21.0951 71.5234 20.5496 71.7391 20.0688C72.5402 17.7885 73.0181 15.4043 73.5621 13.0472C73.6271 12.7804 73.6736 12.5093 73.7087 12.2371C73.5239 12.103 73.334 11.954 73.2917 11.7078C73.8522 11.361 74.5417 11.2734 75.1683 11.4463C75.6184 11.6158 76.0076 11.9172 76.3885 12.2144C76.6734 12.4271 76.7694 12.8376 76.6971 13.1844C76.4225 15.0532 75.766 16.8324 75.4357 18.6882C75.3737 19.0112 75.766 18.9994 75.9714 18.9865C76.9263 18.8827 77.8223 18.4333 78.6038 17.8662C78.8969 17.6836 79.0001 17.3293 79.0982 17.0106C79.4977 15.5912 79.8094 14.1479 80.1666 12.7167C80.2688 12.3019 80.3927 11.8925 80.5641 11.5035C81.5561 11.3436 82.5863 11.3177 83.5752 11.5133C83.5659 12.0988 83.2542 12.6 83.1035 13.1477C83.858 13.0029 84.5135 12.5654 85.2155 12.2683C86.064 11.8978 86.9507 11.4625 87.8953 11.5802C88.3722 11.5997 88.8677 11.9259 88.9616 12.4423C89.1588 13.1865 88.7841 13.892 88.6674 14.6104C89.2228 14.5747 89.8091 14.337 90.1549 13.8639C90.4729 13.1531 90.5844 12.317 91.1025 11.7185C91.2636 11.5133 91.5289 11.4971 91.7611 11.4581C92.9266 11.2961 94.1044 11.2627 95.2791 11.2681C96.6067 11.2648 97.9393 11.2638 99.2596 11.4355C99.5239 11.4722 99.8315 11.5792 99.9079 11.8838C100.068 12.426 100.001 13.0159 99.849 13.5527C99.4815 14.9193 99.1708 16.3053 98.7321 17.6501C98.665 17.7863 98.6392 18.0142 98.4596 18.0304C97.5099 18.1783 96.5468 18.1783 95.5888 18.1914C94.6484 18.2097 93.7049 18.1104 92.7686 18.228C92.3661 19.0858 92.0636 20.004 91.947 20.9546C91.9211 21.3079 91.9243 21.8026 92.2979 21.9603C93.069 22.184 93.9103 22.0576 94.6185 21.6783C95.1367 21.4094 95.5228 20.9427 95.9078 20.5042C96.5478 20.4977 97.1899 20.4502 97.8289 20.5182C97.7163 21.1998 97.4294 21.8351 97.0846 22.4194C96.937 22.6442 96.7873 22.885 96.5612 23.0287C96.0028 23.1454 95.4299 23.1238 94.8642 23.1443C93.0381 23.1572 91.2058 23.1832 89.3869 22.993C88.973 22.9683 88.5291 22.7834 88.3567 22.359C88.1399 21.767 88.239 21.1113 88.3495 20.5052C88.7294 18.98 89.357 17.5345 89.7214 16.0039C89.7657 15.8126 89.7833 15.6161 89.8019 15.4205C89.1939 15.7402 88.6148 16.141 88.0831 16.5818C87.6929 17.6426 87.4235 18.752 87.0767 19.8312C85.9164 23.6974 84.7633 27.5668 83.6051 31.4341C83.5401 31.6243 83.5411 31.8273 83.5473 32.0271C83.7321 32.0887 83.9251 32.1968 84.1244 32.1222C84.3824 32.0887 84.4836 31.8154 84.5961 31.6091C84.7747 31.271 84.9037 30.907 85.0513 30.5537C85.5231 30.4403 86.0289 30.5332 86.5141 30.5138C86.4553 30.9803 86.223 31.3909 86.0227 31.8025C85.5984 32.6062 85.1556 33.4012 84.6529 34.1542C84.5104 34.3594 84.3742 34.5787 84.178 34.7321C83.7868 34.92 83.345 34.9233 82.9279 35L81.1927 35C80.5919 34.9438 79.988 34.9071 79.3965 34.7753C79.444 34.205 79.6154 33.6583 79.7599 33.1096C81.2722 27.7104 83.0074 22.3849 84.5682 17.002C84.7004 16.4208 84.9595 15.8591 84.944 15.251C84.5125 15.1267 84.0769 15.2769 83.664 15.4043C83.2232 15.5653 82.7773 15.736 82.3829 16.0028C82.2043 16.1162 82.1476 16.3409 82.0753 16.531C81.5107 18.4603 81.0812 20.4318 80.5021 22.3568C80.3989 22.5793 80.3648 22.9445 80.0717 22.9703C79.1839 23.1594 78.2383 23.1993 77.365 22.9164C77.4569 21.7432 77.9493 20.6652 78.2445 19.5416C77.2153 20.2072 76.0179 20.5701 74.8112 20.6176C74.4808 21.2787 74.4065 22.2153 73.6725 22.5426C72.8168 22.9639 71.8403 22.9034 70.9195 22.9736C69.6457 23.0848 68.3718 22.9628 67.097 22.9391C66.8461 22.926 66.5323 22.9282 66.394 22.6647C66.0554 22.0953 65.6817 21.4504 65.8015 20.7505C65.946 19.7231 66.265 18.7347 66.5106 17.7312C66.7037 16.9404 66.9679 16.1594 67.0257 15.3406C66.5787 15.8062 66.0482 16.2178 65.3947 16.2653C64.5803 18.4431 64.1539 20.7581 63.3467 22.9391C62.1761 23.1075 60.9725 23.1184 59.806 22.9175C59.8235 22.1278 60.063 21.3716 60.2571 20.6155C60.6555 19.0631 61.1263 17.5314 61.5041 15.9736C61.631 15.4669 61.7673 14.9561 61.7621 14.4288C61.1903 14.4731 60.6514 14.7021 60.1528 14.9841C59.8101 15.1893 59.4488 15.441 59.3157 15.8538C58.8036 17.298 58.4847 18.806 58.0645 20.2805C57.8354 21.0681 57.6568 21.8761 57.3296 22.6279C57.2397 22.912 56.9208 22.924 56.6833 22.9585C55.8183 23.0568 54.9337 23.0913 54.0748 22.9207C54.1821 21.8275 54.7282 20.8369 54.816 19.7394C53.921 20.0969 53.0394 20.624 52.0495 20.5798C51.8358 21.2571 51.6376 21.9928 51.1142 22.4865C50.6311 22.9326 49.955 22.993 49.3418 23.0287C48.2342 23.0503 47.1286 22.9617 46.022 22.9563C45.9074 23.2156 45.8042 23.4802 45.7268 23.7546C44.9236 26.4445 44.2166 29.1635 43.4496 31.8651C43.1574 32.819 42.9149 33.7902 42.5577 34.7213C41.3757 34.8855 40.1721 34.8606 38.9829 34.8013C39.1171 33.6908 39.4918 32.6332 39.7695 31.5573C41.1228 26.7804 42.664 22.0651 44.0338 17.2937C42.3368 19.1117 40.5313 20.8488 38.4802 22.2239C37.9331 22.5588 37.3344 22.9683 36.6696 22.8547C36.3176 22.7792 35.8603 22.6074 35.8696 22.1515C35.8675 21.3003 36.1968 20.502 36.429 19.7004C35.5702 20.1455 34.6597 20.6079 33.677 20.5776C33.422 21.3856 33.1454 22.3308 32.3474 22.723C31.4917 23.1022 30.5316 23.0006 29.6263 22.9736C28.9347 22.9736 28.2431 22.9131 27.5525 22.9487C27.3667 23.1162 27.3254 23.3927 27.2335 23.6196C26.0887 27.2914 25.2061 31.0463 24.0995 34.73C23.2303 34.8682 22.3467 34.825 21.4713 34.8445C21.1121 34.826 20.7395 34.8779 20.3916 34.771C20.372 34.3885 20.5268 34.0256 20.6115 33.6605C21.5643 30.3085 22.6574 27.0029 23.6815 23.6747C23.8652 23.0211 24.082 22.3773 24.2368 21.714C21.6458 22.576 19.0249 23.4067 16.3151 23.7417C14.1267 24.0258 11.8392 24.0052 9.74677 23.2004C8.68042 22.7889 7.71317 22.1213 6.87601 21.323C5.30075 19.5665 4.81143 17.1068 4.47287 14.8026C4.36859 14.2852 4.42331 13.7062 4.1673 13.2373C3.71103 13.0094 3.17734 13.0688 2.68393 13.0526C1.78894 13.0645 0.894989 13.0181 0 13.0353L0 12.7933C0.139343 12.3396 0.29007 11.873 0.609039 11.5198C1.4039 11.5294 2.19876 11.496 2.99359 11.51C3.49838 11.4917 4.04446 11.5846 4.50278 11.3048C4.82486 11.1503 4.89401 10.7571 5.02719 10.4525C5.80862 8.5426 6.78204 6.69751 8.09097 5.12366C9.26468 3.64478 10.7635 2.43811 12.4616 1.69495C14.2568 0.897705 16.2429 0.751831 18.1701 0.831787C21.3299 1.12134 24.3256 2.55371 26.8351 4.54456C26.4676 5.05554 25.9814 5.45312 25.4879 5.82031C25.2784 5.95862 25.0575 6.11963 24.8004 6.1228C24.625 6.07849 24.4794 5.95972 24.3256 5.86792C23.4977 5.30505 22.5779 4.91406 21.7387 4.37073C19.766 3.15869 17.3309 2.61853 15.0991 3.28503C13.8501 3.62537 12.8632 4.5835 12.0601 5.5979C10.938 7.05835 10.0833 8.7467 9.57333 10.5443C9.41229 10.9569 9.69824 11.483 10.1256 11.5078C15.0372 11.5209 19.9498 11.4928 24.8614 11.522C24.5723 12.0415 24.274 12.559 23.9261 13.0397C19.3201 13.0288 14.7151 13.0386 10.1091 13.0343C9.68896 12.9954 9.40302 13.4081 9.22443 13.7516C8.88171 14.6525 9.04895 15.697 9.50107 16.5234C10.4673 18.4679 12.12 20.0397 14.0947 20.7904C16.6073 21.7734 19.4264 21.6449 21.9679 20.8434C22.9114 20.5647 23.8126 20.1466 24.6725 19.6572C24.9863 19.4963 24.9563 19.0771 25.0585 18.7791C25.5798 16.8076 26.1765 14.8567 26.8309 12.9294C27.0106 12.4855 27.1117 11.9907 27.3976 11.6051C27.6671 11.4572 27.9871 11.5046 28.2813 11.4755C29.1071 11.4733 29.9422 11.4603 30.7567 11.6256C30.7629 12.2133 30.5368 12.7621 30.3964 13.3217C29.6852 15.844 28.8666 18.3329 28.1863 20.8661C28.111 21.1372 28.0635 21.417 28.0449 21.7C28.5755 21.7583 29.1505 21.8837 29.6563 21.6427C29.8844 21.3014 29.9608 20.879 30.097 20.4934C30.8764 17.8219 31.5288 15.1116 32.2091 12.412C32.335 11.9918 32.0316 11.6559 31.7404 11.4225C32.4052 11.0088 33.2156 11.0542 33.9619 11.0337C34.2871 11.0542 34.6649 10.9569 34.9405 11.1935C35.3224 11.4938 35.5454 12.0242 35.4257 12.5211C35.116 14.472 34.5534 16.3668 34.1157 18.2886C34.0889 18.4431 34.0806 18.5997 34.0724 18.7574C34.3624 18.8568 34.667 18.9961 34.9766 18.9054C35.7126 18.7466 36.2339 18.1244 36.6902 17.5454C37.0721 17.0959 37.1083 16.4684 37.2745 15.9175C37.6306 14.6125 37.9599 13.2957 38.4399 12.0328C38.54 11.8406 38.5979 11.5305 38.8528 11.5176C39.7922 11.3361 40.7563 11.3804 41.7061 11.4215C41.8454 11.4636 42.0653 11.416 42.1375 11.5802C42.0766 12.2651 41.8547 12.9208 41.6782 13.5798C41.3551 14.6924 41.0361 15.8073 40.7378 16.9286C40.6418 17.2753 40.5881 17.6339 40.5736 17.9958C40.7914 17.8921 40.9989 17.7657 41.1889 17.6134C42.2604 16.76 43.2834 15.8418 44.3229 14.9452C44.5045 14.781 44.7203 14.6233 44.7977 14.3716C45.0816 13.5647 45.2509 12.7178 45.5688 11.9227C45.6349 11.7639 45.7227 11.5867 45.9023 11.549C46.4514 11.3999 47.0244 11.402 47.589 11.3955C48.1671 11.3999 48.7544 11.3707 49.3212 11.522C49.2757 11.8223 49.2179 12.1193 49.1333 12.4099C48.4324 14.8912 47.6117 17.3325 46.8747 19.802C46.6992 20.4264 46.4824 21.0432 46.4153 21.6935C46.9583 21.7778 47.524 21.8458 48.0566 21.6622C48.4251 20.8314 48.614 19.9316 48.8845 19.0642C49.4677 16.8551 50.0427 14.6417 50.5785 12.4196C50.724 12.0037 50.3968 11.6807 50.1356 11.4258C50.5341 11.1342 51.0306 11.0963 51.5003 11.0563C52.0113 11.0358 52.5284 11.0045 53.0384 11.0563C53.5958 11.2496 53.9519 11.9346 53.8116 12.532C53.5401 14.1263 53.1251 15.6885 52.7401 17.2548C52.6224 17.7484 52.4551 18.2367 52.4459 18.751C52.8134 18.9065 53.2283 19.0199 53.6082 18.8319C54.3659 18.5004 54.9367 17.8047 55.3528 17.0841C56.0536 15.0889 56.6627 13.0591 57.3141 11.0444C58.4372 7.41589 59.6202 3.80566 60.6628 0.151245C60.8001 0.0323486 60.9952 0.0443115 61.1624 0L61.1624 0ZM94.0735 13.6122C93.8061 14.6028 93.2249 15.5491 93.3715 16.6163C93.4097 16.772 93.4438 17.0247 93.644 17.0204C94.1416 17.0765 94.6422 17.0258 95.1418 17.0182C95.4288 16.2782 95.6146 15.5016 95.8149 14.7335C95.9057 14.3025 96.0657 13.8844 96.0771 13.4393C95.6621 13.246 95.1976 13.3226 94.7578 13.2946C94.5101 13.3151 94.1178 13.2611 94.0735 13.6122Z" fill="#010101" fill-opacity="1.000000" fill-rule="nonzero"/>
</svg>
