<svg width="100.000000" height="64.000000" viewBox="0 0 100 64" fill="none" xmlns="http://www.w3.org/2000/svg" xmlns:xlink="http://www.w3.org/1999/xlink">
	<desc>
			Created with Pixso.
	</desc>
	<defs/>
	<path id="Vector" d="M18.0801 19.444C18.0801 19.444 18.0801 14.7599 18.0801 12.3599C18.0801 9.95325 15.74 7.7644 13.9297 8.31506C12.1302 8.87231 4.56981 11.2208 4.25966 11.3617C3.95051 11.5079 0 13.0573 0 17.4539L0.0596848 46.0225C0.0596848 46.0225 0.230019 48.8962 3.16993 48.8386C3.16993 48.8386 4.02998 48.8386 5.40974 48.0771C5.40974 48.0771 8.81002 46.1827 9.04004 46.0804C9.25966 45.9846 11.1102 45.3828 11.1699 47.9553L11.1699 64L16.7503 62.182C16.7503 62.182 16.7503 48.4164 16.7503 47.9553C16.7503 46.9893 17.4407 42.208 19.8602 40.2311C20.0101 40.1029 21.1806 39.3352 22.22 40.7559C23.2699 42.1769 24.1802 42.3942 24.1802 42.3942C24.1802 42.3942 25.3098 42.8995 26.3107 41.1655C26.3704 41.0441 28.1307 38.0807 28.2105 37.9463C28.2903 37.812 28.5505 37.415 29.3002 37.4795C29.3002 37.4795 31.1507 37.3578 30.86 39.9944C30.86 39.9944 39.4203 37.3512 40.1301 36.9479C40.2397 36.9032 43.5099 35.5721 45.4801 32.5C45.4801 32.5 46.0699 31.6168 46.8096 31.6809C46.9397 31.6809 48.7601 31.7961 48.2403 34.2538C48.2403 34.2538 56.54 31.6748 57.0001 31.4446C57.9802 31.035 60.57 29.9404 60.5107 26.8811C60.5405 25.9724 60.3004 24.3856 59.0102 23.2463C58.9405 23.1757 53.3 18.9515 53.2501 18.9137C52.7599 18.4912 52.5101 17.5309 53.3097 16.5137C53.3097 16.5137 53.9398 15.5793 54.8696 15.637C54.8696 15.637 55.57 15.6049 56.6504 17.045C56.7898 17.1858 57.5899 18.274 58.1501 18.3889C58.1501 18.3889 58.6098 18.5424 59.1802 17.9794C60.5804 16.7443 61.3104 16.6931 61.3104 16.6931C61.3104 16.6931 63.3302 16.1045 63.3302 18.4465C63.3302 18.4465 63.3302 22.9077 63.3302 23.368C63.3302 24.4436 64.72 27.7391 67.8802 27.5796C67.8802 27.5796 68.97 27.4642 70.0104 27.17L73.4003 26.0631C73.4003 26.0631 77.67 24.7577 79.1601 21.9611C79.1601 21.9611 79.8699 20.5591 80.8899 20.5591C80.8899 20.5591 82.67 20.3228 82.5 23.0748L87.3401 21.4362L87.3401 9.54993C87.3401 9.54993 87.2006 8.14221 88.8301 8.14221C90.4403 8.14221 90.3899 9.4281 90.3899 9.4281C90.3899 9.4281 90.3899 33.5107 90.3899 34.0226C90.3899 34.7139 91.1001 36.8639 93.4398 36.8319C93.4398 36.8319 100 36.7747 100 31.0913C100 30.6691 100 28.9279 100 28.9279L98.3299 29.5107L98.3299 31.5646C98.3299 31.5646 98.4405 32.9474 96.8901 33.0238C96.7499 33.0559 95.23 32.9983 95.28 31.5005L95.28 1.40955C95.28 1.40955 95.1603 0.00158691 93.7795 0.00158691C93.7795 0.00158691 92.5198 -0.11377 91.5397 1.64624C90.5596 3.39978 90.2099 4.74365 88.8902 4.74365C88.8902 4.74365 87.3199 4.93567 87.3397 3.51465L87.3397 1.9917L82.38 3.63635C82.38 3.63635 82.38 9.21704 82.38 9.4281C82.38 10.8683 81.3201 18.0104 79.4501 18.0356C79.3197 18.0551 77.56 18.3047 77.4896 16.5127C77.4896 16.5127 77.4896 10.3881 77.4896 9.78003C77.5396 8.87158 76.8401 6.15747 74.6097 6.44604L72.6003 6.85559C72.6003 6.85559 72.6003 20.9796 72.6003 21.4344C72.6003 21.8822 72.4397 24.0327 70.0597 24.1282C69.8498 24.1605 67.5298 24.0645 67.5298 21.7861L67.5298 12.3022C67.5298 12.3022 67.4202 10.5999 69.0897 10.4846L69.1396 8.02698C69.1396 8.02698 64.0793 9.19836 61.7198 13.5312C61.4401 13.8381 60.85 14.1133 60.4496 14.1133C60.2099 14.1133 59.0702 14.0427 59.0099 12.8843C59.0099 12.6091 59.0099 11.3037 59.0099 11.3037L50.6602 14.1129C50.6602 14.1129 47.38 15.1694 47.38 18.5676C47.38 18.5676 47.38 20.9097 48.8201 22.017L54.6399 26.4713C54.6399 26.4713 55.63 27.1884 55.1499 28.4044C55.0892 28.609 54.4095 30.0106 53.0194 30.0427C52.7491 30.0743 51.8693 30.0427 51.3493 28.6923C51.3493 28.6923 50.8896 26.9385 49.3995 27.4633C49.3995 27.4633 46.5994 28.4618 46.3999 28.5194C46.2104 28.577 44.5598 28.8713 44.5598 26.8809C44.5598 26.8809 44.5598 20.8074 44.5598 20.3214C44.5598 19.8345 43.9696 17.0573 41.6799 17.1599C41.6799 17.1599 40.3594 17.2751 39.2104 17.8062L39.2104 20.6733C39.2104 20.6733 40.7601 20.4366 40.7601 22.4849L40.7601 32.3851C40.7601 32.3851 40.8299 34.8553 38.29 34.9004C36.1595 34.8749 35.8101 32.8076 35.8101 32.558C35.7896 31.1567 35.8698 1.00073 35.8698 1.00073L30.8004 2.99048L30.86 24.5957C30.86 24.5957 30.5502 31.61 28.6098 34.3173C28.0506 35.0917 26.08 35.0917 25.91 33.3761L25.91 22.2537L20.9603 23.8346C20.9603 23.8346 20.9603 27.5847 20.9603 28.34C20.9603 29.0953 20.2699 38.0417 17.7401 37.9139C17.4199 37.9208 16.7399 37.5616 16.7295 36.0261L16.76 25.1273L11.9199 26.8809C11.9199 26.8809 11.87 32.8707 11.8596 33.2039C11.7097 35.1241 11.9793 43.8019 6.3298 43.8019C6.3298 43.8019 4.94971 43.8595 4.94971 42.1633L4.94971 17.921C4.94971 17.921 5.10964 15.182 7.19957 14.2283C7.19957 14.2283 9.33007 13.4539 9.78976 13.2938C10.2397 13.1339 11.9796 13.2938 11.9796 15.2267L11.9796 21.3768L18.0801 19.444Z" fill="#000000" fill-opacity="1.000000" fill-rule="nonzero"/>
</svg>
