<svg width="40.000000" height="71.000000" viewBox="0 0 40 71" fill="none" xmlns="http://www.w3.org/2000/svg" xmlns:xlink="http://www.w3.org/1999/xlink">
	<desc>
			Created with Pixso.
	</desc>
	<defs/>
	<path id="Vector" d="M13.278 57.1123L13.5084 56.9146L13.3788 57.0081L13.924 56.4464C14.0057 56.3762 14.0863 56.3046 14.1656 56.2317C14.1271 56.2649 14.0923 56.2858 14.0682 56.2964L14.2416 56.1151C14.7534 55.7426 15.916 54.7085 16.2752 54.4331C16.7283 54.0476 17.2653 53.5583 17.5876 53.2378C17.2856 53.532 16.8704 53.9084 16.9565 53.7583C17.536 53.1288 17.7311 52.7391 18.8835 51.7996L18.2589 52.4L19.7952 51.1771C20.2302 50.6489 19.0284 51.7874 18.7852 51.9285C19.9418 50.9402 20.6707 49.8934 21.2927 49.5183C21.2946 49.3829 21.2983 49.1559 22.0204 48.472C21.5837 49.0464 22.5 48.1071 22.1614 48.5973C22.4482 48.397 22.9344 47.8029 23.0271 47.8131L22.9316 47.85C24.0429 46.5649 24.6148 46.3448 25.1935 45.895C26.6841 44.5104 27.3108 43.8187 28.5148 42.6785C28.5153 42.5884 28.7123 42.1516 29.1957 41.6945C29.4808 41.5402 30.5892 40.5265 30.78 40.4976C29.9583 41.356 30.0126 41.1082 29.4819 41.5844C29.1399 42.0775 29.5266 41.7021 28.9948 42.3131C29.4319 41.8278 31.1619 40.3055 31.5973 39.7324L31.4047 39.8971C32.178 39.0576 32.1359 38.7141 33.6249 37.5089L34.3272 36.9259C34.2877 36.9486 34.2747 36.943 34.2507 36.9523C34.7809 36.4323 34.9503 36.2207 35.1436 36.0052C35.1944 35.9482 35.2465 35.8923 35.2997 35.8374C35.3717 35.7635 35.4453 35.6912 35.5204 35.6202C35.6934 35.4559 35.9241 35.248 36.2864 34.9333C36.1746 35.0304 36.2235 34.9663 36.1118 35.0636C36.2556 34.9067 36.4048 34.7546 36.5593 34.6074C36.2745 34.3301 36.0189 34.0533 35.7686 33.7788L35.4008 33.3752L35.0926 33.043C34.7151 32.8079 35.1002 33.1777 35.2437 33.41C34.0344 32.2925 32.8726 30.9485 32.2196 30.16L31.4175 29.4615C31.8421 29.9253 32.3243 30.5272 32.1458 30.4331C31.7398 30.0151 31.8525 30.0627 31.2465 29.5024C31.3049 29.6416 31.5139 29.9205 31.7386 30.2421C30.4398 29.1268 31.6166 29.8303 30.6263 29.1283C30.24 28.757 30.0787 28.4802 30.0883 28.3895L29.3221 27.7805C29.3105 27.6421 28.4522 26.8058 27.8972 26.2507C27.8566 26.1567 28.4225 26.6219 28.6111 26.8533C28.6208 26.7626 28.0441 26.1587 27.6566 25.7863C27.3766 25.7832 25.1456 23.3231 25.4396 23.9218C23.7479 22.2017 21.3224 19.8328 20.2344 18.6703C19.8182 18.3423 19.0458 17.6006 19.4427 18.109C18.0443 16.7599 17.4654 15.9265 16.0402 14.6235C15.908 14.5294 16.6661 15.2303 16.5708 15.2273C15.7194 14.2982 14.8621 13.6908 13.4919 12.2965C13.7263 12.5275 13.7667 12.6217 13.7851 12.6674C13.8326 12.6689 13.2563 12.0648 12.9146 11.6919C12.6981 11.5059 13.1703 11.9708 13.038 11.8771C10.2527 9.31763 8.37006 7.13647 5.6604 4.53223C6.4342 5.27588 6.63446 5.64612 6.60498 5.69055L5.84705 4.96179C5.60144 4.63611 5.03333 4.08801 4.59283 3.59644C4.5174 3.55676 4.26776 3.35156 4.48169 3.6001C3.68823 2.92371 3.14685 2.31995 2.56873 1.67017L2.12384 1.17224L2.06702 1.10864L2.03314 1.05774C2.00983 1.02454 1.98297 0.993774 1.9715 0.953857C1.93457 0.882324 1.91571 0.802002 1.90869 0.721191C1.90271 0.639771 1.91089 0.555542 1.93719 0.475464C1.95306 0.43811 1.96246 0.388306 1.98218 0.368896C1.98999 0.355469 1.99664 0.341431 2.00201 0.326904L2.00623 0.315063L2.02325 0.295532L2.05737 0.256104L2.12622 0.176514L2.13483 0.166382L2.13605 0.165283C2.08832 0.216431 2.12341 0.179077 2.11298 0.190308L2.11481 0.189087L2.11841 0.186523L2.13245 0.176514L2.16034 0.155762L2.21429 0.111206C2.23608 0.101562 2.25739 0.0910645 2.27832 0.079834C2.32367 0.0495605 2.35638 0.0491943 2.38953 0.0321045C2.39734 0.0218506 2.44086 0.0178223 2.4812 0.0137939L2.60083 0L2.46558 0.00158691C2.44708 0.00256348 2.41339 0.000366211 2.40137 0.00427246C2.37183 0.012207 2.34143 0.0169678 2.31085 0.0185547L2.24445 0.0441895C2.19348 0.0563965 2.14832 0.0871582 2.09772 0.119141L2.07806 0.130737L2.06781 0.136597L2.06299 0.139526L2.06158 0.140259L2.06104 0.140625C2.06921 0.131714 2.04132 0.161255 2.07947 0.120483L2.07666 0.123413L2.0307 0.169189C1.99957 0.200439 1.96838 0.231689 1.93719 0.262939C1.88184 0.338623 1.80316 0.478027 1.78528 0.625977C1.77319 0.775635 1.80176 0.925659 1.86816 1.0614C1.91052 1.12488 1.9422 1.18091 1.99799 1.24487L2.15192 1.42041L2.46936 1.78271L1.85651 1.31519L2.74707 2.33765C2.117 1.81677 1.71783 1.24744 1.59503 1.17432C1.60828 1.2218 1.64661 1.27417 1.69055 1.33044L1.75818 1.41687L1.82404 1.48804C1.90912 1.58081 1.97772 1.66223 1.9635 1.68494C1.81616 1.55249 1.71082 1.46826 1.61151 1.33923C1.56055 1.28406 1.53143 1.224 1.50494 1.16809C1.47803 1.11255 1.4516 1.06238 1.44275 1.00769L1.40881 0.851562L1.40479 0.687256C1.39941 0.630127 1.41486 0.570068 1.42407 0.503784C1.42993 0.43689 1.45337 0.36731 1.48169 0.289795C1.38373 0.484741 1.34705 0.748291 1.42688 1.0155C1.46625 1.14746 1.52924 1.28406 1.62756 1.401C1.65002 1.42993 1.6759 1.46533 1.69757 1.48914L1.76202 1.55957L1.89404 1.70215C2.27423 2.10876 2.66016 2.51025 3.0517 2.90674L5.25067 5.12048C5.4234 5.30859 5.12744 4.93567 5.10938 4.89038C5.58136 5.3551 5.91144 5.58887 6.48694 6.19177C6.7998 6.60938 6.15869 5.95972 5.85669 5.6803C5.8454 5.76978 5.99731 5.9104 6.31903 6.23596C6.45966 6.23804 8.15149 7.95789 8.6604 8.28601C10.3984 10.0062 8.19965 8.1875 9.94769 9.81714L10.5401 10.236C11.476 11.2581 12.7115 12.556 13.8569 13.6294L13.6218 13.3973C13.4971 13.2117 13.7799 13.4442 13.9131 13.5393C14.7999 14.33 15.4699 15.1627 16.0661 15.5852C16.9545 16.6056 18.5137 18.2316 19.5825 19.3474C19.987 19.5361 18.2203 17.861 17.8228 17.3512L18.8347 18.3291C18.2103 17.7236 18.0027 17.4465 17.6871 17.0269C18.5939 17.8649 18.7942 18.2347 19.6087 19.0725C19.5716 18.9818 19.7014 19.0735 20.0901 19.4473L20.1309 19.6206C20.1435 19.6219 20.1919 19.6584 20.3161 19.7698L21.7701 21.2557C21.423 20.9777 21.3474 21.0212 20.9598 20.6487C21.1384 20.7429 20.8185 20.4186 20.4305 20.0461C20.7241 20.4171 20.0149 19.7189 19.9856 19.7628C20.7632 20.51 21.7067 21.439 22.1964 21.9484L22.4255 22.0463C23.181 22.7444 23.9259 23.5323 24.4457 23.9985L24.3217 23.8131C25.2281 24.6505 26.0601 25.5334 26.9099 26.2334C27.6279 27.0677 28.5628 28.088 29.1331 28.786C29.3964 29.1996 31.5578 30.9271 32.3334 31.9004C32.4024 31.9497 31.783 31.2489 31.5098 30.925C32.1158 31.4855 32.4849 32.0399 32.7576 32.1357C31.397 30.8785 32.8984 32.1379 32.3233 31.5349C32.945 32.1383 33.5865 32.788 33.8613 33.1133C32.8533 32.1384 34.0997 33.575 33.1161 32.5524C33.4581 32.9496 33.8751 33.4001 34.323 33.8584L34.7574 34.2998C34.8649 34.405 34.9753 34.5073 35.0887 34.6066L35.0308 34.6694C35.1058 34.6694 35.0836 34.7244 34.9214 34.9109C34.9176 34.9148 34.7007 35.0192 34.7045 35.0155C34.6043 35.1217 34.7235 35.0376 34.8291 34.9692C34.9326 34.9026 35.0223 34.8516 34.7889 35.0953C34.704 35.155 34.6639 35.1787 34.4932 35.3333C34.3412 35.4698 34.1914 35.6088 34.0439 35.7499L33.1005 36.6678C32.48 37.2733 31.9138 37.8075 31.6278 37.9176C30.9991 38.6558 33.022 36.7041 32.0552 37.798C32.7281 37.2684 33.4995 36.3864 33.7866 36.2748C33.1635 36.8291 33.6407 36.5557 33.2554 36.9294L32.5349 37.5229L32.6793 37.3772C31.4779 38.3806 29.7417 40.1322 28.2973 41.5002C26.999 42.5868 26.0398 43.272 24.5958 44.6846C25.0756 44.319 23.4373 45.8973 24.4453 45.1035C23.8174 45.796 23.1003 46.3861 23.0496 46.3627C23.6287 45.7787 23.2458 46.1501 23.7258 45.651C23.344 45.932 22.5702 46.683 22.2814 47.0193C22.4257 46.8734 22.3782 46.936 22.4251 46.9183C21.7491 47.63 22.0414 47.2019 21.5117 47.6765C21.4133 47.8943 20.4014 48.7815 19.9679 49.2634L19.2012 49.8287C19.6322 49.5275 18.5749 50.4755 18.5231 50.6315C17.9963 51.0591 17.5157 51.3804 16.7935 52.1089C17.1296 51.8444 16.1647 52.8027 16.2124 52.8734C15.0058 54.1503 13.9535 54.736 12.8423 55.9762C12.8937 55.9539 13.1753 55.7588 12.8403 56.1115C12.5478 56.3613 12.0722 56.8344 11.7706 57.1129L11.7816 57.1056L11.7646 57.1188C11.6169 57.255 11.5184 57.3356 11.5003 57.3247C10.936 57.755 10.6154 57.948 9.57147 58.859C9.57526 58.7217 10.441 57.9375 10.8264 57.6084L11.2087 57.3712C11.4044 56.9806 12.1232 56.5233 12.3164 56.2689C11.5978 56.7262 9.91119 58.4128 8.80609 59.3345C9.33746 58.6353 10.6884 57.3016 11.892 56.1622L11.4086 56.709L12.0334 56.1082L11.5035 56.7621C12.0812 56.1791 12.6108 55.7043 13.1406 55.1847C12.514 55.7869 12.366 56.1143 12.7045 55.7582C13.3332 55.02 13.4749 55.1002 14.0031 54.5822C13.7131 54.8743 13.3288 55.2478 13.6168 55.0461C14.5834 53.9523 14.9213 53.7306 15.7872 52.723C15.7842 52.9487 16.9916 51.5823 17.2292 51.5355L16.796 51.9727L17.8053 51.1326C18.5785 50.2045 16.9417 51.7814 18.1946 50.443C19.4006 49.256 19.4904 49.4037 20.4565 48.488C20.0729 48.7263 19.2549 49.4028 18.4846 50.1504L18.9193 49.667C18.6321 49.8677 17.5719 50.9073 17.043 51.426C18.0024 50.651 16.6547 51.8475 16.3154 52.2939C16.1755 52.301 16.7516 51.7649 16.0304 52.3586C16.6575 51.7556 16.7544 51.6725 17.5256 50.8799C15.835 52.5706 15.7487 52.1521 14.3022 53.656C15.0247 53.0164 14.1564 53.9813 14.1052 54.0927C13.7715 54.3997 13.095 55.0225 12.8065 55.2688L12.957 54.9388C12.0407 55.7439 11.9391 56.2329 10.8306 57.1129C10.6422 57.1842 11.6995 56.2366 11.5067 56.4011C10.0649 57.6774 9.72137 58.3066 8.56628 59.5608C8.46838 59.6 8.422 59.5277 7.94244 59.8933C8.13446 59.8185 7.84631 60.1534 8.37128 59.7278C7.98517 60.1473 7.45721 60.5757 7.07294 60.9036C7.89325 60.0465 6.64105 61.1613 6.44946 61.28C6.01678 61.7166 6.64148 61.205 6.93024 60.9584C6.59052 61.3162 6.25299 61.8051 5.96545 61.9169C6.01178 61.9888 7.11688 61.1119 7.79114 60.4915L7.35706 60.9293C7.6936 60.6641 7.74213 60.6003 8.17322 60.1659C7.7887 60.6274 7.88306 60.6364 8.02649 60.5809C8.07428 60.5179 7.98077 60.5974 8.02612 60.537C8.36542 60.1794 8.65417 59.9329 8.604 60.0431C9.00415 59.8135 8.16278 60.5671 7.96289 60.8383L7.40546 61.3452L5.30182 62.8732C4.48407 63.604 4.1925 64.0063 3.64026 64.6152L3.40833 64.7047C2.73047 65.3732 2.10596 66.0186 2.6333 65.6799C2.6347 65.6337 2.73065 65.5516 2.8761 65.4048C2.9054 65.3948 2.94635 65.3684 2.99512 65.3318C3.01361 65.3219 3.02539 65.3182 3.04126 65.3108L1.76746 66.4639C3.11432 65.3586 1.95605 66.5259 2.28815 66.4438C1.99231 66.7119 1.69647 66.9799 1.40063 67.2478L1.29083 67.3472L1.14777 67.5032L1.1084 67.5468C1.10443 67.55 1.09216 67.5669 1.08057 67.5835L1.0484 67.6305C1.00751 67.6915 0.973999 67.7473 0.947876 67.7935C0.895142 67.8866 0.871216 67.9407 0.874023 67.9377C0.933105 67.7979 1.00586 67.6636 1.09137 67.5371C1.09796 67.528 1.10455 67.5188 1.11127 67.5098L1.14594 67.4617C1.16272 67.4375 1.17938 67.4132 1.19592 67.3888L1.20032 67.3818L1.20093 67.3811L1.25873 67.3193L1.25995 67.3175L1.26233 67.3145L1.271 67.3033L1.28339 67.2855C1.29608 67.266 1.29285 67.262 1.27802 67.2697C1.27057 67.2736 1.26031 67.2803 1.2475 67.2894L1.23749 67.2968L1.23663 67.2974L1.17664 67.3613L1.17548 67.3625L1.17285 67.3647L1.16785 67.3695L1.14575 67.3906C1.11365 67.4224 1.07715 67.458 1.03217 67.5068C0.948303 67.6187 0.862183 67.7556 0.794983 67.8938C0.75 68.0107 0.707275 68.1321 0.679382 68.2456C0.659546 68.3608 0.646912 68.469 0.638855 68.5574C0.655518 68.613 0.667908 68.6698 0.675964 68.7273C0.692261 68.8135 0.702271 68.9276 0.748413 69.0569C0.768677 69.1218 0.791992 69.1915 0.818481 69.2644C0.851746 69.3345 0.890503 69.4077 0.932617 69.4833C0.974365 69.5623 1.02545 69.6364 1.08478 69.704C1.11444 69.7396 1.14496 69.7755 1.17566 69.8121L1.22339 69.866L1.22943 69.8726L1.30005 69.9342L1.3075 69.9404L1.32233 69.9528L1.44434 70.0544C1.5282 70.1141 1.65405 70.1884 1.76562 70.2437L1.85272 70.285L1.92633 70.3103L2.07568 70.3566C2.17499 70.3893 2.27655 70.4044 2.37805 70.4141C2.58014 70.4436 2.77881 70.4207 2.95941 70.3936C3.138 70.3497 3.30298 70.3041 3.43237 70.2292L3.34509 70.2498C3.4649 70.1854 3.60132 70.1219 3.71893 70.0187C3.77911 69.9706 3.84418 69.9161 3.90051 69.865L3.99567 69.769L4.41626 69.3578C4.70239 69.0834 4.9931 68.8135 5.28839 68.5482C5.28839 68.5933 6.05554 68.0718 6.43799 67.8347C5.5896 68.7039 6.13641 68.23 6.10931 68.3392C6.19598 68.2482 6.35773 68.0902 6.38562 68.0806C6.53052 67.9788 6.24213 68.27 6.24036 68.3159C5.75952 68.749 5.27771 69.1941 4.85651 69.5651C4.66779 69.7328 4.47498 69.896 4.2782 70.0549L4.12567 70.1742C4.03601 70.2432 3.94708 70.3048 3.86218 70.3583C3.68866 70.46 3.51624 70.5216 3.3764 70.5632C3.57184 70.4609 3.75665 70.3704 3.90674 70.2477C3.9812 70.1919 4.06769 70.1237 4.12567 70.0754L4.22821 69.9927C4.36627 69.8832 4.51038 69.771 4.65546 69.6029C4.51544 69.7054 4.37976 69.8135 4.24872 69.9266C4.21381 69.957 4.17828 69.9877 4.14233 70.0193L4.07776 70.0758L3.95471 70.175C3.79175 70.3118 3.59351 70.4143 3.383 70.5057C2.92456 70.6801 2.41882 70.7009 1.94666 70.5651C1.88422 70.547 1.82178 70.5276 1.75958 70.5063C1.60327 70.439 1.45355 70.3583 1.31232 70.2649C1.29022 70.2506 1.28381 70.2454 1.27917 70.2417L1.26056 70.2272L1.22302 70.1981L1.14734 70.1389L1.13794 70.1315L1.13312 70.1276L1.04419 70.0498L1.03979 70.0452L1.0047 70.0074L0.935242 69.9301C0.843567 69.8247 0.754028 69.7164 0.688232 69.5879L0.620789 69.4901C0.57019 69.4183 0.527344 69.3417 0.492981 69.2615C0.453247 69.1744 0.417114 69.0844 0.391846 69.0161C0.368347 68.9478 0.359741 68.9003 0.359741 68.9003L0.349915 68.7993C0.346497 68.7349 0.334045 68.6428 0.341492 68.5332C0.350586 68.4081 0.366882 68.2836 0.390259 68.1602C0.428955 68.0242 0.466919 67.8926 0.533508 67.7432C0.596069 67.6177 0.668274 67.4969 0.749634 67.3818L0.789368 67.3273C0.804993 67.3059 0.802795 67.3112 0.810425 67.3019L0.927429 67.1747L1.01453 67.0819L1.02136 67.0759L1.03461 67.064L1.05908 67.0422C1.07239 67.0304 1.08563 67.0186 1.09882 67.0066C1.12085 66.9868 1.13373 66.9757 1.13373 66.9757C1.08917 67.0112 1.05261 67.0381 1.02075 67.0602L1.00891 67.0681L1.0033 67.072L1.00287 67.0723L0.921021 67.1597L0.920166 67.1602L0.919006 67.1614L0.916199 67.1635L0.896118 67.1792L0.859192 67.2067L0.791382 67.2531L0.756653 67.2771C0.741211 67.2904 0.705078 67.3353 0.678406 67.3689C0.619995 67.4431 0.554993 67.5345 0.485962 67.6554L0.434814 67.751L0.399048 67.8374C0.375 67.8984 0.350281 67.9668 0.325989 68.0433C0.243958 68.3442 0.156067 68.8143 0.400452 69.4287C0.359558 69.3582 0.262634 69.1671 0.224487 68.8854C0.207214 68.7438 0.188782 68.5818 0.211853 68.405C0.220215 68.3134 0.232971 68.222 0.250183 68.1315C0.274475 68.0388 0.303345 67.9436 0.336853 67.8477C0.376404 67.6868 0.590088 67.3372 0.699646 67.209L0.794556 67.1034L0.908936 66.98L0.935425 66.9558L0.988403 66.907C1.12531 66.7815 1.25836 66.6523 1.38757 66.5194L1.72028 66.3477C1.5788 66.4009 2.63892 65.3612 1.82098 66.0374C1.50671 66.3116 1.19232 66.5858 0.877869 66.8599L0.850586 66.8835L0.837341 66.8951L0.830688 66.9008L0.829102 66.9023L0.729187 67.0089L0.726135 67.012L0.637268 67.1067L0.5979 67.1488C0.596924 67.1476 0.568848 67.1858 0.555786 67.2034L0.50885 67.269C0.449036 67.3551 0.401062 67.434 0.36377 67.4995C0.288879 67.6326 0.256775 67.709 0.260193 67.7035C0.255981 67.7095 0.287476 67.6217 0.351074 67.4904C0.387329 67.4158 0.426758 67.3428 0.469299 67.2715L0.578491 67.0978L0.664368 66.9572L0.769287 66.8446L0.770691 66.8428L0.773132 66.8396L0.777954 66.8331L0.786743 66.8215C0.792175 66.8143 0.79718 66.808 0.801025 66.8025C0.808838 66.7921 0.81366 66.7863 0.81366 66.7863L0.767883 66.8289L0.762451 66.8341L0.6521 66.9518L0.640686 66.9645L0.615356 66.9935C0.597107 67.0143 0.576843 67.038 0.554382 67.0634L0.537354 67.0831L0.528687 67.0931C0.526489 67.0953 0.523254 67.099 0.512024 67.1143C0.392639 67.2749 0.289612 67.4464 0.204407 67.6262C0.157471 67.7366 0.12738 67.8341 0.0936279 67.9449L0.0490723 68.109C0.0394897 68.1647 0.0316162 68.2208 0.0245972 68.2773C-0.0496216 68.731 0.0563354 69.1892 0.179749 69.5099C0.250793 69.6672 0.322632 69.7947 0.373962 69.8817C0.423767 69.9705 0.462463 70.0134 0.462463 70.0134L0.441589 69.9824C0.427979 69.963 0.410706 69.9338 0.392212 69.8972C0.354309 69.8247 0.306152 69.7263 0.263611 69.6268C0.223267 69.537 0.191772 69.4435 0.169495 69.3479L0.138794 69.2183C0.162903 69.3054 0.189575 69.3898 0.218079 69.4706C0.248352 69.5503 0.288513 69.6248 0.325623 69.6978C0.36377 69.7705 0.403259 69.8398 0.44342 69.9059C0.485168 69.9706 0.533325 70.0283 0.578857 70.0857C0.625 70.1425 0.67157 70.1963 0.717896 70.2474L0.752625 70.2853L0.769897 70.3037L0.774292 70.3081L0.77655 70.3104L0.891907 70.4114L0.895935 70.4147L0.926636 70.4395C0.967346 70.4717 1.00568 70.5018 1.04138 70.5305C1.24469 70.6763 1.55353 70.8357 1.71063 70.877C1.88263 70.9275 2.0329 70.9702 2.16614 70.9819C2.43427 71.0103 2.62225 71.0032 2.76898 70.9752C2.91565 70.9496 3.02179 70.9301 3.12335 70.889C3.22546 70.8514 3.32666 70.8115 3.46027 70.7561C3.58771 70.6898 3.75848 70.6116 3.96497 70.4637C4.01971 70.4224 4.07361 70.3799 4.12646 70.3364L4.21381 70.2628L4.25873 70.2234L4.27979 70.2032L4.45697 70.0365C4.63165 69.8768 4.80872 69.7196 4.98816 69.5649C5.61023 69.1448 6.18835 68.606 7.20056 67.5847C6.43079 68.2875 7.05768 67.5952 6.72156 67.8149C7.44635 67.0397 7.78131 66.8654 8.21411 66.5179C8.35944 66.2823 8.45734 66.1099 7.78229 66.7754C7.59344 66.7579 8.69775 65.926 8.65338 65.7631C10.9169 63.5837 10.8088 64.3466 13.3179 61.6667L13.1759 61.7209C14.9072 60.1526 15.8239 59.1682 17.4114 57.7008L18.5255 56.4141C18.2352 56.6619 17.4178 57.2933 17.7084 56.9109C17.224 57.5923 16.5537 58.1647 15.972 58.8408C15.8779 58.8765 16.1183 58.6042 16.2142 58.4773C15.8281 58.8518 15.6837 59.087 15.1534 59.5621C15.1555 59.5165 15.6852 58.9517 15.2518 59.3444L14.6247 60.0812C13.6621 60.9481 14.0037 60.3662 12.9425 61.4513C13.2062 61.3137 13.7089 60.9979 14.1465 60.6036C13.6605 61.0984 14.8486 59.9963 14.4294 60.4713C13.6204 61.0789 13.3444 61.4828 12.3318 62.3518C12.4567 62.2555 12.5038 62.2437 12.7448 62.0219L11.3953 63.3983C11.6859 63.016 10.1913 64.4492 10.2423 64.249C11.6885 62.79 11.3012 63.2552 12.9419 61.5856C12.4473 62.0291 11.7525 62.5461 11.3911 62.7537C11.3795 62.7708 11.3576 62.7966 11.3073 62.848C10.9724 63.0219 11.2141 62.7484 11.0739 62.6227C11.9393 61.9729 12.3742 61.3999 13.3368 60.5774C13.5814 60.4843 12.905 61.1769 12.4348 61.5936L13.2832 60.8694L13.0918 60.9884L15.0955 59.0059C14.7072 59.3733 14.5336 59.4578 14.3008 59.6202C14.5597 59.3647 14.7993 59.0955 15.0535 58.8086C15.0662 58.9329 15.1526 58.9457 15.4067 58.698C16.695 57.4216 17.3572 56.6595 17.7582 56.1167L17.9151 55.9749C17.7688 56.256 18.9722 55.2056 19.4506 54.8865C19.3557 54.8337 20.0783 54.1938 20.4162 53.7936C20.7026 53.6833 20.5541 54.0557 20.1662 54.5657C19.205 55.342 19.5925 54.9666 19.0639 55.2616L17.574 56.5569L17.9588 56.3176C17.2826 57.0291 16.5134 57.5972 16.6543 57.6329C17.0871 57.33 17.6675 56.6998 18.0975 56.3997L17.6628 56.8826C18.5751 56.1709 18.0012 56.3929 19.0607 55.4879C18.7691 55.9158 19.1566 55.4058 19.635 55.0419C19.3447 55.4246 17.8555 56.7184 18.2845 56.5532C18.8598 56.1062 19.8802 54.7207 20.6954 54.1813L20.6472 54.1997C21.6439 53.205 22.0735 52.9321 22.4994 52.6107C22.8887 52.1541 23.5428 51.6359 24.015 51.189L23.9661 51.1637L24.6411 50.5421C24.259 50.7795 23.8701 51.29 23.2938 51.8275L23.2946 51.6923C22.7243 52.4026 22.163 52.7018 21.5967 53.1328C22.3942 52.4795 23.6611 51.1069 23.9701 51.071L24.3558 50.5631L24.5994 50.377C24.8864 49.9979 24.4567 50.2529 23.7822 50.8737C23.6855 51.0012 23.6368 51.0647 23.6861 51.0453C23.3492 51.3105 23.0143 51.5295 22.2906 52.2594L22.7221 51.9137C21.806 52.8079 20.9416 53.5907 20.5579 53.8292C21.8586 52.5171 23.1604 51.2485 24.4122 50.0459C24.9377 49.8422 25.4631 49.5056 25.797 49.4655C26.6619 48.6827 27.8195 47.6036 28.4935 46.8494L28.3978 46.886C28.7031 46.5659 29.0251 46.2612 29.3627 45.973C29.6994 45.5737 29.0286 46.1465 29.2692 45.8739L30.5183 44.7625C30.3781 44.77 29.3681 45.7449 28.8837 46.2035C28.9798 46.1213 29.1734 45.9556 29.1237 46.0209C28.5931 46.5857 27.4412 47.4802 27.2932 47.8083C27.0046 48.0546 27.9158 47.3435 27.0008 48.2367C26.4207 48.8663 26.1343 48.9771 26.0412 49.0115C25.9936 48.985 26.9568 48.0284 26.5723 48.312C27.0566 47.8536 27.296 47.7158 27.8731 47.0889C27.3933 47.5435 26.6717 48.0933 26.4768 48.3938C25.467 49.2338 25.4259 48.9336 25.8594 48.4963C25.809 48.6515 27.6415 46.9067 26.4813 48.166C27.1057 47.7 28.1175 46.7242 28.8859 46.0676L28.8387 46.0858L29.7554 45.2349C29.6091 45.3379 29.3205 45.5844 29.2744 45.5569L30.6201 44.4517C29.8517 45.0632 31.0078 43.9871 31.2969 43.6501C31.4875 43.5767 32.0159 43.1477 31.582 43.63C31.0991 44.1766 31.2455 43.8947 30.7642 44.3512L31.5301 43.7864L31.5792 43.7218L32.0601 43.401C32.9749 42.5074 31.486 43.6228 32.7373 42.5544L32.6848 42.7999C34.0349 41.4678 35.6741 39.6656 36.6853 38.7794C36.3618 38.9808 36.1523 39.0049 36.4633 38.5988C36.0648 39.0171 35.2256 39.8206 34.6196 40.3873C34.5226 40.5153 35.4841 39.7831 36.1104 39.1362C35.9617 39.599 34.3806 40.6136 34.4719 40.8489C32.8794 42.4996 33.079 41.8823 31.7759 43.3304C31.6818 43.277 31.3411 43.6798 31.2014 43.6874C31.4941 43.1688 33.0789 41.8826 33.9456 40.9631C33.851 41.0438 33.6608 41.2059 33.6116 41.2261C34.2397 40.5773 34.5251 40.3341 35.0069 39.9224L34.9585 39.9861C35.825 39.2905 35.3936 39.4581 35.8278 38.9755C36.0198 38.8114 36.6476 38.1636 36.598 38.3175L37.3726 37.4324L37.4153 37.5524C37.8971 37.0964 37.9465 36.9426 38.4297 36.5741L38.5244 36.6268L37.3657 37.7957C37.9906 37.2396 37.6047 37.7031 38.2802 37.0812C37.8708 37.3976 37.9908 37.2617 38.2136 37.0295C38.325 36.9133 38.462 36.7734 38.5714 36.6539C38.6189 36.6027 38.6644 36.5498 38.708 36.4954C38.7227 36.4766 38.7365 36.4572 38.7494 36.4371C38.7626 36.421 38.7733 36.4031 38.7809 36.3838C38.895 36.2847 39.0094 36.1854 39.1168 36.0815L39.3408 35.8531L39.4537 35.7374C39.4915 35.6987 39.5155 35.6542 39.5472 35.6124L39.4645 35.7198L39.3624 35.818L39.4505 35.7007L39.5133 35.5875C39.5529 35.5154 39.5972 35.454 39.6194 35.386L39.7001 35.2003C39.7228 35.1398 39.7374 35.0778 39.7573 35.0164C39.8027 34.894 39.8147 34.76 39.8329 34.6003C39.8304 34.5203 39.8256 34.4331 39.8167 34.3368C39.8027 34.2413 39.7724 34.1388 39.7447 34.0236L39.83 34.3124C39.8458 34.4089 39.8594 34.5037 39.8715 34.5974C39.8729 34.691 39.8687 34.7836 39.8647 34.8759C39.8566 34.9675 39.8342 35.056 39.8192 35.1464C39.7744 35.3226 39.7142 35.4988 39.6122 35.6613C39.5719 35.7473 39.5025 35.8242 39.4357 35.905L39.2266 36.1531L38.8381 36.516C38.7505 36.5935 38.6655 36.6655 38.5679 36.7461L38.7937 36.5593C38.8226 36.5367 38.9139 36.4536 38.9886 36.3865L39.2384 36.1606C39.4136 35.9664 39.623 35.7634 39.7509 35.5262C39.8715 35.2844 39.963 35.0238 39.9871 34.7712C40.0481 34.2625 39.8773 33.8457 39.8 33.6672C39.6913 33.4033 39.4661 33.2047 39.2847 33.004C39.1068 32.817 38.8822 32.5785 38.8015 32.5201C38.5776 32.3258 38.3527 32.1403 38.1094 31.9137C38.5529 32.3708 38.4161 32.3479 38.4046 32.4261C38.399 32.4653 38.4247 32.5297 38.5699 32.6919L38.9855 33.1368L39.3536 33.5208C39.4134 33.5969 39.4611 33.6838 39.5208 33.7725C39.5627 33.8695 39.6143 33.9702 39.6501 34.083C39.6546 34.0114 39.5334 33.7241 39.4461 33.635C39.6219 33.7825 39.8293 34.2173 39.7772 34.7262C39.7601 34.9797 39.6594 35.2345 39.5358 35.4615C39.4028 35.6833 39.1985 35.8641 39.0383 36.0308L38.6731 36.3428C38.7225 36.2474 38.6042 36.33 38.5876 36.3203C38.5774 36.3174 38.5657 36.3174 38.6087 36.2646C38.6544 36.2095 38.7449 36.1112 38.9053 35.9443L39.1242 35.6791C39.0592 35.7706 39.0847 35.7673 39.175 35.6909C39.1973 35.6716 39.225 35.6483 39.2537 35.6196L39.3361 35.515C39.365 35.4753 39.4014 35.4341 39.4307 35.384C39.4563 35.3319 39.484 35.2765 39.5133 35.2178C39.6158 34.9792 39.6943 34.6559 39.6357 34.319C39.5783 33.9824 39.4258 33.6531 39.1505 33.4149L39.1602 33.5403C39.1667 33.6003 39.1613 33.661 39.1589 33.6621C39.1658 33.6591 39.0801 33.573 38.9531 33.4442L38.4955 32.9803L37.9995 32.5148L38.0853 32.6085C37.6417 32.3264 37.0563 31.5864 36.3379 30.979C35.8936 30.4689 33.9943 28.6996 34.9202 29.3558C34.2419 28.8431 33.8049 28.2401 33.1609 27.5878L34.0314 28.3354C33.1432 27.3154 33.369 27.6383 32.7247 26.7577C32.6139 26.7128 32.4141 26.5709 32.5383 26.7562C31.2256 25.5009 29.327 23.7317 28.6569 22.8988C27.731 22.0146 27.4479 22.009 26.2103 20.709C25.9549 20.4303 26.5322 20.8076 25.6432 20.0144C25.577 19.9673 26.3797 20.8938 25.4363 19.965C24.8484 19.2225 23.7931 18.4747 22.989 17.5468C22.4904 17.1284 21.6943 16.3357 21.7908 16.5676C22.5453 17.2644 23.575 18.2875 23.6998 18.4742C23.641 18.3341 24.2665 18.9408 23.7557 18.3833C24.9257 19.4083 24.4356 19.1254 25.4735 20.056C25.5138 20.1504 24.8797 19.6357 24.6909 19.4038C24.5883 19.4938 26.6173 21.355 25.6102 20.6091C24.5322 19.5846 24.4186 19.0811 23.3887 18.2855C23.7008 18.7017 24.3323 19.2141 24.7015 19.769L23.9006 19.0715L23.4185 18.4696L23.4371 18.5153C22.0023 17.3027 22.2935 17.2163 21.1389 16.007C21.904 16.6147 21.147 15.6875 21.7131 16.1538C20.9207 15.3646 20.3167 14.8064 20.2133 14.8958C21.6393 16.4266 20.1953 15.0781 21.4898 16.5165C21.2263 16.3297 21.678 16.9747 20.8376 16.1842C19.9727 15.2144 21.1989 16.3755 20.2988 15.4443C20.235 15.3995 20.169 15.3528 20.1871 15.3982C19.8092 14.9351 19.6685 14.9327 19.2058 14.3774L19.3091 14.5153C18.6102 13.955 18.6768 13.7745 18.0612 13.3053C18.3541 13.4479 17.7509 12.8906 17.455 12.5172C18.0407 13.0298 18.4468 13.2208 19.5425 14.2897C19.6182 14.4736 19.5058 14.4266 19.9304 14.8904L19.2216 14.1923C19.3667 14.3506 19.4695 14.4784 19.5995 14.6262L20.3171 15.2614C19.4861 14.38 19.9473 14.7069 19.6366 14.2915C18.8137 13.5453 18.9941 13.6406 18.4736 13.1743C18.4398 13.3043 16.7913 11.8279 15.8185 10.9932L16.2481 11.4014C16.8624 12.097 15.7188 11.0259 15.671 11.0244L15.2267 10.5143C15.3126 10.6082 15.4194 10.7494 15.2 10.5608C14.5573 9.91016 14.6791 9.86633 14.0377 9.21643C13.9418 9.21375 14.4272 9.81812 13.994 9.44702C13.8128 9.3501 13.2562 9.02075 12.4242 8.13806C12.38 8.06116 12.1635 7.83289 11.9089 7.57227C11.9427 7.60986 11.9869 7.65576 11.9999 7.67493L11.3693 7.1637C11.7842 7.71716 12.4059 8.09265 12.8233 8.64893L12.7902 8.76233C13.1765 9.13586 13.6689 9.67407 13.8714 9.94482C13.2692 9.38818 13.1649 9.24927 12.5215 8.59778C12.3817 8.55457 12.8102 9.03687 12.8721 9.10645L12.8169 8.96997C13.6651 9.6687 13.9197 10.1742 14.912 11.1053C15.0627 11.2451 14.9781 11.1526 14.9594 11.1071C15.6786 11.9424 16.5555 12.5961 17.2294 13.4321L17.0179 13.1516L19.4135 15.8076L19.3924 15.8438C19.2612 15.751 19.6467 16.1212 19.8648 16.3088L19.8642 16.3075L21.1814 17.7599C20.9991 17.6259 20.8251 17.4819 20.66 17.3287C20.5338 17.1404 19.5644 16.259 19.7715 16.3082C19.2897 15.934 18.6566 15.1923 18.3078 14.9125C18.9397 15.4257 17.9763 14.4502 17.9175 14.3101C17.6725 14.1688 17.0592 13.474 17.0688 13.6116C16.9368 13.5175 17.3987 13.8448 17.6064 14.1221C18.1541 14.7703 16.4363 13.0974 17.1367 13.8871C16.2178 12.91 14.9251 11.7009 13.9904 10.6804L14.575 11.1925C14.1224 10.7744 13.0896 9.74854 12.9792 9.70374C13.3005 10.0289 13.6858 10.3993 14.0933 10.8184C14.0389 10.9104 13.0826 9.84155 12.9894 9.84094L11.891 8.54126L12.4304 9.05408C12.1386 8.68457 10.9645 7.65698 10.1245 6.86609C10.4979 7.42444 11.3735 8.07703 12.205 8.95959C12.8002 9.60925 11.7148 8.67688 12.2903 9.28003C12.1107 9.15271 11.722 8.77197 11.5547 8.56079L11.2996 8.35022C11.7417 8.95703 12.9626 10.0957 13.6813 10.9443C13.6212 10.8671 13.5706 10.7979 13.5593 10.7659C14.2105 11.325 14.8338 11.9296 15.4087 12.5323C15.0621 12.2545 14.9566 12.114 14.7861 11.9285C14.7405 11.9288 15.2968 12.4851 15.4854 12.7164C14.9002 12.204 15.3264 12.6689 14.958 12.343C15.2991 12.7152 15.6 12.9932 16.0522 13.4113C16.3171 13.599 15.911 13.181 16.0039 13.1819C16.4321 13.6488 16.751 13.7435 17.3649 14.4393C16.4578 13.601 17.4985 14.7618 17.7732 15.087L17.6211 14.9465C17.8484 15.2705 18.0853 15.5032 18.329 15.6433C17.9879 15.2711 17.6211 14.9465 17.7794 14.9933C18.017 15.2273 18.2538 15.4606 18.5093 15.7388L18.3018 15.4619L19.4829 16.6244C19.6232 16.8536 19.8702 17.2242 19.9637 17.4528C20.2938 17.6866 20.6554 18.1067 20.9101 18.3849L20.8041 18.2434C21.3716 18.7113 22.5074 19.8749 22.5632 20.0116C22.9772 20.3375 20.1798 17.1829 22.7966 19.7863C23.8059 20.7618 23.2886 20.5259 23.8177 21.1281C23.8177 21.1281 23.7991 21.0833 23.8653 21.1298C24.3173 21.547 24.3096 21.6399 24.6508 22.0122C24.365 21.7764 23.9799 21.4065 23.8762 21.2679C23.952 21.4517 24.8016 22.1519 25.0952 22.5223C24.7438 22.0127 25.9832 23.3146 25.6872 22.9415C26.6229 23.7354 27.493 24.7102 27.8895 25.2188C28.5969 25.6876 28.9208 26.2428 29.94 27.1281C29.7879 26.9875 29.5344 26.7108 29.3145 26.5214C28.8331 25.9208 30.3544 27.4543 29.5693 26.5721C29.7399 26.7582 29.5449 26.6206 29.3697 26.4302C29.0518 26.1079 28.7759 25.7819 28.8896 25.8301L29.7407 26.5319L29.4822 26.2495L30.7656 27.3224C30.784 27.3674 30.6542 27.276 30.5878 27.229C32.0141 28.5331 33.5538 30.1124 34.7819 31.2759C34.797 31.4818 35.5244 32.2253 36.3558 33.0507L36.9893 33.6779L37.3029 33.9896L37.4213 34.1094L37.4885 34.1808C37.5762 34.2733 37.6595 34.3618 37.6766 34.4661C37.6982 34.567 37.6711 34.6617 37.6234 34.7235C37.6932 34.6595 37.7552 34.5929 37.8115 34.5563C37.869 34.5195 37.9266 34.5139 37.9672 34.5786C37.9728 34.4924 37.9756 34.3483 37.8851 34.2057C37.8411 34.1345 37.7781 34.0643 37.7107 33.9869C37.6758 33.948 37.6415 33.9114 37.5995 33.8699C37.5399 33.8109 37.4779 33.7524 37.4137 33.6943C37.3023 33.6484 36.6523 33.0903 37.0112 33.5072C35.6599 32.1588 37.2841 33.6027 36.9524 33.14L37.3292 33.5176L37.6649 33.8629C37.8074 34.0269 37.9625 34.1569 38.0303 34.3252C38.0613 34.4047 38.0745 34.4896 38.0689 34.5745C38.0633 34.6592 38.0391 34.7418 37.9979 34.8169C37.9222 34.9634 37.7805 35.0514 37.6674 35.1393L37.5197 35.2504L37.2877 35.4451L36.8276 35.8403L36.8267 35.8865L36.0568 36.5442C36.6365 35.9589 36.4949 35.8789 35.77 36.6547L35.8685 36.5702C35.4799 37.0366 34.5175 37.8585 33.844 38.5231L33.3173 38.9061C32.6428 39.5718 32.7343 39.7169 32.5852 40.0009C31.5248 41.041 30.8085 41.5411 29.9904 42.2172C29.6998 42.5996 28.1115 44.1573 29.0237 43.4001C28.0132 44.286 27.9249 43.8251 26.428 45.5731L26.9081 45.2079C25.3166 46.724 22.9607 48.8032 22.2858 49.5582C23.0518 49.1718 20.4973 51.6447 20.3956 52.0891C20.433 51.974 19.8253 52.5343 19.7169 52.5967C19.6077 52.7426 19.4115 52.9717 19.1444 53.1578C19.7249 52.5277 18.5249 53.3965 19.7757 52.3284C19.0563 52.7856 18.1918 53.4349 16.8912 54.7024L16.9858 54.7557L17.9969 53.7354C17.9476 53.8894 18.4758 53.3717 18.7194 53.1858C16.8381 55.0831 19.1462 53.1117 17.1702 55.0006C16.9318 55.1371 17.0749 55.0375 16.5447 55.5126C16.7875 55.283 16.8824 55.2909 16.4962 55.6658L16.0645 55.9673C15.5026 56.7506 17.2822 54.9484 16.7841 55.5988C17.6021 54.9224 18.9483 53.6831 18.7988 54.0118C17.5936 55.2424 17.5047 54.9161 16.2517 56.2096L16.1546 56.3823C15.671 56.7958 15.5316 56.8033 15.2419 57.006C15.2426 57.0502 15.1442 57.1788 14.8579 57.4679C13.992 58.1183 13.462 58.5936 12.6467 59.178C14.6159 57.429 14.1896 57.5471 16.211 55.7311C15.8741 55.9963 14.4778 57.3007 14.2902 57.2822L14.3835 57.337C13.7103 57.912 13.0376 58.4871 12.2654 59.2799L12.794 58.8511C11.6859 59.8202 11.1521 60.6555 10.1945 61.3398C10.4821 61.0494 10.7233 60.8208 10.9163 60.6565C10.3394 61.1492 9.66498 61.8149 9.08685 62.3973L7.74115 63.4581C7.78894 63.4838 7.01672 64.2338 7.44958 63.9302C6.6264 64.835 6.1001 65.1277 5.57312 65.6007C4.7514 66.5477 6.38904 64.8812 6.58069 64.8958C5.37366 66.1279 4.02655 67.3685 3.25861 67.9797C3.49683 67.7207 3.60675 67.5894 3.57587 67.5844C3.56183 67.6434 3.0553 68.1206 2.77722 68.3905L2.53699 68.5287L2.52698 68.5399L2.52435 68.5426L2.55023 68.5674L2.55066 68.5674L2.55206 68.5684L2.55627 68.5723C2.56012 68.5764 2.56366 68.5808 2.56671 68.5854C2.56708 68.5864 2.56488 68.5815 2.56647 68.5844C2.57068 68.5924 2.56488 68.5795 2.56787 68.5868C2.57092 68.597 2.57593 68.6067 2.58276 68.6151C2.58496 68.6171 2.5946 68.6299 2.59821 68.6289C2.60126 68.6289 2.60425 68.6294 2.60706 68.6306L2.61407 68.6333C2.61987 68.6304 2.61267 68.6444 2.63129 68.6277C2.62225 68.637 2.61987 68.6385 2.62006 68.6372L2.61707 68.6376L2.61243 68.6395C2.60883 68.6396 2.61084 68.6488 2.60541 68.6458C2.59521 68.6387 2.59558 68.6519 2.58557 68.6411C2.57434 68.6454 2.56165 68.6168 2.5575 68.6168C2.55725 68.6111 2.55725 68.6078 2.55627 68.6073C2.55865 68.6073 2.54822 68.6078 2.56049 68.6091C2.58173 68.6124 2.60126 68.6223 2.61627 68.6372L2.62708 68.6494C2.6283 68.6517 2.63934 68.6646 2.62567 68.6527L2.52618 68.574L2.47601 68.5359L2.47559 68.5356L2.54865 68.5994L2.54883 68.5992L2.54901 68.5989L2.54926 68.5984L2.54944 68.5974L2.54944 68.5966C2.54865 68.5957 2.54541 68.597 2.53918 68.5994C2.539 68.5974 2.52393 68.6035 2.51233 68.6029C2.50427 68.6099 2.51294 68.6096 2.5047 68.619C2.50171 68.6261 2.5105 68.6267 2.50629 68.6379L2.50586 68.6399L2.50568 68.6409L2.50549 68.6412C2.47498 68.6144 2.5741 68.7012 2.43665 68.5812L2.43726 68.5818L2.43988 68.5839L2.45996 68.601L2.49963 68.635L2.58032 68.7031L2.58936 68.7106L2.58679 68.7059L2.58057 68.6973C2.57617 68.6918 2.57092 68.687 2.56506 68.6831C2.55438 68.676 2.54205 68.6716 2.52917 68.6702C2.54163 68.676 2.55548 68.679 2.5694 68.6786C2.58331 68.6782 2.59692 68.6746 2.60901 68.668C2.61462 68.666 2.62286 68.6665 2.62469 68.6573C2.62585 68.656 2.62732 68.655 2.62897 68.6543C2.63055 68.6536 2.63232 68.6531 2.63409 68.6531C2.63269 68.6571 2.64496 68.6451 2.65698 68.6333L2.69049 68.6007L2.94415 68.3567C3.10352 68.2056 3.24133 68.079 3.34949 67.9926C3.12927 68.1924 2.91333 68.3965 2.70197 68.605L2.64819 68.6584C2.64056 68.6641 2.64056 68.6616 2.63733 68.6643C2.63232 68.6669 2.6319 68.6758 2.62811 68.6801C2.6225 68.6808 2.61865 68.6838 2.61566 68.6897C2.61426 68.699 2.60681 68.6959 2.60278 68.6996C2.59778 68.7012 2.59497 68.7119 2.58899 68.7125C2.57751 68.7102 2.56671 68.7312 2.55383 68.7271C2.54639 68.7292 2.53937 68.7327 2.5332 68.7372C2.52679 68.7352 2.51996 68.7352 2.51349 68.7369C2.48181 68.7405 2.52435 68.7478 2.52435 68.7745L2.52557 68.7844C2.52594 68.7883 2.51147 68.7759 2.50507 68.7725L2.45514 68.7388L2.40472 68.7046L2.37927 68.6875L2.36664 68.6788L2.36023 68.6746L2.35858 68.6735C2.47742 68.7771 2.39148 68.7019 2.41797 68.7253L2.41779 68.7251L2.41718 68.7244C2.41132 68.7175 2.40411 68.7118 2.39594 68.7078C2.38507 68.704 2.37567 68.6989 2.37286 68.6897C2.33514 68.6669 2.32648 68.6188 2.31824 68.5673C2.31146 68.5439 2.32751 68.504 2.32587 68.4933C2.3255 68.4973 2.32269 68.5007 2.31805 68.5027C2.31525 68.5039 2.31226 68.5045 2.3092 68.5046L2.30383 68.5046C2.30139 68.5049 2.31183 68.4941 2.31543 68.4895L2.37805 68.4153L2.41016 68.3776L2.42639 68.3582L2.43042 68.3535L2.38147 68.406L2.38269 68.4049L2.38489 68.4026L2.3941 68.3938C2.61737 68.1802 2.84363 67.9695 3.07275 67.7618C3.07416 67.7155 2.6889 68.0001 3.0752 67.626C3.98962 66.7777 3.40948 67.4966 3.74359 67.2784C3.38342 67.5972 3.13037 67.8408 2.92511 68.0609C2.82257 68.171 2.73181 68.275 2.64539 68.3796L2.51831 68.5372L2.51813 68.5376L2.58093 68.4703L2.58057 68.4709L2.57971 68.4725L2.57794 68.4752L2.57452 68.4805L2.56769 68.4913L2.55426 68.5126L2.52734 68.556C2.51147 68.5831 2.48645 68.6187 2.47778 68.6399C2.46814 68.6487 2.52716 68.6022 2.57715 68.5637C2.58966 68.554 2.60229 68.5442 2.61505 68.5345L2.63269 68.521L2.6369 68.5177L2.63794 68.5168L2.63855 68.5165L2.63873 68.5162L2.63892 68.5161L2.57068 68.589L2.57294 68.5876L2.58112 68.5825L2.61609 68.5607C2.62347 68.5139 3.05573 68.0945 3.1637 67.952L3.35571 67.922C3.21527 67.8856 3.84076 67.1509 4.41907 66.6569C3.93286 67.2509 4.07831 67.104 4.02997 67.3466C4.89246 66.6995 4.80035 66.4207 5.76093 65.6895C5.66803 65.7241 4.89667 66.4275 5.52277 65.7806C6.05511 65.2592 6.0531 65.3951 6.435 65.069C5.95557 65.3885 6.00458 65.2349 5.4776 65.574C4.5152 66.485 5.09412 65.9462 4.13031 66.8142L4.85596 65.9924C4.03662 66.7603 4.1839 66.4774 4.08917 66.514C5.39252 65.1099 5.24078 65.6195 6.10852 64.7441C6.5871 64.3802 5.28815 65.5566 6.01056 64.9623C6.82928 64.1509 6.24817 64.8263 7.21161 63.9583L7.02155 64.0758C7.26215 63.7583 7.5979 63.5389 7.93481 63.2284C8.31946 62.9004 7.78229 63.8732 9.27686 62.4399C9.18317 62.4906 9.14325 62.5038 9.13458 62.4954L7.05865 63.2968C8.7251 61.6898 10.3712 60.0634 11.9965 58.4176C12.2863 57.9028 10.6489 59.5251 10.7008 59.3688L9.92865 60.1626C10.025 60.1692 11.6144 58.5656 10.9861 59.3486C9.54156 60.6718 8.96222 61.3458 7.52039 62.5325C7.81317 62.0139 9.30072 60.8552 10.075 59.9254C9.71814 60.2853 9.39685 60.5697 9.08044 60.8416L11.6456 58.2657L11.8838 58.0928C11.2719 58.7101 10.8497 59.1378 10.7983 59.1958C11.6169 58.3848 12.3839 57.7748 12.5283 57.8077L12.384 57.953L12.7117 57.6907C12.9014 57.4979 13.0902 57.3046 13.278 57.1123ZM5.86652 4.98682C5.90845 5.04382 5.93811 5.0918 5.95502 5.1322C5.93756 5.09009 5.97986 5.11487 5.86652 4.98682ZM6.16968 66.8136L4.53625 68.439L3.72937 69.243L3.5293 69.4417C3.50159 69.472 3.45044 69.5139 3.40289 69.5521C3.3537 69.5885 3.31036 69.6333 3.25476 69.6608C3.0437 69.792 2.79529 69.8505 2.54944 69.8564C2.77075 69.8359 2.9845 69.7812 3.15643 69.6683C3.24756 69.6207 3.32098 69.5537 3.39062 69.4866C3.46973 69.4176 3.50043 69.3665 3.5542 69.308L4.08014 68.6864C4.38898 68.3163 4.60406 68.0444 4.6651 67.9325C4.72607 67.8206 4.63257 67.8685 4.32397 68.1381C4.16962 68.2727 3.96155 68.4628 3.69226 68.7158L3.24115 69.1437C3.19922 69.187 3.15765 69.2163 3.11554 69.2495L3.0517 69.2997L2.97668 69.3368L2.90039 69.376L2.81555 69.3998C2.78662 69.4073 2.7583 69.418 2.72845 69.4238L2.63611 69.432C2.63513 69.4442 2.37726 69.4089 2.38049 69.4001C2.50647 69.4139 2.66058 69.4211 2.81555 69.3638C2.89618 69.3462 2.96802 69.2965 3.04388 69.2545L3.14783 69.1702C3.18414 69.1407 3.22449 69.0968 3.26343 69.0602C3.59735 68.7344 3.93542 68.4125 4.27759 68.0947C4.78662 67.7073 5.29877 67.3236 5.8139 66.9437L6.56946 66.3917C6.76672 66.2504 6.89209 66.1643 6.89233 66.1738C6.74701 66.4094 6.40973 66.6311 6.07117 66.9869L6.16968 66.8136ZM6.66052 65.769C7.26758 65.1448 7.16425 65.3206 7.29645 65.2605L6.62445 65.8835C6.69885 65.7947 6.72754 65.7427 6.66052 65.769ZM7.29407 65.3306C7.22443 65.3994 7.16602 65.4591 7.13934 65.4941L7.29407 65.3306ZM7.76099 62.172L7.69458 62.2321L8.1377 61.7883C8.08331 61.8519 7.97314 61.9667 7.76099 62.172ZM6.57507 63.4838L6.36176 63.5653L6.77734 63.1495C6.75909 63.2238 6.7348 63.2961 6.57507 63.4838ZM2.69751 67.6368C2.61383 67.6804 2.49689 67.7649 2.36621 67.8668L2.16235 68.0295L2.10999 68.0723L2.08368 68.0935L2.07062 68.1044L2.07025 68.1047C2.07904 68.0951 2.04956 68.1265 2.09009 68.0835L2.08948 68.0842L2.08789 68.0858L2.0849 68.0889L2.07886 68.0947L1.98376 68.1896C1.94421 68.2249 1.93823 68.2437 1.92438 68.2637C1.91132 68.2845 1.89343 68.3007 1.87921 68.3241C1.85931 68.3779 1.82281 68.4254 1.81177 68.4729C1.79871 68.5195 1.78027 68.5603 1.76721 68.592C1.75879 68.6238 1.74695 68.6462 1.73193 68.6553C1.71948 68.6884 1.70282 68.6537 1.68915 68.5773L1.69257 68.4363C1.6994 68.3828 1.71967 68.3252 1.73334 68.2642C1.74713 68.2338 1.76422 68.2057 1.7793 68.1757C1.79572 68.146 1.80432 68.1154 1.83508 68.084L1.9137 67.9893L1.93359 67.9655C1.93866 67.9604 1.94366 67.9556 1.94861 67.9506L1.99359 67.9061C2.11377 67.788 2.23737 67.6659 2.36481 67.5402C2.38672 67.5441 2.45013 67.5062 2.547 67.4352C2.30402 67.6913 2.15631 67.8767 2.31427 67.8302C2.84821 67.0835 2.98511 67.3469 3.66095 66.6349C3.94873 66.4786 2.93695 67.4545 2.69751 67.6368ZM23.1823 19.2651C23.1544 19.2533 23.0654 19.2061 22.9437 19.1365L23.3973 19.6595C24.3046 20.4982 25.1442 21.061 25.8333 21.9393C26.235 22.2737 26.4939 22.4105 26.7333 22.5487C26.5467 22.3752 26.3707 22.2142 26.2206 22.0839C24.1412 19.7644 24.8819 21.1202 23.1823 19.2651ZM33.548 28.9702C33.4622 28.8765 33.4437 28.8307 33.4437 28.8307C35.2637 30.9044 36.8499 32.5276 37.9256 33.5541C37.6533 33.4166 36.6436 32.5388 36.1611 32.1249L36.4908 32.5862L36.8011 32.7734L37.4348 33.5151C37.189 33.3739 36.6333 32.8174 36.2167 32.489C36.1979 32.4436 35.0727 31.1904 34.7797 30.8195L35.799 31.7047C35.5168 31.4722 34.2498 30.2158 33.7595 29.7061C33.7868 29.6605 34.7213 30.4526 34.7512 30.6371C34.9106 30.6849 33.8996 29.7074 34.5983 30.2682C33.899 29.4794 32.6438 28.3622 32.0568 27.8481L31.8696 27.8461C31.2197 27.2878 31.5662 27.3379 30.7832 26.6851C31.6619 27.5684 30.5302 26.6366 31.2367 27.3323C30.9738 27.146 31.1342 27.4221 30.4262 26.7252C29.9536 26.0323 29.596 26.0719 29.1415 25.4243C28.7275 25.0984 29.4722 25.8861 28.7165 25.1877C27.9325 24.3068 28.0276 24.3094 28.0643 24.1727C28.8824 24.9144 28.8395 25.1449 29.5099 25.7504L28.3724 24.3573C28.6318 24.566 28.81 24.7338 28.9515 24.8822C28.701 24.6234 28.5034 24.3889 28.3461 24.1768L28.0934 23.8455C28.8254 24.5507 29.4771 25.1758 29.6298 25.25L29.5721 25.1108C29.8707 25.3224 30.2617 25.7599 30.4246 25.9783C31.0746 26.6151 31.6683 27.3047 31.8674 27.3888L31.6583 27.1106C32.4515 27.8999 32.536 27.9918 33.548 28.9702ZM18.4155 55.0458C18.7449 54.4219 19.1426 53.7673 21.4467 51.5962L21.2566 51.7585C22.3043 50.5548 23.6249 49.7258 24.91 48.2716C24.173 48.8679 24.2149 48.8379 23.3306 49.4281L24.1021 48.7697C23.8143 48.8809 24.5839 48.2242 25.1131 47.7054L24.54 48.0608C24.2494 48.3983 23.4305 49.2095 23.4315 49.1635C23.6245 48.9989 22.4656 50.3461 21.7421 50.9871C21.7443 50.8508 23.2368 49.4639 22.4692 49.9857C23.0933 49.475 23.0956 49.3391 23.7225 48.7808C23.097 49.2928 23.4847 48.8274 23.0038 49.1938L24.0156 48.2627C24.0182 48.2153 22.525 49.6024 23.2493 48.7382C23.6815 48.3911 24.6929 47.3264 24.7868 47.3802L24.788 47.3346C25.5124 46.6039 25.2197 47.1222 26.0865 46.203C26.1349 46.229 25.9874 46.4216 25.6539 46.7288C25.3619 46.9785 25.2682 46.9695 24.6907 47.507C24.4948 47.8093 25.3673 46.8395 25.0728 47.3154C24.9265 47.5518 23.5328 48.72 24.0588 48.4268L24.782 47.6975C24.8759 47.7516 25.4069 47.2305 25.4524 47.3033C25.932 46.8936 26.2742 46.4003 26.8011 46.0175C27.0411 45.8792 26.7967 46.2891 27.5211 45.5137C28.0071 44.8304 29.7873 43.1532 30.4619 42.5326L31.0862 42.0221C31.0832 42.1139 29.9785 43.0793 30.4083 42.7798L31.3254 41.9291L31.2273 41.9681C31.5189 41.6743 31.8544 41.4102 32.1427 41.1637C31.8086 41.3818 31.1826 42.0284 31.2331 41.8289C31.6396 41.4065 31.6752 41.3164 32.0783 40.9561C31.988 41.0326 31.9075 41.0955 31.9072 41.0746C32.7277 40.217 32.8194 40.3622 33.059 40.1801C34.0194 39.4489 32.2874 41.1067 32.4777 41.0785L35.0284 38.6986C34.7888 38.8809 34.548 39.0649 34.5967 38.9559C35.1758 38.3271 34.5502 38.884 35.4174 38.0538C35.4628 38.2162 36.5713 37.068 37.2432 36.5386C37.4843 36.2211 37.5343 36.156 36.9096 36.7566C36.9086 36.6239 37.7825 35.8317 38.0593 35.5522C38.0956 35.5238 38.1312 35.4944 38.166 35.4642C38.2477 35.3937 38.3557 35.3131 38.4478 35.2168C38.4939 35.1688 38.5431 35.1223 38.5728 35.0667C38.6067 35.0138 38.6436 34.9647 38.6599 34.9141C38.629 35.0745 38.6157 35.1224 38.6884 35.053C38.704 35.0345 38.7297 35.0105 38.749 34.9741C38.767 34.9373 38.7877 34.8914 38.8112 34.8361C38.8354 34.7811 38.8397 34.7122 38.8557 34.6354C38.8625 34.5481 38.859 34.4603 38.8453 34.3738L38.8525 34.3273C38.9127 34.5288 38.9219 34.7706 38.8375 35C38.7584 35.2343 38.5685 35.4163 38.3892 35.6091L37.8425 36.1672L37.3395 36.6685C37.0176 36.9823 36.7298 37.2462 36.5187 37.4039L36.7101 37.2855C35.7448 38.3331 34.3547 39.3196 34.0128 39.9023C34.1083 39.9103 33.8187 40.1128 33.9114 40.1676L33.0981 40.8401L33.2891 40.7213L31.9882 41.9449L32.0362 41.9255L30.3975 43.1829C30.3634 43.1528 30.3931 43.1047 30.1655 43.2777C29.9861 43.4237 29.8154 43.5793 29.6542 43.7439C29.653 43.7448 29.653 43.7448 29.6526 43.7445L29.653 43.7449C29.3476 44.0583 29.1844 44.3062 28.8156 44.6993L30.0176 43.5542C30.1703 43.5139 30.1264 43.6674 29.58 44.2698C29.8214 44.0408 29.9647 43.9857 29.6749 44.278C29.6279 44.2953 28.8572 44.9993 29.0986 44.6805C27.9442 45.7562 26.2533 47.6698 24.4258 49.2308C25.7263 48.0972 23.5085 50.26 24.9048 48.9557C24.0347 49.967 23.9926 49.668 23.0289 50.6249C22.9775 50.7361 23.5569 50.1072 23.8442 49.9508C22.2548 51.554 20.9594 52.4597 19.4143 54.0035L19.4163 54.1354C19.1094 54.4142 18.7693 54.7239 18.4155 55.0458ZM15.2197 57.9651L14.2745 58.8315L14.3629 58.7422L13.3982 59.566C13.9296 59.0006 14.2217 58.572 13.4047 59.2926C13.499 59.2566 13.3055 59.5112 13.5939 59.2648C13.1116 59.8108 12.0024 60.9591 12.1976 60.5688C13.3031 59.6924 12.2991 60.214 13.1635 59.5211C12.671 59.865 12.2811 60.3008 11.8499 60.6584C12.324 60.3104 11.8815 60.877 11.282 61.5084C10.9924 61.7556 10.2698 62.4841 9.789 62.8953C9.88672 62.6775 9.45526 63.0233 10.1779 62.2944C9.7674 62.6444 9.38068 63.0197 9.0202 63.4177C9.21747 63.2483 9.55121 62.9414 9.55176 62.9856C9.30719 63.3351 8.94958 63.6755 8.77863 63.8889L8.30103 64.3302C8.34113 64.2805 8.37347 64.2354 8.3927 64.1991L7.81702 64.6461C8.53882 64.0072 8.10718 64.309 8.06104 64.2814C8.1543 64.3357 7.62537 64.7207 7.38635 64.9468L7.82159 64.374C7.53326 64.5757 7.0011 65.2765 7.05267 65.0756C8.11218 63.9919 8.54523 63.6 9.55542 62.6699L9.21649 63.116C10.3731 62.0831 9.79761 62.3514 11.0498 61.1484C11.6249 60.701 12.9321 59.3384 13.0701 59.4221C12.8793 59.54 13.748 58.5746 14.227 58.2103C14.8027 57.8527 16.2471 56.4847 15.8608 56.9482C15.4753 57.3228 14.8988 57.7705 14.6548 58.1351L15.426 57.4319L14.9899 57.9608C15.2243 57.6962 15.2542 57.7727 15.2197 57.9651ZM3.84375 64.5374L3.87122 64.5081L3.83954 64.5396L3.84375 64.5374Z" fill="#202020" fill-opacity="1.000000" fill-rule="nonzero"/>
</svg>
