<svg width="40.000000" height="71.000000" viewBox="0 0 40 71" fill="none" xmlns="http://www.w3.org/2000/svg" xmlns:xlink="http://www.w3.org/1999/xlink">
	<desc>
			Created with Pixso.
	</desc>
	<defs/>
	<path id="Vector" d="M26.723 57.1123L26.4924 56.9146L26.622 57.0083L26.0768 56.4464C25.995 56.3762 25.9143 56.3047 25.835 56.2317C25.8736 56.2649 25.9083 56.2858 25.9323 56.2964L25.759 56.1151C25.2473 55.7426 24.0846 54.7085 23.7254 54.4331C23.2723 54.0476 22.7353 53.5583 22.4128 53.2378C22.7148 53.532 23.13 53.9084 23.0441 53.7583C22.4646 53.1288 22.2695 52.7391 21.1171 51.7996L21.7418 52.4L20.2054 51.1771C19.7704 50.6489 20.9722 51.7874 21.2154 51.9285C20.059 50.9402 19.3301 49.8934 18.7081 49.5183C18.7062 49.3829 18.7022 49.1559 17.9802 48.472C18.4169 49.0464 17.5006 48.1071 17.8392 48.5973C17.5524 48.3971 17.0662 47.8029 16.9735 47.8131L17.069 47.85C15.9575 46.5649 15.3858 46.3448 14.8069 45.8951C13.3163 44.5106 12.6898 43.8187 11.4856 42.6785C11.4852 42.5884 11.2881 42.1516 10.8047 41.6945C10.5196 41.5402 9.41125 40.5265 9.22043 40.4976C10.0422 41.356 9.98776 41.1082 10.5186 41.5844C10.8605 42.0775 10.4738 41.7021 11.0056 42.3131C10.5685 41.8278 8.83853 40.3055 8.40311 39.7324L8.59573 39.8971C7.82236 39.0576 7.8645 38.7141 6.37552 37.5089L5.67319 36.9259C5.71271 36.9486 5.72577 36.943 5.74963 36.9523C5.21948 36.4323 5.05011 36.2207 4.85687 36.0052C4.806 35.9482 4.75397 35.8923 4.70074 35.8374C4.62869 35.7635 4.55511 35.6912 4.48001 35.6202C4.30704 35.4559 4.07626 35.248 3.71405 34.9333C3.82584 35.0304 3.77707 34.9663 3.88864 35.0636C3.74481 34.9067 3.59558 34.7546 3.44113 34.6074C3.72589 34.3301 3.98154 34.0533 4.23178 33.7788L4.59961 33.3752L4.90784 33.043C5.28528 32.8079 4.90021 33.1777 4.75674 33.41C5.96597 32.2925 7.12784 30.9485 7.78082 30.16L8.58289 29.4615C8.15826 29.9253 7.67606 30.5272 7.85468 30.4331C8.26062 30.0151 8.14783 30.0627 8.75385 29.5024C8.69547 29.6416 8.48657 29.9205 8.26163 30.2421C9.56036 29.1268 8.38382 29.8303 9.37393 29.1283C9.76022 28.757 9.92157 28.4802 9.91193 28.3895L10.6781 27.7805C10.6897 27.6421 11.548 26.8058 12.103 26.2507C12.1436 26.1567 11.5777 26.6219 11.389 26.8533C11.3794 26.7626 11.9561 26.1587 12.3438 25.7863C12.6238 25.7832 14.8548 23.3231 14.5608 23.9218C16.2523 22.2017 18.6778 19.8328 19.766 18.6703C20.1822 18.3423 20.9543 17.6006 20.5578 18.109C21.9563 16.7599 22.535 15.9265 23.9604 14.6235C24.0924 14.5294 23.3343 15.2303 23.4298 15.2273C24.2812 14.2982 25.1383 13.6908 26.5085 12.2965C26.2743 12.5275 26.2338 12.6217 26.2153 12.6674C26.1677 12.6692 26.744 12.0648 27.086 11.6919C27.3025 11.5059 26.8301 11.9708 26.9624 11.8771C29.7477 9.31763 31.6303 7.13647 34.34 4.53223C33.5662 5.27588 33.3659 5.64612 33.3954 5.69055L34.1534 4.96179C34.399 4.63611 34.9671 4.08801 35.4076 3.59644C35.483 3.55676 35.7326 3.35156 35.5187 3.6001C36.3122 2.92371 36.8536 2.31995 37.4317 1.67017L37.8766 1.17224L37.9334 1.10864L37.9673 1.05774C37.9906 1.02454 38.0175 0.993774 38.0291 0.953857C38.0658 0.882324 38.0847 0.802002 38.0917 0.721191C38.0977 0.639771 38.0895 0.555542 38.0632 0.475464C38.0474 0.43811 38.0379 0.388306 38.0182 0.368896C38.0104 0.355469 38.0038 0.341431 37.9984 0.326904L37.9942 0.315063L37.9771 0.295532L37.943 0.256104L37.8742 0.176514L37.8655 0.166382L37.8643 0.165283C37.9121 0.216431 37.877 0.179077 37.8874 0.190308L37.8856 0.189087L37.882 0.186523L37.868 0.176514L37.8401 0.155762L37.7861 0.111206C37.7643 0.10144 37.7429 0.0910645 37.7219 0.079834C37.6767 0.0495605 37.644 0.0491943 37.6109 0.0321045C37.6031 0.0218506 37.5595 0.0178223 37.5192 0.0137939L37.3996 0L37.5349 0.00158691C37.5533 0.00256348 37.587 0.000366211 37.5991 0.00427246C37.6286 0.012207 37.6589 0.0169678 37.6896 0.0185547L37.756 0.0441895C37.8069 0.0563965 37.8521 0.0871582 37.9027 0.119141L37.9223 0.130737L37.9326 0.136597L37.9374 0.139526L37.9388 0.140259L37.9394 0.140625C37.9312 0.131714 37.959 0.161255 37.9209 0.120483L37.9237 0.123413L37.9697 0.169189C38.0009 0.200439 38.032 0.231689 38.0632 0.262939C38.1186 0.338623 38.1973 0.478027 38.2151 0.625977C38.2272 0.775635 38.1987 0.925659 38.1322 1.0614C38.0899 1.12488 38.0582 1.18091 38.0024 1.24487L37.8485 1.42041L37.531 1.78271L38.1439 1.31519L37.2533 2.33765C37.8834 1.81677 38.2825 1.24744 38.4053 1.17432C38.3921 1.2218 38.3538 1.27417 38.3098 1.33044L38.2422 1.41687L38.1764 1.48804C38.0913 1.58081 38.0227 1.66223 38.0369 1.68494C38.1842 1.55249 38.2896 1.46826 38.3889 1.33923C38.4398 1.28406 38.469 1.224 38.4955 1.16809C38.5223 1.11255 38.5488 1.06238 38.5576 1.00769L38.5916 0.851562L38.5956 0.687256C38.601 0.630127 38.5855 0.570068 38.5763 0.503784C38.5705 0.43689 38.547 0.36731 38.5187 0.289795C38.6166 0.484741 38.6534 0.748291 38.5735 1.0155C38.5342 1.14746 38.4712 1.28406 38.3728 1.401C38.3504 1.42993 38.3243 1.46533 38.3028 1.48914L38.2384 1.55957L38.1064 1.70215C37.7262 2.10876 37.3402 2.51025 36.9487 2.90674L34.7498 5.12048C34.577 5.30859 34.873 4.93567 34.891 4.89038C34.4191 5.3551 34.089 5.58887 33.5134 6.19177C33.2006 6.60938 33.8417 5.95972 34.1437 5.6803C34.155 5.76978 34.0031 5.9104 33.6814 6.23596C33.5407 6.23804 31.8489 7.95789 31.34 8.28601C29.602 10.0062 31.8007 8.18762 30.0527 9.81714L29.4603 10.236C28.5244 11.2581 27.2889 12.556 26.1432 13.6294L26.3784 13.3973C26.5031 13.2117 26.2203 13.4442 26.0871 13.5393C25.2003 14.33 24.5301 15.1627 23.9341 15.5852C23.0457 16.6056 21.4863 18.2316 20.4178 19.3474C20.0132 19.5361 21.7799 17.861 22.1772 17.3512L21.1655 18.3291C21.7897 17.7236 21.9972 17.4465 22.3129 17.0269C21.4062 17.8649 21.206 18.2347 20.3913 19.0725C20.4284 18.9818 20.2986 19.0735 19.9099 19.4473L19.8691 19.6206C19.8563 19.6219 19.8081 19.6584 19.6839 19.7698L18.2297 21.2557C18.5768 20.9777 18.6527 21.0212 19.0402 20.6487C18.8616 20.7429 19.1816 20.4186 19.5695 20.0461C19.2759 20.4171 19.9849 19.7189 20.0142 19.7628C19.2366 20.51 18.2931 21.439 17.8036 21.9484L17.5745 22.0463C16.8192 22.7444 16.0741 23.5323 15.5541 23.9985L15.6783 23.8131C14.7719 24.6505 13.9398 25.5334 13.0901 26.2334C12.3721 27.0677 11.437 28.088 10.8669 28.786C10.6036 29.1996 8.44223 30.9271 7.66663 31.9004C7.5976 31.9497 8.21707 31.2489 8.49017 30.925C7.88416 31.4855 7.51514 32.0399 7.24243 32.1357C8.60275 30.8785 7.10156 32.1379 7.67667 31.5349C7.05499 32.1383 6.41345 32.7881 6.13873 33.1133C7.1467 32.1384 5.90033 33.575 6.88382 32.5524C6.54187 32.9496 6.12491 33.4001 5.677 33.8584L5.24255 34.2998C5.13516 34.405 5.02466 34.5073 4.91125 34.6066L4.96924 34.6694C4.8942 34.6694 4.91647 34.7244 5.07861 34.9109C5.08243 34.9148 5.29935 35.0192 5.29553 35.0155C5.39566 35.1217 5.27646 35.0376 5.1709 34.9692C5.06735 34.9026 4.97766 34.8516 5.21106 35.0953C5.29593 35.155 5.33606 35.1787 5.50684 35.3333C5.65881 35.4698 5.80859 35.6088 5.95615 35.7499L6.89948 36.6678C7.51996 37.2736 8.08624 37.8075 8.37219 37.9176C9.00089 38.6558 6.97775 36.7041 7.94455 37.7982C7.27173 37.2686 6.50034 36.3864 6.2132 36.2748C6.83627 36.8291 6.35907 36.5557 6.74435 36.9294L7.46497 37.5229L7.3205 37.3772C8.52188 38.3806 10.2581 40.1322 11.7025 41.5002C13.0008 42.5868 13.96 43.272 15.4042 44.6846C14.9244 44.3192 16.5627 45.8973 15.5547 45.1035C16.1826 45.796 16.8996 46.3861 16.9504 46.3627C16.3715 45.7787 16.7543 46.1501 16.2744 45.651C16.6562 45.932 17.4298 46.683 17.7188 47.0193C17.5743 46.8734 17.6218 46.936 17.5751 46.9183C18.2511 47.63 17.959 47.2019 18.4885 47.6765C18.5869 47.8943 19.599 48.7815 20.0325 49.2634L20.7992 49.8287C20.3682 49.5277 21.4255 50.4755 21.4771 50.6315C22.0041 51.0591 22.4845 51.3804 23.2068 52.1089C22.8707 51.8444 23.8358 52.8027 23.788 52.8734C24.9946 54.1503 26.0469 54.736 27.1578 55.9762C27.1067 55.9539 26.8251 55.7588 27.16 56.1115C27.4526 56.3613 27.9282 56.8344 28.23 57.1129L28.2188 57.1056L28.236 57.1188C28.3835 57.255 28.4821 57.3356 28.5001 57.3247C29.0644 57.7552 29.3851 57.948 30.429 58.859C30.4251 58.7217 29.5594 57.9375 29.174 57.6084L28.7917 57.3712C28.596 56.9806 27.8772 56.5233 27.684 56.2689C28.4026 56.7262 30.0892 58.4128 31.1943 59.3345C30.6629 58.6353 29.312 57.3016 28.1084 56.1622L28.5918 56.709L27.9669 56.1082L28.4969 56.7621C27.9192 56.1791 27.3896 55.7043 26.8598 55.1847C27.4863 55.7869 27.6344 56.1143 27.2957 55.7582C26.667 55.02 26.5255 55.1002 25.9972 54.5822C26.2873 54.8745 26.6716 55.2478 26.3835 55.0461C25.4166 53.9523 25.0789 53.7306 24.213 52.723C24.216 52.9487 23.0086 51.5823 22.771 51.5355L23.2045 51.9727L22.1949 51.1326C21.4217 50.2045 23.0584 51.7814 21.8054 50.443C20.5994 49.256 20.5097 49.4037 19.5435 48.488C19.9273 48.7263 20.7451 49.4028 21.5156 50.1504L21.0808 49.667C21.3679 49.8677 22.4281 50.9073 22.9572 51.426C21.9976 50.651 23.3455 51.8475 23.6848 52.2939C23.8247 52.301 23.2486 51.7651 23.9696 52.3586C23.3425 51.7556 23.2456 51.6727 22.4744 50.8799C24.1651 52.5706 24.2513 52.1521 25.6978 53.656C24.9756 53.0164 25.8437 53.9813 25.8948 54.0927C26.2285 54.3997 26.9052 55.0225 27.1936 55.2688L27.0431 54.939C27.9593 55.7439 28.0609 56.2329 29.1693 57.1129C29.3578 57.1842 28.3004 56.2366 28.4933 56.4011C29.9351 57.6774 30.2787 58.3066 31.4337 59.5608C31.5318 59.6 31.5782 59.5277 32.0576 59.8933C31.8655 59.8185 32.1537 60.1534 31.6288 59.7278C32.0148 60.1473 32.543 60.5759 32.9271 60.9036C32.1068 60.0465 33.3589 61.1613 33.5506 61.28C33.9832 61.7166 33.3585 61.205 33.0698 60.9584C33.4095 61.3162 33.747 61.8051 34.0346 61.9169C33.9882 61.9888 32.8831 61.1119 32.2089 60.4915L32.6429 60.9293C32.3064 60.6641 32.2578 60.6003 31.8268 60.1659C32.2113 60.6276 32.117 60.6364 31.9735 60.5809C31.9257 60.5179 32.0193 60.5974 31.9739 60.537C31.6346 60.1794 31.3458 59.9329 31.396 60.0432C30.9958 59.8135 31.8372 60.5671 32.0371 60.8384L32.5946 61.3455L34.6982 62.8734C35.5159 63.6042 35.8075 64.0065 36.3597 64.6155L36.5917 64.705C37.2696 65.3734 37.894 66.0188 37.3667 65.6802C37.3653 65.6338 37.2693 65.5519 37.1239 65.405C37.0946 65.3951 37.0536 65.3685 37.0049 65.3319C36.9864 65.322 36.9746 65.3184 36.9587 65.311L38.2328 66.4641C36.8857 65.3589 38.0439 66.526 37.7118 66.4441C38.0077 66.712 38.3035 66.98 38.5994 67.2479L38.7092 67.3474L38.8522 67.5033L38.8916 67.547C38.8956 67.5503 38.9078 67.5671 38.9195 67.5837L38.9516 67.6306C38.9925 67.6917 39.026 67.7474 39.0521 67.7936C39.1049 67.8867 39.1288 67.9408 39.1259 67.938C39.0671 67.7979 38.9943 67.6637 38.9086 67.5372C38.9021 67.5281 38.8954 67.519 38.8888 67.5099L38.854 67.4619C38.8373 67.4376 38.8206 67.4133 38.8041 67.389L38.7997 67.3821L38.7991 67.3812L38.7413 67.3195L38.7401 67.3177L38.7377 67.3146L38.729 67.3036L38.7166 67.2858C38.7039 67.2662 38.7072 67.2621 38.722 67.2699C38.7294 67.2737 38.7397 67.2805 38.7525 67.2897L38.7625 67.297L38.7633 67.2976L38.8233 67.3616L38.8246 67.3627L38.8271 67.365L38.8322 67.3696L38.8542 67.3907C38.8864 67.4226 38.9229 67.4583 38.9678 67.5071C39.0517 67.6188 39.1378 67.7559 39.205 67.8939C39.2502 68.011 39.2927 68.1323 39.3206 68.2458C39.3405 68.3611 39.3531 68.4692 39.3611 68.5576C39.3445 68.6133 39.3321 68.67 39.324 68.7275C39.3078 68.8137 39.2977 68.9279 39.2516 69.057C39.2313 69.1219 39.208 69.1917 39.1815 69.2645C39.148 69.3347 39.1095 69.4081 39.0674 69.4835C39.028 69.561 38.9756 69.6331 38.9153 69.7042L38.8243 69.8123L38.7766 69.8662L38.7706 69.8728L38.7 69.9343L38.6925 69.9406L38.6775 69.953L38.5557 70.0547C38.4718 70.1144 38.3459 70.1886 38.2344 70.2438L38.1473 70.2853L38.0736 70.3104L37.9243 70.3568C37.825 70.3895 37.7235 70.4047 37.6217 70.4143C37.4199 70.4437 37.2212 70.4207 37.0406 70.3938C36.862 70.35 36.6971 70.3042 36.5676 70.2295L36.6549 70.25C36.5349 70.1854 36.3987 70.1221 36.2811 70.0188C36.2209 69.9708 36.1559 69.9164 36.0995 69.8652L36.0043 69.7693L35.5837 69.3578C35.2976 69.0835 35.0068 68.8137 34.7116 68.5485C34.7116 68.5933 33.9445 68.072 33.562 67.8348C34.4104 68.704 33.8636 68.2301 33.8907 68.3394C33.804 68.2483 33.6423 68.0905 33.6144 68.0807C33.4693 67.979 33.7578 68.2703 33.7596 68.3162C34.2404 68.7491 34.7223 69.1942 35.1435 69.5651C35.3321 69.7329 35.525 69.8962 35.7218 70.0551L35.8743 70.1744C35.964 70.2434 36.0529 70.3051 36.1378 70.3585C36.3114 70.4602 36.4837 70.5219 36.6236 70.5635C36.4282 70.4612 36.2431 70.3704 36.0932 70.2478C36.0188 70.192 35.9323 70.1239 35.8743 70.0756L35.7718 69.9929C35.6337 69.8834 35.4894 69.7712 35.3445 69.603C35.4846 69.7057 35.6202 69.8137 35.7513 69.9268C35.7862 69.9573 35.8217 69.9878 35.8577 70.0194L35.9223 70.076L36.0453 70.1752C36.2082 70.312 36.4065 70.4146 36.617 70.506C37.0754 70.6802 37.5812 70.701 38.0534 70.5652C38.1158 70.5472 38.1782 70.5278 38.2404 70.5065C38.3163 70.474 38.3929 70.4371 38.4678 70.3967C38.5428 70.3562 38.6166 70.312 38.6877 70.2653C38.7098 70.2507 38.7162 70.2455 38.7208 70.2418L38.7395 70.2273L38.777 70.1982L38.8526 70.1392L38.8621 70.1316L38.8669 70.1279L38.9558 70.05L38.9602 70.0454L38.9953 70.0076L39.0648 69.9303C39.1565 69.825 39.2459 69.7166 39.3118 69.5884L39.3792 69.4902C39.4205 69.431 39.4703 69.3499 39.507 69.2617C39.5468 69.1747 39.5829 69.0846 39.6082 69.0164C39.6317 68.948 39.6403 68.9005 39.6403 68.9005L39.6501 68.7996C39.6535 68.7352 39.666 68.6431 39.6585 68.5333C39.6494 68.4082 39.6331 68.2837 39.6098 68.1604C39.571 68.0244 39.5331 67.8928 39.4667 67.7437C39.4039 67.6182 39.3316 67.4973 39.2504 67.3821L39.2106 67.3274C39.195 67.3062 39.1972 67.3113 39.1896 67.302L39.0726 67.1749L38.9855 67.0822L38.9787 67.0762L38.9654 67.0641L38.9409 67.0424L38.9012 67.0067C38.8791 66.9869 38.8663 66.976 38.8663 66.976C38.9108 67.0114 38.9474 67.0383 38.9793 67.0604L38.9911 67.0684L38.9967 67.0723L38.9971 67.0726L39.079 67.1598L39.0798 67.1604L39.081 67.1616L39.0838 67.1637L39.1039 67.1794L39.1408 67.2069L39.2086 67.2532L39.2433 67.2772C39.259 67.2908 39.2949 67.3356 39.3218 67.369C39.38 67.4432 39.445 67.5348 39.514 67.6556L39.5652 67.751L39.601 67.8374C39.625 67.8984 39.6499 67.9668 39.674 68.0433C39.756 68.3442 39.8439 68.8143 39.5995 69.4288C39.6405 69.3582 39.7374 69.1671 39.7755 68.8854C39.7928 68.7438 39.8114 68.5818 39.7881 68.405C39.7798 68.3134 39.767 68.222 39.7498 68.1315C39.7256 68.0388 39.6967 67.9436 39.6631 67.8477C39.6236 67.687 39.4099 67.3373 39.3003 67.209L39.2054 67.1034L39.091 66.9802L39.0645 66.9558L39.0116 66.907C38.8748 66.7815 38.7417 66.6523 38.6124 66.5197L38.2797 66.3477C38.4212 66.4009 37.3611 65.3612 38.179 66.0374C38.4934 66.3116 38.8078 66.5858 39.1223 66.8599L39.1494 66.8835L39.1627 66.8951L39.1693 66.901L39.1709 66.9023L39.2708 67.0089L39.2738 67.012L39.3627 67.1067L39.4021 67.1488C39.4031 67.1476 39.4312 67.1858 39.4442 67.2034L39.4912 67.269C39.551 67.3551 39.5989 67.4342 39.6363 67.4996C39.7111 67.6326 39.7432 67.709 39.7398 67.7035C39.744 67.7095 39.7125 67.6217 39.6489 67.4904C39.6126 67.4159 39.5732 67.3428 39.5307 67.2715L39.4215 67.0978L39.3358 66.9572L39.2307 66.8446L39.2293 66.8428L39.2269 66.8396L39.2221 66.8331L39.2133 66.8215C39.2078 66.8143 39.2028 66.808 39.199 66.8025C39.1912 66.7921 39.1863 66.7863 39.1863 66.7863L39.2321 66.8289L39.2375 66.8341L39.3481 66.9518L39.3593 66.9645L39.3846 66.9935C39.4029 67.0143 39.4232 67.038 39.4456 67.0634L39.4627 67.0831L39.4713 67.0931C39.4774 67.0999 39.4831 67.1069 39.4882 67.1145C39.6074 67.2751 39.7103 67.4465 39.7956 67.6262C39.8425 67.7366 39.8727 67.8341 39.9064 67.9449L39.9509 68.109C39.9605 68.1647 39.9684 68.2211 39.9754 68.2773C40.0496 68.731 39.9437 69.1895 39.8203 69.5099C39.7492 69.6672 39.6774 69.7947 39.626 69.8818C39.576 69.9705 39.5375 70.0134 39.5375 70.0134C39.5375 70.0134 39.545 70.002 39.5584 69.9824C39.572 69.963 39.5893 69.9338 39.6078 69.8972C39.6457 69.8247 39.6938 69.7264 39.7364 69.6268C39.7768 69.537 39.8082 69.4436 39.8303 69.348L39.8612 69.2183C39.8371 69.3054 39.8104 69.3898 39.782 69.4706C39.7516 69.5503 39.7115 69.625 39.6744 69.6978C39.6363 69.7705 39.5967 69.8398 39.5566 69.9059C39.5149 69.9706 39.4667 70.0283 39.4211 70.0857C39.375 70.1425 39.3284 70.1963 39.2821 70.2474L39.2473 70.2853L39.2299 70.3037L39.2257 70.3083L39.2235 70.3107L39.1081 70.4114L39.1041 70.4147L39.0734 70.4395C39.0327 70.4717 38.9943 70.5018 38.9586 70.5305C38.7553 70.6764 38.4465 70.8357 38.2894 70.877C38.1174 70.9275 37.9671 70.9702 37.8336 70.9819C37.5657 71.0103 37.3777 71.0032 37.2308 70.9752C37.0841 70.9496 36.9782 70.9299 36.8766 70.8888C36.7633 70.8469 36.651 70.8027 36.5397 70.7561C36.4123 70.6896 36.2415 70.6116 36.0349 70.4637C35.9802 70.4224 35.9264 70.3799 35.8735 70.3364L35.7862 70.2628L35.7413 70.2233L35.7202 70.2031L35.543 70.0363C35.3683 69.8766 35.1913 69.7194 35.0118 69.5647C34.3898 69.1447 33.8116 68.6058 32.7994 67.5845C33.5692 68.2872 32.9423 67.595 33.2783 67.8147C32.5536 67.0396 32.2187 66.8651 31.7859 66.5177C31.6406 66.2821 31.5427 66.1096 32.2177 66.7753C32.4066 66.7578 31.3022 65.9258 31.3466 65.7628C29.0831 63.5835 29.1912 64.3463 26.6821 61.6665L26.8241 61.7206C25.0927 60.1523 24.1761 59.1681 22.5886 57.7006L21.4747 56.4138C21.765 56.6616 22.5824 57.2931 22.2916 56.9106C22.776 57.592 23.4463 58.1644 24.028 58.8406C24.1221 58.8762 23.8819 58.604 23.7858 58.4772C24.1717 58.8517 24.3164 59.0869 24.8465 59.562C24.8447 59.5162 24.3145 58.9514 24.7482 59.344L25.3753 60.0811C26.3377 60.9479 25.9962 60.3661 27.0575 61.451C26.7936 61.3135 26.291 60.9977 25.8535 60.6034C26.3395 61.098 25.1513 59.9962 25.5706 60.4711C26.3796 61.0786 26.6555 61.4827 27.6682 62.3514C27.5433 62.2551 27.4962 62.2435 27.2552 62.0217L28.6047 63.3981C28.3141 63.0159 29.8087 64.449 29.7577 64.2489C28.3115 62.7899 28.6988 63.2551 27.0579 61.5853C27.5526 62.0288 28.2473 62.5458 28.6087 62.7534C28.6203 62.7705 28.6422 62.7965 28.6926 62.8478C29.0273 63.0216 28.7857 62.7483 28.9259 62.6226C28.0605 61.9727 27.6256 61.3998 26.663 60.5773C26.4184 60.484 27.0948 61.1768 27.565 61.5935L26.7166 60.8693L26.908 60.9882L24.9041 59.0057C25.2926 59.373 25.466 59.4575 25.699 59.6199C25.4401 59.3645 25.2003 59.0952 24.9463 58.8085C24.9336 58.9326 24.8471 58.9454 24.5931 58.6979C23.3048 57.4211 22.6426 56.6593 22.2416 56.1165L22.0847 55.9746C22.231 56.2557 21.0276 55.2054 20.5492 54.8864C20.6441 54.8336 19.9215 54.1936 19.5834 53.7933C19.2972 53.6831 19.4457 54.0555 19.8336 54.5654C20.7948 55.3418 20.4073 54.9663 20.9359 55.2615L22.4258 56.5566L22.0408 56.3174C22.7172 57.0288 23.4864 57.5969 23.3453 57.6328C22.9125 57.3297 22.3322 56.6997 21.9021 56.3995L22.337 56.8823C21.4247 56.1707 21.9986 56.3927 20.9391 55.4877C21.2307 55.9155 20.8432 55.4055 20.3648 55.0417C20.6554 55.4242 22.1443 56.7183 21.7155 56.553C21.14 56.106 20.1196 54.7205 19.3047 54.181L19.3528 54.1995C18.3561 53.2047 17.9262 52.9319 17.5006 52.6102C17.1111 52.1538 16.4569 51.6355 15.985 51.1887L16.0339 51.1636L15.3589 50.542C15.7411 50.7793 16.1299 51.2899 16.7062 51.8273L16.7054 51.6921C17.2757 52.4023 17.8369 52.7015 18.4033 53.1327C17.606 52.4792 16.3392 51.1067 16.0299 51.0709L15.6442 50.5629L15.4008 50.3767C15.1139 49.9977 15.5435 50.2527 16.218 50.8735C16.3147 51.001 16.3633 51.0646 16.3141 51.0452C16.651 51.3104 16.9857 51.5292 17.7095 52.2592L17.2779 51.9136C18.1942 52.8077 19.0584 53.5905 19.4423 53.829C18.1414 52.5168 16.8398 51.2484 15.5879 50.0458C15.0621 49.8419 14.537 49.5054 14.203 49.4653C13.3382 48.6824 12.1805 47.6035 11.5064 46.8492L11.6022 46.8859C11.2969 46.5658 10.9749 46.2611 10.6373 45.9729C10.3006 45.5735 10.9715 46.1462 10.7309 45.8737L9.48169 44.7623C9.62195 44.7699 10.6319 45.7444 11.1163 46.203C11.0202 46.1211 10.8266 45.9554 10.8763 46.0208C11.4071 46.5856 12.559 47.4801 12.707 47.8081C12.9954 48.0543 12.0842 47.3433 12.9994 48.2365C13.5796 48.8662 13.8659 48.9768 13.959 49.0114C14.0066 48.9847 13.0434 48.0282 13.4276 48.3119C12.9434 47.8534 12.7042 47.7157 12.1271 47.0887C12.6069 47.5432 13.3285 48.0931 13.5234 48.3937C14.5329 49.2335 14.5741 48.9335 14.1408 48.4961C14.191 48.6514 12.3585 46.9066 13.519 48.1658C12.8945 47.6998 11.8827 46.724 11.1143 46.0674L11.1613 46.0857L10.2446 45.2346C10.3909 45.3378 10.6795 45.5842 10.7256 45.5566L9.37994 44.4515C10.1483 45.063 8.99225 43.9869 8.70309 43.6499C8.51227 43.5765 7.9841 43.1476 8.41794 43.6298C8.90094 44.1766 8.75446 43.8947 9.23587 44.3512L8.46991 43.7864L8.42075 43.7218L7.93994 43.4008C7.02509 42.5074 8.51407 43.6228 7.2627 42.5543L7.31528 42.7999C5.96515 41.4678 4.3259 39.6656 3.31473 38.7794C3.63821 38.9808 3.84769 39.0049 3.53665 38.5988C3.93518 39.0171 4.77438 39.8206 5.3804 40.3873C5.47733 40.5153 4.51593 39.7831 3.88965 39.1362C4.03833 39.599 5.6192 40.6136 5.52811 40.8489C7.12082 42.4996 6.92096 41.8823 8.22409 43.3304C8.31821 43.277 8.65894 43.6798 8.79861 43.6871C8.50583 43.1688 6.92114 41.8826 6.05426 40.963C6.14877 41.0438 6.33902 41.2059 6.38837 41.2261C5.76028 40.5773 5.47491 40.3341 4.99313 39.9224L5.04147 39.9861C4.17499 39.2905 4.60641 39.4581 4.17218 38.9755C3.98013 38.8114 3.35245 38.1636 3.40201 38.3175L2.62723 37.4324L2.58447 37.5524C2.10269 37.0964 2.05353 36.9424 1.5701 36.5741L1.47537 36.6268L2.63406 37.7957C2.00916 37.2396 2.39526 37.7031 1.71979 37.0812C2.12918 37.3976 2.00916 37.2617 1.78644 37.0295C1.67505 36.9133 1.53799 36.7734 1.42862 36.6539C1.37405 36.5939 1.32608 36.5392 1.29196 36.4954C1.27722 36.4766 1.26343 36.457 1.25064 36.4369C1.23734 36.4209 1.22668 36.403 1.21915 36.3838C1.10495 36.2847 0.99057 36.1854 0.883209 36.0815L0.659271 35.8531L0.546295 35.7374C0.508575 35.6987 0.484497 35.6542 0.452789 35.6123L0.535645 35.7198L0.637787 35.818L0.5495 35.7007L0.486694 35.5875C0.447174 35.5154 0.403015 35.454 0.380524 35.386L0.299866 35.2002C0.276978 35.1395 0.262543 35.0778 0.242676 35.0164C0.197327 34.894 0.185272 34.76 0.167023 34.6003C0.169647 34.5203 0.174438 34.4333 0.183289 34.3368C0.197327 34.2413 0.227631 34.1388 0.25531 34.0233L0.170044 34.3124C0.154175 34.4089 0.140533 34.5037 0.12851 34.5974C0.127106 34.691 0.131317 34.7836 0.135315 34.8759C0.143341 34.9675 0.165833 35.056 0.180878 35.1464C0.225616 35.3226 0.285828 35.4988 0.387756 35.6613C0.428101 35.7473 0.497528 35.8242 0.564362 35.905L0.773438 36.1531L1.16196 36.516C1.24942 36.5935 1.3345 36.6655 1.43204 36.7461L1.2063 36.5593C1.1774 36.5367 1.08609 36.4536 1.01144 36.3865L0.761597 36.1606C0.586426 35.9664 0.376923 35.7634 0.249084 35.5262C0.12851 35.2844 0.0369873 35.0237 0.0129089 34.7712C-0.0480957 34.2625 0.122681 33.8455 0.199921 33.6672C0.308502 33.4033 0.533661 33.2047 0.715057 33.004C0.893036 32.817 1.11758 32.5785 1.19827 32.5201C1.42221 32.3258 1.64716 32.1403 1.89038 31.9137C1.4469 32.3708 1.58374 32.3481 1.59518 32.4261C1.6008 32.4653 1.57513 32.5297 1.42984 32.6919L1.01425 33.1368L0.64621 33.5208C0.586426 33.5967 0.538666 33.6838 0.479065 33.7725C0.437134 33.8693 0.385559 33.9702 0.34964 34.083C0.345428 34.0114 0.466431 33.724 0.553711 33.635C0.37793 33.7825 0.170441 34.2173 0.222595 34.7262C0.239655 34.9797 0.340393 35.2345 0.46402 35.4615C0.597046 35.6833 0.801331 35.8641 0.961487 36.0308L1.32669 36.3428C1.27731 36.2474 1.39551 36.33 1.41217 36.3203C1.42242 36.3174 1.43427 36.3174 1.39111 36.2646C1.34537 36.2095 1.25485 36.1112 1.09451 35.9443L0.87558 35.679C0.940613 35.7706 0.915131 35.7673 0.824829 35.6908C0.802551 35.6714 0.774658 35.6483 0.746155 35.6196L0.663666 35.515C0.634796 35.4753 0.598267 35.4338 0.569153 35.384C0.543488 35.3319 0.515594 35.2764 0.486481 35.2178C0.383942 34.9792 0.305481 34.6559 0.364288 34.319C0.421661 33.9824 0.574188 33.6531 0.849487 33.4149L0.839874 33.5403C0.833252 33.6003 0.83847 33.661 0.840881 33.662C0.834045 33.6588 0.919739 33.573 1.04675 33.444L1.50427 32.9801L2.00055 32.5145L1.91446 32.6083C2.35812 32.3262 2.9437 31.5864 3.66187 30.9789C4.10617 30.4688 6.00549 28.6993 5.07962 29.3556C5.75787 28.8429 6.19492 28.24 6.83887 27.5876L5.96838 28.3353C6.85654 27.3152 6.63077 27.6382 7.27515 26.7573C7.38589 26.7126 7.58575 26.5706 7.46176 26.7559C8.77414 25.5005 10.6729 23.7313 11.3429 22.8983C12.2688 22.0143 12.5519 22.0087 13.7895 20.7086C14.0449 20.4298 13.4674 20.8073 14.3565 20.0139C14.423 19.9669 13.6203 20.8934 14.5634 19.9646C15.1514 19.2223 16.2069 18.4744 17.011 17.5465C17.5095 17.1282 18.3057 16.3356 18.209 16.5673C17.4547 17.2642 16.425 18.287 16.3002 18.474C16.3588 18.334 15.7333 18.9406 16.244 18.3832C15.0741 19.4081 15.5642 19.1252 14.5263 20.0558C14.486 20.1501 15.1201 19.6356 15.3091 19.4034C15.4115 19.4934 13.3829 21.3547 14.3899 20.609C15.4679 19.5845 15.5814 19.0808 16.6113 18.2853C16.2992 18.7015 15.6677 19.214 15.2985 19.7689L16.0995 19.0715L16.5818 18.4696L16.5633 18.5153C17.9981 17.3027 17.7069 17.2163 18.8616 16.007C18.0964 16.6147 18.8531 15.6875 18.287 16.1538C19.0795 15.3645 19.6835 14.8064 19.7869 14.8956C18.3609 16.4266 19.8049 15.0781 18.5104 16.5164C18.7739 16.3296 18.3222 16.9746 19.1626 16.1841C20.0275 15.2141 18.8016 16.3752 19.7016 15.4441C19.7654 15.3993 19.8314 15.3527 19.8131 15.3978C20.191 14.9347 20.3317 14.9326 20.7944 14.3773L20.6911 14.515C21.3902 13.9547 21.3236 13.7743 21.939 13.3051C21.6463 13.4476 22.2491 12.8904 22.5453 12.5171C21.9597 13.0295 21.5533 13.2208 20.4577 14.2897C20.3822 14.4736 20.4944 14.4266 20.0698 14.8904L20.7788 14.1925C20.6337 14.3506 20.5309 14.4786 20.4007 14.6265L19.6833 15.2616C20.5141 14.3802 20.0529 14.7069 20.3638 14.2916C21.1867 13.5455 21.0063 13.6409 21.5267 13.1743C21.5604 13.3043 23.2089 11.8279 24.1817 10.9934L23.7521 11.4016C23.138 12.0972 24.2814 11.0261 24.3292 11.0245L24.7733 10.5144C24.6876 10.6084 24.5807 10.7496 24.8 10.5609C25.4427 9.91028 25.3209 9.86646 25.9622 9.21667C26.058 9.21375 25.5728 9.81824 26.0058 9.44727C26.1872 9.35034 26.7437 9.02075 27.5758 8.13806C27.6202 8.06128 27.8365 7.83301 28.0912 7.57227C28.0573 7.60986 28.0131 7.65601 28.0002 7.67493L28.6307 7.16382C28.2158 7.71741 27.5941 8.09265 27.1767 8.64917L27.2098 8.76245C26.8235 9.13611 26.3311 9.67432 26.1288 9.94495C26.7308 9.38831 26.8352 9.24939 27.4787 8.59802C27.6184 8.55481 27.1895 9.03711 27.1277 9.10657L27.1831 8.97021C26.3349 9.66882 26.0803 10.1744 25.088 11.1056C24.9372 11.2452 25.0217 11.1528 25.0404 11.1073C24.3212 11.9424 23.4442 12.5963 22.7704 13.4324L22.9817 13.1519L20.5861 15.8077L20.6072 15.844C20.7384 15.7512 20.3529 16.1215 20.1348 16.309L20.1354 16.3076L18.8182 17.76C19.0004 17.6261 19.1744 17.4822 19.3396 17.329C19.4658 17.1406 20.435 16.2593 20.2279 16.3085C20.7097 15.9341 21.3428 15.1924 21.6916 14.9126C21.0597 15.4259 22.0231 14.4502 22.0819 14.3103C22.3269 14.1689 22.9404 13.4742 22.9305 13.6118C23.0626 13.5176 22.6008 13.8452 22.3932 14.1226C21.8455 14.7706 23.5633 13.0978 22.8627 13.8875C23.7818 12.9104 25.0743 11.7014 26.009 10.6809L25.4243 11.193C25.8768 10.7748 26.9096 9.7489 27.02 9.7041C26.6987 10.0293 26.3134 10.3998 25.9059 10.8188C25.9602 10.9109 26.9168 9.84192 27.0097 9.84131L28.1082 8.54163L27.5688 9.05444C27.8606 8.68506 29.0347 7.65735 29.8747 6.86646C29.5013 7.4248 28.6257 8.07739 27.7942 8.95996C27.199 9.60974 28.2844 8.67749 27.7089 9.2804C27.8885 9.15308 28.2772 8.77234 28.4445 8.56116L28.6996 8.35059C28.2575 8.9574 27.0366 10.0961 26.3178 10.9447C26.3781 10.8674 26.4286 10.7982 26.4398 10.7665C25.7887 11.3254 25.1654 11.9302 24.5905 12.533C24.937 12.2549 25.0426 12.1146 25.2132 11.9291C25.2587 11.9294 24.7026 12.4857 24.5138 12.717C25.099 12.2046 24.6728 12.6696 25.041 12.3436C24.6998 12.7158 24.399 12.9937 23.9465 13.4119C23.6819 13.5996 24.088 13.1816 23.9951 13.1824C23.5669 13.6494 23.248 13.7441 22.6339 14.4398C23.541 13.6014 22.5003 14.7625 22.2256 15.0876L22.3775 14.9471C22.1501 15.2709 21.9134 15.5038 21.6695 15.6438C22.0107 15.2716 22.3775 14.9471 22.2192 14.9938C21.9816 15.2279 21.7448 15.4609 21.4895 15.7394L21.697 15.4625L20.5159 16.625C20.3756 16.8542 20.1286 17.2247 20.0349 17.4534C19.705 17.6871 19.3432 18.1071 19.0887 18.3855L19.1947 18.244C18.6272 18.7119 17.4914 19.8755 17.4356 20.0122C17.0214 20.3381 19.819 17.1835 17.2022 19.7869C16.1929 20.7622 16.71 20.5265 16.181 21.1287C16.181 21.1287 16.1995 21.0837 16.1333 21.1301C15.6814 21.5474 15.6892 21.6405 15.3478 22.0126C15.6336 21.7767 16.0187 21.4069 16.1224 21.2683C16.0468 21.452 15.197 22.1522 14.9034 22.5227C15.2545 22.0131 14.0154 23.3152 14.3112 22.942C13.3753 23.7357 12.5054 24.7106 12.1089 25.2191C11.4017 25.688 11.0776 26.2433 10.0584 27.1284C10.2105 26.9879 10.464 26.7113 10.6839 26.522C11.1655 25.9213 9.64404 27.4547 10.429 26.5728C10.2585 26.7587 10.4535 26.6211 10.6287 26.4307C10.9466 26.1085 11.2225 25.7823 11.1087 25.8307L10.2577 26.5325L10.5161 26.2501L9.23285 27.3231C9.21439 27.368 9.34442 27.2769 9.41064 27.2295C7.98428 28.5337 6.44455 30.113 5.21646 31.2766C5.20142 31.4827 4.474 32.2261 3.64261 33.0513L3.00909 33.6785L2.69547 33.9902L2.57706 34.1099L2.50983 34.1814C2.42215 34.2738 2.33887 34.3624 2.32181 34.4667C2.30014 34.5676 2.32724 34.6624 2.375 34.7241C2.30515 34.6602 2.24313 34.5935 2.18695 34.5569C2.12936 34.5201 2.07178 34.5145 2.03125 34.5792C2.02563 34.4929 2.02283 34.3489 2.11331 34.2064C2.15726 34.1353 2.22028 34.0652 2.28751 33.9877C2.32242 33.9487 2.35672 33.9121 2.39865 33.8706C2.45825 33.8118 2.52026 33.7532 2.58447 33.6951C2.69586 33.6492 3.34583 33.0912 2.98703 33.5079C4.33835 32.1595 2.71411 33.6034 3.04584 33.1407L2.66898 33.5184L2.33325 33.8636C2.19077 34.0276 2.03564 34.1576 1.96783 34.3259C1.93683 34.4055 1.92371 34.4905 1.92929 34.5752C1.93491 34.66 1.95911 34.7427 2.00034 34.8177C2.07599 34.9642 2.21765 35.0521 2.33084 35.1401L2.47855 35.2511L2.71051 35.4458L3.17065 35.8411L3.17145 35.8872L3.94122 36.545C3.36148 35.9597 3.50314 35.8795 4.22797 36.6555L4.12943 36.571C4.51813 37.0374 5.48053 37.8593 6.15399 38.5238L6.68076 38.9069C7.35519 39.5726 7.2637 39.7178 7.41278 40.0016C8.47311 41.0416 9.18951 41.5419 10.0076 42.2179C10.298 42.6003 11.8865 44.1582 10.9743 43.401C11.9848 44.2869 12.0731 43.8259 13.5699 45.574L13.0899 45.2087C14.6814 46.7249 17.0373 48.804 17.7121 49.5591C16.946 49.1725 19.5007 51.6454 19.6024 52.0898C19.5651 51.9746 20.1727 52.5352 20.2811 52.5975C20.3901 52.7434 20.5865 52.9724 20.8534 53.1586C20.2729 52.5286 21.4729 53.3973 20.2219 52.3291C20.9413 52.7864 21.8058 53.4357 23.1063 54.7032L23.0118 54.7565L22.0006 53.7362C22.05 53.8903 21.522 53.3726 21.2782 53.1865C23.1595 55.084 20.8514 53.1125 22.8272 55.0013C23.0656 55.1378 22.9225 55.0382 23.4527 55.5133C23.2099 55.2837 23.1151 55.2916 23.5014 55.6665L23.9331 55.968C24.495 56.7513 22.7154 54.9491 23.2137 55.5994C22.3958 54.9231 21.0495 53.6838 21.199 54.0127C22.404 55.2432 22.4931 54.9169 23.7461 56.2104L23.8434 56.3831C24.327 56.7965 24.4665 56.8041 24.7558 57.0067C24.7552 57.0509 24.8538 57.1796 25.1401 57.4686C26.0062 58.1191 26.5359 58.5944 27.3511 59.1787C25.3821 57.4297 25.8083 57.5479 23.787 55.7318C24.1239 55.9971 25.52 57.3014 25.7078 57.2831L25.6145 57.3379C26.2878 57.9127 26.9604 58.4878 27.7325 59.2806L27.204 58.8518C28.3119 59.821 28.8459 60.6562 29.8035 61.3406C29.5159 61.0502 29.2747 60.8215 29.0817 60.6572C29.6586 61.1498 30.333 61.8157 30.9112 62.3981L32.2568 63.459C32.2091 63.4845 32.9813 64.2345 32.5484 63.9309C33.3716 64.8357 33.8979 65.1285 34.4249 65.6014C35.2466 66.5486 33.6089 64.8821 33.4173 64.8966C34.6241 66.1287 35.9714 67.3693 36.7394 67.9806C36.5012 67.7216 36.3912 67.5901 36.4221 67.5851C36.4362 67.6442 36.9427 68.1215 37.2206 68.3914L37.461 68.5293L37.471 68.5405L37.4734 68.5435L37.4478 68.5682L37.4474 68.5682L37.446 68.5692L37.4417 68.573C37.4379 68.5771 37.4344 68.5815 37.4313 68.5862C37.4309 68.5872 37.4331 68.5824 37.4315 68.5851C37.4273 68.5933 37.4331 68.5802 37.4301 68.5876C37.4271 68.5979 37.4221 68.6074 37.4153 68.6158C37.413 68.6178 37.4034 68.6306 37.3998 68.6296C37.3968 68.6296 37.3937 68.6302 37.391 68.6313L37.3839 68.634C37.3781 68.6312 37.3853 68.6451 37.3667 68.6284C37.3757 68.6378 37.3781 68.6393 37.3779 68.6379L37.3809 68.6383L37.3856 68.6403C37.3892 68.6405 37.3871 68.6495 37.3926 68.6465C37.4028 68.6395 37.4024 68.6527 37.4124 68.6418C37.4237 68.6461 37.4363 68.6177 37.4405 68.6177C37.4407 68.6118 37.4407 68.6085 37.4417 68.6082C37.4393 68.6082 37.4498 68.6085 37.4375 68.6099C37.4163 68.6132 37.3967 68.623 37.3817 68.6379L37.3709 68.6501C37.3697 68.6523 37.3586 68.6653 37.3721 68.6534L37.4716 68.5748L37.522 68.5366L37.5224 68.5364L37.4493 68.6002L37.4492 68.6L37.449 68.5996L37.4488 68.5992L37.4485 68.5983L37.4485 68.5973C37.4493 68.5966 37.4526 68.5979 37.4588 68.6002C37.459 68.5983 37.474 68.6042 37.4857 68.6036C37.4937 68.6106 37.4851 68.6105 37.4933 68.6198C37.4963 68.627 37.4875 68.6274 37.4917 68.6388L37.4921 68.6406L37.4923 68.6416L37.4925 68.6421C37.523 68.6151 37.4239 68.7019 37.5613 68.582L37.5605 68.5825L37.5581 68.5847L37.5381 68.6017L37.4983 68.6359L37.4177 68.7039L37.4086 68.7114L37.4112 68.7068L37.4174 68.698C37.4237 68.6904 37.4315 68.6841 37.4403 68.6794C37.4491 68.6748 37.4588 68.6719 37.4688 68.6709C37.4563 68.6769 37.4425 68.6797 37.4286 68.6793C37.4147 68.679 37.4011 68.6754 37.3889 68.6688C37.3831 68.6669 37.3751 68.6672 37.3733 68.6581C37.3721 68.6569 37.3707 68.6558 37.369 68.655C37.3674 68.6543 37.3657 68.6539 37.3639 68.6538C37.3653 68.658 37.353 68.6459 37.341 68.634L37.3075 68.6016L37.0538 68.3574C36.8945 68.2063 36.7567 68.0797 36.6485 67.9932C36.8687 68.1931 37.0846 68.3973 37.2961 68.6058L37.3498 68.6593C37.3575 68.6649 37.3575 68.6624 37.3607 68.665C37.3657 68.6676 37.3661 68.6765 37.3699 68.6808C37.3755 68.6815 37.3793 68.6847 37.3823 68.6904C37.3837 68.6998 37.3912 68.6967 37.3952 68.7003C37.4002 68.7019 37.403 68.7128 37.409 68.7134C37.4205 68.7111 37.4313 68.7319 37.4442 68.7279C37.4516 68.73 37.4586 68.7334 37.4648 68.7379C37.4712 68.7361 37.4781 68.736 37.4845 68.7378C37.5162 68.7412 37.4736 68.7485 37.4736 68.7754L37.4724 68.7852C37.4718 68.7893 37.4865 68.7767 37.4929 68.7732L37.5429 68.7395L37.5932 68.7056L37.6187 68.6884L37.6314 68.6797L37.6378 68.6754L37.6394 68.6742L37.58 68.7261L37.5802 68.726L37.5808 68.7251C37.5866 68.7183 37.5939 68.7126 37.6021 68.7085C37.6129 68.7048 37.6223 68.6996 37.6252 68.6904C37.6629 68.6676 37.6715 68.6195 37.6797 68.568C37.6866 68.5448 37.6705 68.5049 37.6721 68.494C37.6725 68.498 37.6753 68.5016 37.6799 68.5035C37.6827 68.5046 37.6857 68.5054 37.6888 68.5054L37.6942 68.5054C37.6966 68.5056 37.6862 68.495 37.6825 68.4904L37.6199 68.4161L37.5878 68.3783L37.5718 68.359L37.5676 68.3542L37.6165 68.4069L37.6153 68.4056L37.6131 68.4033L37.6039 68.3947C37.3807 68.1809 37.1544 67.9702 36.9252 67.7626C36.9238 67.7163 37.3091 68.0009 36.9228 67.6267C36.0084 66.7786 36.5885 67.4973 36.2544 67.2792C36.6146 67.5979 36.8676 67.8417 37.0729 68.0618C37.1754 68.1718 37.2661 68.2759 37.3526 68.3805L37.4797 68.538L37.4799 68.5383C37.5363 68.5989 37.403 68.4564 37.4171 68.4712L37.4174 68.4719L37.4182 68.4733L37.42 68.476L37.4235 68.4812L37.4303 68.4921L37.4437 68.5134L37.4706 68.5568C37.4865 68.5839 37.5116 68.6194 37.5202 68.6406C37.5298 68.6494 37.4708 68.6029 37.4211 68.5646L37.3829 68.5353L37.3653 68.5217L37.3611 68.5184L37.3601 68.5177L37.3595 68.5172L37.3593 68.5171L37.3591 68.5168L37.4273 68.5897L37.4251 68.5884L37.4168 68.5834L37.3819 68.5616C37.3745 68.5149 36.9423 68.0952 36.8343 67.9529L36.6423 67.9229C36.7827 67.8864 36.1573 67.1517 35.5789 66.6576C36.0652 67.2517 35.9196 67.1047 35.968 67.3474C35.1055 66.7002 35.1976 66.4214 34.2371 65.6902C34.33 65.7249 35.1013 66.4283 34.4753 65.7815C33.9429 65.2599 33.9449 65.3959 33.563 65.0698C34.0424 65.3893 33.9934 65.2356 34.5204 65.5747C35.4828 66.4857 34.9039 65.9469 35.8677 66.8149L35.1421 65.9933C35.9614 66.7611 35.8141 66.4781 35.9088 66.5148C34.6055 65.1107 34.7572 65.6202 33.8895 64.7449C33.4109 64.381 34.7098 65.5575 33.9874 64.963C33.1687 64.1516 33.7498 64.827 32.7866 63.959L32.9764 64.0767C32.7358 63.759 32.4001 63.5397 32.0632 63.2291C31.6785 62.9011 32.2157 63.8739 30.7213 62.4408C30.8148 62.4913 30.8548 62.5045 30.8634 62.4962L32.9393 63.2975C31.2729 61.6906 29.6268 60.0641 28.0015 58.4185C27.7117 57.9037 29.3492 59.5259 29.2972 59.3696L30.0693 60.1633C29.973 60.1699 28.3835 58.5663 29.0118 59.3494C30.4565 60.6726 31.0358 61.3467 32.4776 62.5332C32.1848 62.0146 30.6972 60.8561 29.9231 59.9263C30.2798 60.286 30.6011 60.5704 30.9176 60.8423L28.3524 58.2665L28.1142 58.0935C28.7261 58.7108 29.1483 59.1387 29.1996 59.1965C28.3811 58.3855 27.6142 57.7755 27.4697 57.8085L27.614 57.9539L27.2863 57.6915C27.0991 57.4979 26.9114 57.3048 26.723 57.1123ZM34.1345 4.98682C34.0926 5.04382 34.0629 5.0918 34.046 5.1322C34.0635 5.09009 34.0211 5.11487 34.1345 4.98682ZM33.8313 66.8136L35.4648 68.439L36.2716 69.243L36.4717 69.4417C36.4994 69.472 36.5506 69.5139 36.5981 69.5521C36.6473 69.5885 36.6906 69.6333 36.7462 69.6608C36.9573 69.792 37.2057 69.8505 37.4516 69.8564C37.2302 69.8359 37.0165 69.7812 36.8445 69.6683C36.7534 69.6207 36.68 69.5535 36.6104 69.4866C36.5313 69.4176 36.5006 69.3665 36.4468 69.308L35.9209 68.6864C35.612 68.3163 35.3967 68.0444 35.3359 67.9325C35.2749 67.8207 35.3684 67.8685 35.6771 68.1381C35.8314 68.2727 36.0395 68.4628 36.3087 68.7158C36.4428 68.843 36.5927 68.9854 36.7599 69.1434C36.8018 69.187 36.8433 69.2163 36.8855 69.2495L36.9493 69.2997L37.0244 69.3368L37.1006 69.376L37.1855 69.3998C37.2144 69.4073 37.2427 69.418 37.2726 69.4238L37.3649 69.432C37.3659 69.4442 37.6237 69.4089 37.6205 69.4001C37.4945 69.4139 37.3404 69.4211 37.1855 69.3638C37.1048 69.3462 37.033 69.2965 36.9571 69.2545L36.8532 69.1702C36.8169 69.1407 36.7765 69.0968 36.7376 69.0602C36.4037 68.7344 36.0656 68.4125 35.7234 68.0947C35.2144 67.7073 34.7022 67.3236 34.1871 66.9437L33.4316 66.3917C33.2341 66.2504 33.1089 66.1643 33.1087 66.1738C33.2538 66.4094 33.5913 66.6311 33.9298 66.9869L33.8313 66.8136ZM33.3405 65.769C32.7334 65.1448 32.8368 65.3206 32.7045 65.2605L33.3766 65.8835C33.3021 65.7947 33.2732 65.7427 33.3405 65.769ZM32.7069 65.3306C32.7766 65.3994 32.835 65.4591 32.8617 65.4941L32.7069 65.3306ZM32.24 62.172L32.3064 62.2321L31.8633 61.7886C31.9177 61.8519 32.0279 61.9667 32.24 62.172ZM33.4259 63.4838L33.6393 63.5653L33.2237 63.1495C33.2419 63.2238 33.2662 63.2961 33.4259 63.4838ZM37.3035 67.6368C37.3871 67.6804 37.5043 67.7649 37.6348 67.8668L37.8387 68.0295L37.8911 68.0723L37.9173 68.0935L37.9304 68.1044L37.9308 68.1047C37.9219 68.0951 37.9514 68.1265 37.9109 68.0835L37.9117 68.0842L37.9131 68.0858L37.9161 68.0889L37.9221 68.0947L38.0173 68.1896C38.0568 68.2249 38.0628 68.2437 38.0767 68.2637C38.0897 68.2845 38.1078 68.3007 38.1218 68.3241C38.1417 68.3779 38.1782 68.4254 38.1892 68.4729C38.2023 68.5195 38.2207 68.5603 38.2338 68.592C38.2422 68.6238 38.2541 68.6462 38.2691 68.6553C38.2815 68.6884 38.2982 68.6537 38.3118 68.5773L38.3084 68.4363C38.3016 68.3828 38.2813 68.3254 38.2677 68.2642C38.2538 68.2338 38.2368 68.2057 38.2219 68.1757C38.2055 68.146 38.1967 68.1154 38.166 68.084L38.0873 67.9893L38.0674 67.9655C38.0624 67.9604 38.0573 67.9556 38.0524 67.9506L38.0074 67.9064L37.6362 67.5402C37.6143 67.5441 37.5509 67.5062 37.454 67.4352C37.697 67.6913 37.8447 67.8767 37.6868 67.8302C37.1528 67.0835 37.0159 67.347 36.3401 66.6351C36.0523 66.4786 37.0641 67.4545 37.3035 67.6368ZM16.8188 19.2651C16.8464 19.2533 16.9358 19.2061 17.0573 19.1365L16.6036 19.6598C15.6964 20.4983 14.8568 21.0612 14.1679 21.9395C13.7662 22.2739 13.5073 22.4106 13.2677 22.5488C13.4543 22.3755 13.6303 22.2146 13.7804 22.084C15.8596 19.7644 15.1191 21.1202 16.8188 19.2651ZM6.453 28.9702C6.53906 28.8765 6.55734 28.8307 6.55734 28.8307C4.73727 30.9044 3.15118 32.5276 2.07538 33.5541C2.34769 33.4166 3.35745 32.5388 3.83987 32.1249L3.51016 32.5862L3.19995 32.7734L2.56622 33.5151C2.81204 33.3739 3.36771 32.8174 3.7843 32.489C3.80295 32.4436 4.92831 31.1904 5.22128 30.8195L4.20209 31.7047C4.48422 31.4722 5.75125 30.2158 6.24149 29.7059C6.21439 29.6604 5.27966 30.4524 5.24979 30.6368C5.09045 30.6846 6.10141 29.7073 5.40268 30.2679C6.10202 29.4792 7.35721 28.3621 7.94415 27.848L8.13138 27.8457C8.78134 27.2877 8.43481 27.3374 9.2178 26.6849C8.33908 27.5682 9.47086 26.6365 8.7645 27.3318C9.02716 27.1456 8.86685 27.4218 9.5748 26.725C10.0474 26.0321 10.405 26.0717 10.8595 25.4242C11.2735 25.0983 10.5288 25.8859 11.2847 25.1876C12.0685 24.3065 11.9734 24.3093 11.9369 24.1724C11.1187 24.9139 11.1617 25.1448 10.4912 25.75L11.6288 24.3569C11.3696 24.5657 11.1912 24.7334 11.0497 24.8818C11.3001 24.6229 11.4978 24.3885 11.6552 24.1764L11.9078 23.8451C11.1758 24.5503 10.5242 25.1754 10.3715 25.2495L10.429 25.1105C10.1305 25.3223 9.73956 25.7598 9.5766 25.978C8.92664 26.615 8.33286 27.3046 8.13379 27.3887L8.3429 27.1104C7.54944 27.8999 7.46518 27.9918 6.453 28.9702ZM21.5854 55.0458C21.2562 54.4219 20.8582 53.7673 18.5541 51.5962L18.7442 51.7585C17.6965 50.5548 16.3759 49.7258 15.0906 48.2716C15.8276 48.8679 15.7857 48.8379 16.6701 49.4281L15.8987 48.7697C16.1862 48.8809 15.4169 48.2241 14.8877 47.7054L15.4608 48.0608C15.7514 48.3981 16.5703 49.2095 16.5693 49.1635C16.3763 48.9989 17.5352 50.3461 18.2585 50.9871C18.2566 50.8508 16.7638 49.4639 17.5313 49.9857C16.9073 49.475 16.905 49.339 16.2782 48.7808C16.9036 49.2928 16.516 48.8273 16.9969 49.1938L15.9852 48.2627C15.9826 48.2153 17.4756 49.6023 16.7513 48.7382C16.3191 48.3911 15.3077 47.3263 15.214 47.3802L15.2126 47.3346C14.4884 46.6039 14.781 47.1222 13.9143 46.203C13.8659 46.229 14.0134 46.4216 14.3469 46.7288C14.6389 46.9785 14.7326 46.9695 15.3101 47.507C15.506 47.8091 14.6333 46.8395 14.928 47.3154C15.0743 47.5518 16.4678 48.72 15.9418 48.4268L15.2188 47.6975C15.1249 47.7516 14.5939 47.2305 14.5484 47.3033C14.0688 46.8936 13.7267 46.4003 13.1997 46.0172C12.9597 45.8789 13.2043 46.2891 12.4797 45.5137C11.9939 44.8304 10.2135 43.1532 9.53909 42.5323L8.91479 42.0221C8.91782 42.1139 10.0225 43.0793 9.59247 42.7797L8.6756 41.9291L8.77374 41.9681C8.48215 41.6743 8.14664 41.4102 7.85828 41.1637C8.1922 41.3818 8.81848 42.0284 8.7677 41.8289C8.36115 41.4065 8.32584 41.3164 7.92249 40.9561C8.01279 41.0326 8.09344 41.0955 8.09366 41.0746C7.27313 40.217 7.18143 40.3622 6.9418 40.1801C5.9812 39.4489 7.71338 41.1067 7.52316 41.0785L4.97244 38.6986C5.21204 38.8809 5.45285 39.0649 5.40408 38.9559C4.82495 38.3271 5.45065 38.884 4.58334 38.0538C4.53821 38.2162 3.4295 37.068 2.75766 36.5386C2.51627 36.2211 2.46649 36.156 3.09119 36.7566C3.09219 36.6239 2.21826 35.8314 1.94153 35.5522C1.90521 35.5238 1.86963 35.4944 1.83478 35.4642C1.75311 35.3937 1.64514 35.313 1.55304 35.2168C1.5069 35.1688 1.45773 35.1223 1.42804 35.0667C1.3941 35.0138 1.35721 34.9647 1.34094 34.9141C1.37186 35.0745 1.3851 35.1224 1.31244 35.053C1.29678 35.0345 1.27112 35.0105 1.25183 34.9741C1.2338 34.9373 1.2131 34.8914 1.18964 34.8361C1.16534 34.7811 1.16113 34.7122 1.14508 34.6354C1.13828 34.5481 1.14178 34.4603 1.15552 34.3738L1.14828 34.3273C1.0881 34.5288 1.07886 34.7706 1.16336 35C1.2424 35.2343 1.43225 35.4163 1.61163 35.6091L2.15826 36.1672L2.66135 36.6685C2.98322 36.9823 3.27097 37.2462 3.48209 37.4039L3.29065 37.2855C4.25607 38.3331 5.64609 39.3196 5.98804 39.9023C5.89252 39.9103 6.1821 40.1128 6.08939 40.1676L6.90268 40.8401L6.71185 40.7213L8.01279 41.9449L7.96484 41.9255L9.60349 43.1829C9.6376 43.1526 9.60791 43.1047 9.83548 43.2777C10.0149 43.4237 10.1856 43.5793 10.3468 43.7439C10.348 43.7448 10.348 43.7448 10.3482 43.7445L10.3478 43.7449C10.6532 44.0582 10.8163 44.3062 11.1852 44.6993L9.98315 43.5542C9.83044 43.5139 9.87439 43.6674 10.4208 44.2698C10.1794 44.0405 10.0361 43.9857 10.3259 44.278C10.3729 44.2953 11.1436 44.9993 10.9022 44.6805C12.0567 45.7562 13.7475 47.6698 15.575 49.2308C14.2745 48.0972 16.4923 50.26 15.096 48.9557C15.9661 49.967 16.0082 49.668 16.9719 50.6249C17.0233 50.7361 16.4439 50.1069 16.1566 49.9508C17.7458 51.554 19.0414 52.4597 20.5865 54.0035L20.5845 54.1354C20.8915 54.4142 21.2317 54.7239 21.5854 55.0458ZM24.7813 57.9651L25.7263 58.8315L25.638 58.7422L26.6028 59.566C26.0712 59.0006 25.7792 58.572 26.5964 59.2926C26.5019 59.2566 26.6955 59.5112 26.4069 59.2648C26.8893 59.8105 27.9984 60.9591 27.8032 60.5688C26.6979 59.6924 27.7017 60.214 26.8374 59.5209C27.33 59.865 27.7197 60.3008 28.1509 60.6584C27.6768 60.3104 28.1192 60.877 28.7188 61.5084C29.0084 61.7556 29.731 62.4841 30.2118 62.8953C30.1141 62.6775 30.5453 63.0233 29.8227 62.2944C30.2333 62.6444 30.6201 63.0195 30.9806 63.4177C30.7833 63.2483 30.4496 62.9414 30.449 62.9856C30.6936 63.3351 31.0512 63.6755 31.2222 63.8889L31.6998 64.3302C31.6597 64.2805 31.6273 64.2354 31.6081 64.1991L32.1836 64.6461C31.462 64.0072 31.8936 64.309 31.9398 64.2814C31.8465 64.3357 32.3754 64.7207 32.6144 64.9468L32.1792 64.374C32.4675 64.5757 32.9997 65.2765 32.9482 65.0756C31.8886 63.9917 31.4556 63.6 30.4454 62.6699L30.7843 63.116C29.6277 62.0831 30.2032 62.3514 28.951 61.1484C28.3757 60.701 27.0687 59.3384 26.9307 59.4219C27.1215 59.54 26.2528 58.5746 25.774 58.2103C25.1983 57.8527 23.7537 56.4847 24.1402 56.9482C24.5255 57.3228 25.1022 57.7705 25.346 58.1351L24.5748 57.4319L25.0109 57.9608C24.7767 57.6962 24.7466 57.7727 24.7813 57.9651ZM36.1573 64.5374L36.1298 64.5081L36.1615 64.5396L36.1573 64.5374Z" fill="#202020" fill-opacity="1.000000" fill-rule="nonzero"/>
</svg>
