<svg width="42.000000" height="32.002441" viewBox="0 0 42 32.0024" fill="none" xmlns="http://www.w3.org/2000/svg" xmlns:xlink="http://www.w3.org/1999/xlink">
	<desc>
			Created with Pixso.
	</desc>
	<defs/>
	<path id="Vector" d="M38.8178 3.29089C38.1978 2.62549 37.4258 2.14661 36.579 1.90198C34.2651 0.942627 11.8472 0.472534 5.3432 1.92883C4.4964 2.17346 3.7243 2.65259 3.10425 3.31824C2.48419 3.98376 2.03796 4.8125 1.81024 5.72131C0.765259 10.6395 0.686218 21.2722 1.83624 26.301C2.06415 27.2097 2.51044 28.0382 3.13043 28.7035C3.75049 29.3689 4.52252 29.8479 5.3692 30.0924C9.95221 31.2246 31.7401 31.3834 36.605 30.0924C37.4518 29.8479 38.2238 29.3689 38.8438 28.7035C39.4639 28.0382 39.9102 27.2097 40.138 26.301C41.252 20.9427 41.331 10.969 40.112 5.69348C39.8842 4.78479 39.4379 3.9563 38.8178 3.29089Z" stroke="#F8F1EA" stroke-opacity="1.000000" stroke-width="2.000000" stroke-linejoin="round"/>
	<path id="Vector" d="M17 10.0021L17 23.0021L27 16.5021L17 10.0021Z" stroke="#F8F1EA" stroke-opacity="1.000000" stroke-width="2.000000" stroke-linejoin="round"/>
</svg>
