<svg width="90.000000" height="63.000000" viewBox="0 0 90 63" fill="none" xmlns="http://www.w3.org/2000/svg" xmlns:xlink="http://www.w3.org/1999/xlink">
	<desc>
			Created with Pixso.
	</desc>
	<defs/>
	<path id="Vector" d="M11.4336 13.2324L32.2595 16.1191C32.9863 18.1089 36.6494 27.9048 37.3364 29.6597L37.3262 29.6597C31.293 32.8779 25.2605 36.085 19.2244 39.3018C21.3198 38.8872 23.4421 38.6807 25.5759 38.6807C28.3665 38.6807 31.1021 39.0459 33.7141 39.7539C38.9829 41.1997 43.7422 43.5044 48.344 45.7476C52.4446 47.7373 56.3267 49.6245 60.2 50.707C60.7461 50.8623 61.272 50.9932 61.7979 51.1069C57.2068 40.9702 44.8618 13.6567 42.4229 7.64404C41.2771 4.80957 39.6987 3.75684 37.46 3.4458L13 0.0541992C9.625 -0.40918 6.53564 2.15869 6.09668 5.79736C5.67725 9.4375 8.05859 12.7681 11.4336 13.2324Z" fill="#FFFFFF" fill-opacity="1.000000" fill-rule="nonzero"/>
	<path id="Vector" d="M1.59399 60.606C2.27173 61.1318 3.04712 61.3809 3.82178 61.3809C3.99243 61.3809 4.15527 61.3691 4.32031 61.3369C5.33276 61.1948 6.29077 60.6162 6.9292 59.6577C9.40674 55.9326 13.2417 53.0044 17.7068 51.3965C20.2695 50.4795 22.9458 50.0171 25.5767 50.0171C35.1101 50.0171 43.2849 56.1631 51.8926 59.7007C56.4993 61.5986 61.3071 63 66.5415 63C68.741 63 71.0159 62.7485 73.3774 62.1816C78.9333 60.8618 83.6973 58.0151 87.134 54.0244C87.959 53.0698 88.7085 52.0566 89.365 50.9771C90.5327 49.0791 90.0427 46.5225 88.283 45.2622C87.635 44.7983 86.9072 44.5806 86.1787 44.5806C84.9368 44.5806 83.7224 45.2295 82.9893 46.4297C82.6902 46.9141 82.3669 47.377 82.0134 47.8296C79.6235 50.8994 76.0374 53.1079 71.7341 54.1289C67.7644 55.0659 63.3862 54.7876 59.4729 53.6973C55.3608 52.541 51.3826 50.6108 47.157 48.5601C42.6646 46.3848 38.0281 44.1274 32.9973 42.7451C30.606 42.0815 28.1001 41.7661 25.5664 41.7661C22.1162 41.7661 18.6074 42.3721 15.2693 43.5703C12.3521 44.6235 9.64453 46.085 7.21875 47.9331C4.65356 49.8804 2.46582 52.2036 0.705811 54.8433C0.591553 55.0171 0.496094 55.1914 0.410156 55.3765C-0.42334 57.1606 0.0344238 59.4009 1.59399 60.606Z" fill="#FFFFFF" fill-opacity="1.000000" fill-rule="nonzero"/>
	<path id="Vector" d="M84.333 26.915C84.333 34.9541 78.2942 41.4663 70.8423 41.4663C63.3928 41.4663 57.3494 34.9541 57.3494 26.915C57.3494 18.8804 63.3936 12.3657 70.8423 12.3657C78.2949 12.3657 84.333 18.8804 84.333 26.915Z" fill="#FFFFFF" fill-opacity="1.000000" fill-rule="nonzero"/>
</svg>
