<svg width="105.000000" height="92.000000" viewBox="0 0 105 92" fill="none" xmlns="http://www.w3.org/2000/svg" xmlns:xlink="http://www.w3.org/1999/xlink">
	<desc>
			Created with Pixso.
	</desc>
	<defs/>
	<path id="Vector" d="M16.8049 22.9102C17.3027 22.9775 17.9534 23.0063 18.6575 23.0063C21.8608 23.0063 24.6079 22.229 26.4453 20.4937C27.8704 19.1465 28.6438 17.1606 28.6438 14.8281C28.6438 12.4858 27.6172 10.5088 26.0872 9.3042C24.4868 8.02441 22.1084 7.39258 18.7661 7.39258C15.4568 7.39258 13.1121 7.59961 11.446 7.87891L11.446 31.4341L16.804 31.4341L16.804 22.9102L16.8049 22.9102ZM16.8049 11.6772C17.2024 11.5586 17.9355 11.4629 19.0408 11.4629C21.7512 11.4629 23.2832 12.7769 23.2832 14.9727C23.2832 17.4072 21.5027 18.8643 18.6208 18.8643C17.8333 18.8643 17.2708 18.8325 16.804 18.7197L16.804 11.6772L16.8049 11.6772Z" fill="#FFFFFF" fill-opacity="1.000000" fill-rule="nonzero"/>
	<path id="Vector" d="M6.67383 38.8188L33.4089 38.8188C36.7952 38.8188 39.543 36.0942 39.543 32.729L39.543 6.10889C39.543 2.72754 36.7952 0 33.4089 0L6.67383 0C3.29517 0 0.555664 2.72754 0.555664 6.10889L0.555664 32.728C0.555664 36.0942 3.29419 38.8188 6.67383 38.8188ZM5.39795 6.46533C5.39795 5.55273 6.13672 4.8208 7.04785 4.8208L33.0498 4.8208C33.9678 4.8208 34.6914 5.55273 34.6914 6.46533L34.6914 32.3564C34.6914 33.2666 33.9688 34.0181 33.0498 34.0181L7.04712 34.0181C6.13574 34.0181 5.39697 33.2656 5.39697 32.3564L5.39697 6.46533L5.39795 6.46533Z" fill="#FFFFFF" fill-opacity="1.000000" fill-rule="nonzero"/>
	<path id="Vector" d="M25.3511 70.7021C19.4326 70.7021 14.6626 75.4575 14.6626 81.3516C14.6626 87.229 19.4524 92 25.3511 92C31.252 92 36.054 87.229 36.054 81.3516C36.054 75.4575 31.2529 70.7021 25.3511 70.7021ZM25.3511 84.5664C23.5718 84.5664 22.1289 83.1206 22.1289 81.3525C22.1289 79.5825 23.5718 78.1387 25.3511 78.1387C27.1326 78.1387 28.5857 79.5825 28.5857 81.3525C28.5864 83.1206 27.1326 84.5664 25.3511 84.5664Z" fill="#FFFFFF" fill-opacity="1.000000" fill-rule="nonzero"/>
	<path id="Vector" d="M103.223 72.6177L101.479 58.4443C101.139 55.7354 98.7407 53.7368 95.9854 53.8833L92.1528 54.0952L80.2512 43.416C79.1091 42.3892 77.6279 41.8242 76.0784 41.8242L51.9016 41.8242C46.4875 41.8242 41.2178 43.6724 36.9756 47.0483L23.4958 57.8442L5.34473 62.3594C3.03857 62.9419 1.38647 65.021 1.38647 67.4219L1.38647 72.6177C0.615967 72.6177 0 73.2349 0 73.9995L0 80.896C0 81.8726 0.794922 82.6689 1.78223 82.6689L12.0171 82.6689C11.9834 82.229 11.8887 81.8062 11.8887 81.3516C11.8887 73.9482 17.9197 67.958 25.3503 67.958C32.7849 67.958 38.8037 73.9482 38.8037 81.3516C38.8037 81.8062 38.7024 82.229 38.6621 82.6689L67.0266 82.6689C66.9768 82.229 66.8972 81.8062 66.8972 81.3516C66.8972 73.9482 72.9124 67.958 80.3477 67.958C87.7839 67.958 93.7981 73.9482 93.7981 81.3516C93.7981 81.8062 93.7166 82.229 93.667 82.6689L103.221 82.6689C104.201 82.6689 105 81.8716 105 80.896L105 74.4038C105.02 73.4141 104.217 72.6177 103.223 72.6177ZM67.3369 55.1997L33.6052 56.9033L40.0657 51.7407C43.5793 48.9321 47.9321 47.3887 52.4314 47.3887L67.3369 47.3887L67.3369 55.1997ZM72.9487 54.9233L72.9487 47.4048L75.1482 47.4048C75.8992 47.4048 76.6323 47.6831 77.2024 48.186L84.0818 54.353L72.9487 54.9233Z" fill="#FFFFFF" fill-opacity="1.000000" fill-rule="nonzero"/>
	<path id="Vector" d="M80.3645 70.7021C74.4468 70.7021 69.6543 75.4575 69.6543 81.3516C69.6543 87.229 74.4468 92 80.3645 92C86.2681 92 91.0427 87.229 91.0427 81.3516C91.0427 75.4575 86.251 70.7021 80.3645 70.7021ZM80.3645 84.5664C78.572 84.5664 77.1206 83.1206 77.1206 81.3525C77.1206 79.5825 78.572 78.1387 80.3645 78.1387C82.127 78.1387 83.5764 79.5825 83.5764 81.3525C83.5764 83.1206 82.127 84.5664 80.3645 84.5664Z" fill="#FFFFFF" fill-opacity="1.000000" fill-rule="nonzero"/>
</svg>
