<svg width="33.000000" height="30.000000" viewBox="0 0 33 30" fill="none" xmlns="http://www.w3.org/2000/svg" xmlns:xlink="http://www.w3.org/1999/xlink">
	<desc>
			Created with Pixso.
	</desc>
	<defs/>
	<path d="M16.5 29.99C17 29.99 17.5 29.84 17.92 29.56C24.16 25.39 26.86 22.53 28.34 20.75C31.52 16.94 33.04 13.03 32.99 8.79C32.94 3.94 28.99 -0.01 24.18 -0.01C20.69 -0.01 18.26 1.93 16.85 3.55C16.81 3.6 16.75 3.64 16.69 3.67C16.63 3.7 16.56 3.71 16.5 3.71C16.43 3.71 16.36 3.7 16.3 3.67C16.24 3.64 16.18 3.6 16.14 3.55C14.73 1.93 12.3 -0.01 8.81 -0.01C4 -0.01 0.05 3.94 0 8.79C-0.05 13.03 1.47 16.94 4.65 20.75C6.13 22.53 8.83 25.39 15.07 29.56C15.49 29.84 15.99 29.99 16.5 29.99Z" fill="#FF5B5B" fill-opacity="1.000000" fill-rule="nonzero"/>
	<mask id="mask11_3623" mask-type="alpha" maskUnits="userSpaceOnUse" x="0.000000" y="-0.000977" width="33.000000" height="30.000000">
		<path d="M16.5 29.99C17 29.99 17.5 29.84 17.92 29.56C24.16 25.39 26.86 22.53 28.34 20.75C31.52 16.94 33.04 13.03 32.99 8.79C32.94 3.94 28.99 -0.01 24.18 -0.01C20.69 -0.01 18.26 1.93 16.85 3.55C16.81 3.6 16.75 3.64 16.69 3.67C16.63 3.7 16.56 3.71 16.5 3.71C16.43 3.71 16.36 3.7 16.3 3.67C16.24 3.64 16.18 3.6 16.14 3.55C14.73 1.93 12.3 -0.01 8.81 -0.01C4 -0.01 0.05 3.94 0 8.79C-0.05 13.03 1.47 16.94 4.65 20.75C6.13 22.53 8.83 25.39 15.07 29.56C15.49 29.84 15.99 29.99 16.5 29.99Z" fill="#FF5B5B" fill-opacity="1.000000" fill-rule="nonzero"/>
	</mask>
	<g mask="url(#mask11_3623)">
		<rect x="-10.000000" y="-9.000977" width="26.500000" height="56.000000" fill="#ED2E2E" fill-opacity="1.000000"/>
	</g>
</svg>
