<svg width="105.885742" height="23.515625" viewBox="0 0 105.886 23.5156" fill="none" xmlns="http://www.w3.org/2000/svg" xmlns:xlink="http://www.w3.org/1999/xlink">
	<desc>
			Created with Pixso.
	</desc>
	<defs>
		<linearGradient id="paint_linear_5_21_0" x1="53.648438" y1="-8.898438" x2="53.648438" y2="31.101562" gradientUnits="userSpaceOnUse">
			<stop stop-color="#FDFDFC"/>
			<stop offset="1.000000" stop-color="#FDFDFC" stop-opacity="0.000000"/>
		</linearGradient>
	</defs>
	<path id="SPYRO" d="M8.76562 23.4531Q5.92188 23.4531 3.82031 22.5938Q1.72656 21.7266 0 19.8672L3.61719 16.2188Q4.79688 17.4688 6.14062 18.125Q7.49219 18.7812 9.1875 18.7812Q10.625 18.7812 11.4062 18.2891Q12.1953 17.7891 12.1953 16.9219Q12.1953 16.125 11.6172 15.6016Q11.0391 15.0703 10.0938 14.6719Q9.15625 14.2734 8.01562 13.9062Q6.88281 13.5312 5.74219 13.0078Q4.60938 12.4766 3.66406 11.7109Q2.71875 10.9453 2.14062 9.79688Q1.57031 8.64062 1.57031 6.94531Q1.57031 4.76562 2.60938 3.23438Q3.64844 1.69531 5.5 0.867188Q7.35938 0.03125 9.82812 0.03125Q12.2891 0.03125 14.3672 0.867188Q16.4453 1.69531 17.7891 3.16406L14.1406 6.78125Q13.1172 5.75781 12.0625 5.25Q11.0078 4.73438 9.75781 4.73438Q8.57812 4.73438 7.90625 5.14844Q7.23438 5.5625 7.23438 6.33594Q7.23438 7.10156 7.80469 7.58594Q8.38281 8.0625 9.32812 8.42969Q10.2734 8.79688 11.4062 9.17969Q12.5469 9.5625 13.6641 10.0781Q14.7812 10.5859 15.7266 11.3906Q16.6719 12.1875 17.25 13.4062Q17.8281 14.625 17.8281 16.3516Q17.8281 19.7422 15.4375 21.6016Q13.0547 23.4531 8.76562 23.4531ZM25.2829 14.9766L25.2829 10.7188L29.7595 10.7188Q30.5954 10.7188 31.2829 10.3828Q31.9704 10.0469 32.3845 9.375Q32.7986 8.70312 32.7986 7.71094Q32.7986 6.71875 32.3845 6.03125Q31.9704 5.34375 31.2829 5.00781Q30.5954 4.67188 29.7595 4.67188L25.2829 4.67188L25.2829 0.414062L30.7517 0.414062Q32.9314 0.414062 34.6892 1.29688Q36.447 2.17188 37.4704 3.78906Q38.4939 5.40625 38.4939 7.71094Q38.4939 9.95312 37.4704 11.6016Q36.447 13.2422 34.6892 14.1094Q32.9314 14.9766 30.7517 14.9766L25.2829 14.9766ZM20.7361 23.1016L20.7361 0.414062L26.4626 0.414062L26.4626 23.1016L20.7361 23.1016ZM47.5214 14.9766L38.8495 0.414062L45.412 0.414062L52.0292 12.2188L47.4276 12.2188L54.0448 0.414062L60.4823 0.414062L51.7479 14.9766L47.5214 14.9766ZM46.8495 23.1016L46.8495 12.6406L52.5761 12.6406L52.5761 23.1016L46.8495 23.1016ZM66.5629 13.9141L66.5629 9.82031L70.8833 9.82031Q72.2895 9.82031 73.0395 9.13281Q73.7895 8.44531 73.7895 7.25781Q73.7895 6.10938 73.0395 5.39062Q72.2895 4.67188 70.8833 4.67188L66.5629 4.67188L66.5629 0.414062L71.6801 0.414062Q73.9848 0.414062 75.727 1.28125Q77.4692 2.14062 78.4614 3.64844Q79.4536 5.14844 79.4536 7.16406Q79.4536 9.17969 78.4458 10.7031Q77.4379 12.2188 75.6489 13.0703Q73.8598 13.9141 71.4536 13.9141L66.5629 13.9141ZM62.0161 23.1016L62.0161 0.414062L67.7426 0.414062L67.7426 23.1016L62.0161 23.1016ZM74.3051 23.1016L67.7114 13.375L72.8676 12.125L80.9301 23.1016L74.3051 23.1016ZM93.8231 23.5156Q91.1981 23.5156 88.9872 22.625Q86.7841 21.7266 85.1356 20.125Q83.4872 18.5234 82.5575 16.3672Q81.6356 14.2031 81.6356 11.7109Q81.6356 9.21094 82.5419 7.08594Q83.4559 4.96094 85.0888 3.35938Q86.7216 1.75781 88.9247 0.882812Q91.1356 0 93.7606 0Q96.3856 0 98.5888 0.882812Q100.8 1.75781 102.433 3.35938Q104.065 4.96094 104.972 7.10156Q105.886 9.24219 105.886 11.7422Q105.886 14.2344 104.972 16.3828Q104.065 18.5234 102.433 20.1406Q100.8 21.7578 98.6044 22.6406Q96.4169 23.5156 93.8231 23.5156ZM93.7606 18.3984Q95.6825 18.3984 97.0888 17.5703Q98.495 16.7344 99.2606 15.2344Q100.034 13.7266 100.034 11.7109Q100.034 10.2344 99.5966 9.02344Q99.1669 7.80469 98.3309 6.92969Q97.5028 6.04688 96.3466 5.57031Q95.1981 5.08594 93.7606 5.08594Q91.8388 5.08594 90.4325 5.90625Q89.0263 6.71875 88.2528 8.22656Q87.4872 9.72656 87.4872 11.7109Q87.4872 13.2422 87.9169 14.4766Q88.3544 15.7109 89.1825 16.5938Q90.0184 17.4688 91.1669 17.9375Q92.3231 18.3984 93.7606 18.3984Z" fill="url(#paint_linear_5_21_0)" fill-opacity="1.000000" fill-rule="evenodd"/>
</svg>
