<svg width="39.000000" height="41.000000" viewBox="0 0 39 41" fill="none" xmlns="http://www.w3.org/2000/svg" xmlns:xlink="http://www.w3.org/1999/xlink">
	<desc>
			Created with Pixso.
	</desc>
	<defs/>
	<path d="M18.54 3.07L15.34 13.39C15.21 13.81 14.82 14.1 14.38 14.1L3.92 14.1C2.96 14.1 2.55 15.31 3.31 15.89L11.85 22.39C12.19 22.64 12.33 23.08 12.2 23.48L8.96 33.93C8.67 34.86 9.75 35.61 10.52 35.02L18.89 28.66C19.25 28.38 19.74 28.38 20.1 28.66L28.47 35.02C29.25 35.61 30.32 34.86 30.03 33.93L26.79 23.48C26.66 23.08 26.8 22.64 27.14 22.39L35.68 15.89C36.44 15.31 36.03 14.1 35.07 14.1L24.61 14.1C24.17 14.1 23.78 13.81 23.65 13.39L20.45 3.07C20.16 2.13 18.83 2.13 18.54 3.07Z" fill="#524FF5" fill-opacity="1.000000" fill-rule="evenodd"/>
	<mask id="mask11_3646" mask-type="alpha" maskUnits="userSpaceOnUse" x="0.000000" y="-0.000977" width="39.000000" height="40.813965">
		<path d="M18.54 3.07L15.34 13.39C15.21 13.81 14.82 14.09 14.38 14.09L3.92 14.09C2.96 14.09 2.55 15.31 3.31 15.89L11.85 22.39C12.19 22.64 12.33 23.08 12.2 23.48L8.96 33.93C8.67 34.86 9.75 35.61 10.52 35.02L18.89 28.66C19.25 28.38 19.74 28.38 20.1 28.66L28.47 35.02C29.25 35.61 30.32 34.86 30.03 33.93L26.79 23.48C26.66 23.08 26.8 22.64 27.14 22.39L35.68 15.89C36.44 15.31 36.03 14.09 35.07 14.09L24.61 14.09C24.17 14.09 23.78 13.81 23.65 13.39L20.45 3.07C20.16 2.13 18.83 2.13 18.54 3.07Z" fill="#524FF5" fill-opacity="1.000000" fill-rule="evenodd"/>
	</mask>
	<g mask="url(#mask11_3646)">
		<rect x="10.960938" y="-6.349609" width="22.307169" height="41.720932" transform="rotate(34.5456 10.960938 -6.349609)" fill="#2421D9" fill-opacity="1.000000"/>
	</g>
</svg>
