<svg width="87" height="92" fill="none" xmlns="http://www.w3.org/2000/svg"><path d="M7.238 62.093a21.057 21.057 0 0015.803-3.795 21.075 21.075 0 007.408-9.743c6.165 4.064 8.166 12.316 4.416 18.785a3.602 3.602 0 002.7 5.385 3.594 3.594 0 003.521-1.771c5.434-9.373 2.882-21.217-5.538-27.6.006-.041.015-.081.02-.122l1.695-14.823a18.88 18.88 0 0010.45 4.717 18.62 18.62 0 007.812-.771 3.087 3.087 0 002-3.878 3.08 3.08 0 00-3.876-2c-6.614 2.114-13.711-1.552-15.824-8.171a3.067 3.067 0 00-1.555-1.818 4.226 4.226 0 00-2.156-.902l-1.911-.218a4.203 4.203 0 00-1.123.028c-9.928-.679-18.759 6.6-19.902 16.596a3.083 3.083 0 106.126.703c.616-5.39 4.56-9.603 9.54-10.817L24.546 41.97c-.035.309-.04.614-.026.914a3.606 3.606 0 00-.095.416 13.968 13.968 0 01-5.61 9.176 13.922 13.922 0 01-10.451 2.506 3.598 3.598 0 00-4.115 2.992 3.597 3.597 0 002.989 4.12z" fill="#FFF"/><path d="M42.053 7.121c0 3.933-3.185 7.121-7.113 7.121a7.116 7.116 0 01-7.113-7.12A7.117 7.117 0 0134.94 0a7.117 7.117 0 017.113 7.121z" fill="#FFF" fill-rule="evenodd"/><path d="M76.824 75.564H6.053A6.061 6.061 0 000 81.623c0 3.34 2.715 6.058 6.053 6.058h70.771c3.337 0 6.054-2.718 6.054-6.058-.001-3.342-2.717-6.059-6.054-6.059zM6.053 85.703a4.082 4.082 0 01-4.076-4.08 4.083 4.083 0 014.076-4.082h2.865a4.166 4.166 0 000 8.162H6.053zm4.524 0a4.165 4.165 0 000-8.161h61.722a4.164 4.164 0 00.002 8.161H10.577zm66.247 0H73.96a4.164 4.164 0 000-8.162h2.864a4.081 4.081 0 010 8.161zm2.976 3.192H3.076a1.552 1.552 0 000 3.105H79.8a1.55 1.55 0 100-3.105zM67.962 29.728l10.022 13.295-17.64 29.724h19.37L87 44.474l-.3-.145.162-.124L75.148 28.67l6.812-6.02-1.984-2.249-6.637 5.868-.586-.777 9.225-8.156-3.013-3.415-16.808 14.86 3.012 3.416 2.793-2.469z" fill="#FFF"/></svg>