<svg width="77" height="92" fill="none" xmlns="http://www.w3.org/2000/svg"><path d="M66.671 91.728c3.226 0 5.875-2.797 5.875-6.219v-2.871c0-2.308-9.388-10.696-15.22-15.818-5.965-5.233-5.427-5.735-5.427-16.386l.398 1.078a5.703 5.703 0 001.404 2.345l.012-.011 13.6 13.706a5.66 5.66 0 008.017.021 5.694 5.694 0 00.021-8.036l-8.619-8.685c-7.956-8.022-7.095-22.988-15.044-22.863H25.314c-7.953-.124-7.09 14.841-15.047 22.863L1.65 59.537a5.692 5.692 0 00.022 8.036 5.66 5.66 0 008.015-.021l13.6-13.706.011.012a5.675 5.675 0 001.404-2.345l.399-1.079c0 10.652.537 11.153-5.425 16.387-5.836 5.12-15.223 13.51-15.223 15.817v2.872c0 3.421 2.65 6.218 5.877 6.218h13.217c-2.261-2.268-2.6-4.66-2.247-7.51 1.133-9.205 16.154-10.75 25.763-10.187 7.521 1.38 4.25 3.694 2.468 3.646a31.53 31.53 0 00-.924-.017c-21.347-2.031-30.11 7.802-17.477 13.56 3.441 1.382 30.237.508 35.542.508zM38.487 0c-7.254 0-13.134 5.896-13.134 13.166 0 7.277 5.88 13.172 13.134 13.172 7.254 0 13.135-5.895 13.135-13.172C51.622 5.896 45.742 0 38.487 0z" fill="#FFF" fill-rule="evenodd"/></svg>