<svg width="90" height="63" fill="none" xmlns="http://www.w3.org/2000/svg"><path d="M11.434 13.232L32.26 16.12c.726 1.99 4.39 11.786 5.076 13.54h-.01c-6.033 3.219-12.066 6.426-18.102 9.643a32.683 32.683 0 016.352-.621c2.79 0 5.526.365 8.138 1.073 5.269 1.446 10.028 3.75 14.63 5.994 4.1 1.99 7.983 3.877 11.856 4.959.546.155 1.072.286 1.598.4-4.591-10.137-16.936-37.45-19.375-43.463-1.146-2.834-2.724-3.887-4.963-4.198L13 .054C9.625-.409 6.536 2.16 6.097 5.797c-.42 3.64 1.962 6.971 5.337 7.435z" fill="#FFF"/><path d="M1.594 60.606a3.606 3.606 0 002.228.775c.17 0 .333-.012.498-.044 1.013-.142 1.97-.72 2.61-1.68 2.477-3.724 6.312-6.653 10.777-8.26a23.426 23.426 0 017.87-1.38c9.533 0 17.708 6.146 26.316 9.684C56.499 61.599 61.307 63 66.54 63c2.2 0 4.475-.252 6.836-.818 5.556-1.32 10.32-4.167 13.757-8.158a22.708 22.708 0 002.231-3.047c1.168-1.898.678-4.454-1.082-5.715a3.584 3.584 0 00-2.104-.681c-1.242 0-2.457.648-3.19 1.849a15.46 15.46 0 01-.976 1.4c-2.39 3.07-5.976 5.278-10.279 6.299-3.97.937-8.348.659-12.261-.432-4.112-1.156-8.09-3.086-12.316-5.137-4.492-2.175-9.129-4.433-14.16-5.815-2.391-.663-4.897-.979-7.43-.979-3.45 0-6.96.606-10.298 1.804a30.13 30.13 0 00-8.05 4.363 28.531 28.531 0 00-6.513 6.91 4.16 4.16 0 00-.296.533c-.833 1.785-.376 4.025 1.184 5.23zm82.739-33.691c0 8.04-6.039 14.551-13.49 14.551-7.45 0-13.494-6.512-13.494-14.551 0-8.035 6.045-14.55 13.493-14.55 7.453 0 13.491 6.515 13.491 14.55z" fill="#FFF"/></svg>