<svg width="87" height="92" fill="none" xmlns="http://www.w3.org/2000/svg"><path d="M7.23 62.09c.31.05.62.09.93.13 5.3.6 10.55-.77 14.88-3.93 3.42-2.48 5.96-5.86 7.4-9.74 6.17 4.06 8.17 12.32 4.42 18.78-1 1.72-.41 3.93 1.3 4.93.45.25.92.4 1.4.46 1.38.16 2.78-.49 3.52-1.77 5.44-9.37 2.88-21.22-5.54-27.6.01-.04.02-.08.02-.12l1.7-14.83c2.89 2.61 6.55 4.27 10.45 4.72 2.55.29 5.21.06 7.81-.77a3.087 3.087 0 00-1.88-5.88c-6.61 2.12-13.71-1.55-15.82-8.17-.26-.82-.84-1.46-1.56-1.82-.61-.48-1.34-.81-2.15-.9l-1.91-.22c-.38-.04-.76-.03-1.13.03-9.92-.68-18.75 6.6-19.9 16.6a3.08 3.08 0 002.71 3.41c1.7.2 3.22-1.02 3.42-2.71.61-5.39 4.56-9.6 9.54-10.82l-2.3 20.09c-.03.31-.04.62-.02.92-.04.14-.08.27-.1.42-.59 3.71-2.58 6.97-5.61 9.17-3.03 2.21-6.74 3.1-10.45 2.51a3.604 3.604 0 00-4.12 2.99 3.604 3.604 0 002.99 4.12z" fill="#FFF"/><path d="M42.05 7.12c0 3.93-3.19 7.12-7.12 7.12-3.92 0-7.11-3.19-7.11-7.12a7.114 7.114 0 1114.23 0z" fill="#FFF" fill-rule="evenodd"/><path d="M79.8 88.89H3.07c-.86 0-1.55.69-1.55 1.55 0 .86.69 1.56 1.55 1.56h76.72c.86 0 1.56-.7 1.56-1.56 0-.86-.7-1.55-1.55-1.55zM67.96 29.72l10.02 13.3-17.64 29.72h19.37l7.28-28.27-.29-.15.16-.12-11.72-15.54 6.81-6.02-1.98-2.24-6.64 5.86-.58-.77 9.22-8.16-3.01-3.41-16.81 14.86 3.01 3.41 2.8-2.47z" fill="#FFF"/></svg>