<svg width="105" height="92" fill="none" xmlns="http://www.w3.org/2000/svg"><path d="M16.805 22.91c.498.067 1.148.096 1.852.096 3.204 0 5.95-.777 7.788-2.512 1.425-1.348 2.199-3.333 2.199-5.666 0-2.342-1.027-4.32-2.557-5.524-1.6-1.28-3.979-1.911-7.32-1.911-3.31 0-5.655.207-7.321.486v23.555h5.358V22.91zm0-11.233c.397-.118 1.13-.214 2.236-.214 2.71 0 4.242 1.314 4.242 3.51 0 2.434-1.78 3.891-4.662 3.891-.788 0-1.35-.032-1.817-.144v-7.043z" fill="#FFF"/><path d="M6.674 38.819h26.735c3.386 0 6.134-2.725 6.134-6.09V6.109C39.543 2.728 36.795 0 33.409 0H6.674A6.109 6.109 0 00.556 6.109v26.619c0 3.366 2.738 6.09 6.118 6.09zM5.398 6.465c0-.912.739-1.644 1.65-1.644H33.05c.918 0 1.641.732 1.641 1.644v25.891c0 .91-.722 1.662-1.641 1.662H7.047c-.911 0-1.65-.752-1.65-1.662V6.466zm19.953 64.237c-5.918 0-10.688 4.755-10.688 10.65C14.663 87.229 19.453 92 25.35 92c5.901 0 10.703-4.771 10.703-10.648 0-5.895-4.801-10.65-10.703-10.65zm0 13.864a3.223 3.223 0 01-3.222-3.213 3.221 3.221 0 013.222-3.214c1.782 0 3.235 1.444 3.235 3.214 0 1.768-1.453 3.213-3.235 3.213z" fill="#FFF"/><path d="M103.223 72.618l-1.744-14.174c-.34-2.709-2.738-4.707-5.494-4.56l-3.832.211L80.25 43.416a6.226 6.226 0 00-4.173-1.592H51.902a23.997 23.997 0 00-14.926 5.224l-13.48 10.796L5.345 62.36c-2.306.583-3.959 2.662-3.959 5.063v5.196A1.38 1.38 0 000 74v6.896c0 .977.795 1.773 1.782 1.773h10.235c-.034-.44-.128-.863-.128-1.317 0-7.404 6.03-13.394 13.461-13.394 7.435 0 13.454 5.99 13.454 13.394 0 .454-.102.877-.142 1.317h28.365c-.05-.44-.13-.863-.13-1.317 0-7.404 6.015-13.394 13.45-13.394 7.437 0 13.451 5.99 13.451 13.394 0 .454-.081.877-.131 1.317h9.554A1.78 1.78 0 00105 80.896v-6.492c.02-.99-.783-1.786-1.777-1.786zM67.337 55.2l-33.732 1.703 6.46-5.162a19.803 19.803 0 0112.366-4.352h14.906v7.81zm5.612-.277v-7.518h2.2c.75 0 1.483.278 2.053.781l6.88 6.167-11.133.57z" fill="#FFF"/><path d="M80.365 70.702c-5.918 0-10.71 4.755-10.71 10.65 0 5.877 4.792 10.648 10.71 10.648 5.903 0 10.678-4.771 10.678-10.648 0-5.895-4.792-10.65-10.678-10.65zm0 13.864c-1.793 0-3.244-1.445-3.244-3.213 0-1.77 1.451-3.214 3.244-3.214a3.223 3.223 0 013.211 3.214 3.225 3.225 0 01-3.211 3.213z" fill="#FFF"/></svg>