<svg width="91" height="92" fill="none" xmlns="http://www.w3.org/2000/svg"><path d="M41.914 92c-2.469-.94-5.063-1.637-7.383-2.865-8.384-4.436-13.216-14.728-11.603-23.653 1.923-10.628 9.786-18.167 20.105-19.379 12.16-1.426 22.855 6.866 24.96 19.612 1.913 11.596-5.625 22.714-16.7 25.515-.763.194-1.498.51-2.244.77h-7.135zm3.601-43.08c-10.94-.015-20.01 9.18-19.954 20.23.054 10.834 9.032 19.896 19.774 19.96 10.986.066 20.037-9.023 20.029-20.115-.008-10.992-8.974-20.06-19.849-20.075zM0 17.188c2.025-2.464 4.048-4.928 6.296-7.667l21.319 36.913c-2.1 2.339-4.077 4.544-6.183 6.893-3.137-5.258-6.257-10.517-9.405-15.757C8.031 30.92 4.011 24.283.001 17.64L0 17.189zM73.821.243c-1.522 2.613-2.845 5.032-4.338 7.339-.355.547-1.282 1.007-1.95 1.01-14.7.056-29.401.056-44.103 0-.666-.003-1.594-.462-1.949-1.008-1.494-2.307-2.817-4.726-4.34-7.34h56.68zM13.985.023L37.73 41.165l-7.835 3.619c-2.92-5.032-5.848-10.058-8.757-15.095-4.001-6.923-7.948-13.88-12.018-20.762-.787-1.331-.771-2.21.253-3.337 1.547-1.704 2.948-3.543 4.61-5.567zm46.923 44.692c-2.462-1.135-4.93-2.277-7.674-3.544L76.988 0c1.82 2.246 3.567 4.332 5.211 6.501.265.349.274 1.186.044 1.585-7.075 12.21-14.194 24.395-21.335 36.629zm23.77-35.222L91 17.307 69.537 53.333c-2.107-2.352-4.084-4.556-6.185-6.898 6.995-12.12 14.052-24.343 21.326-36.942zM23.92 11.764h43.126c-1.582 2.715-2.984 5.232-4.527 7.66-.269.422-1.137.639-1.73.64a3414.86 3414.86 0 01-30.7-.01c-.623-.004-1.505-.385-1.822-.882-1.475-2.311-2.794-4.722-4.348-7.408z" fill="#FFF" fill-rule="evenodd"/><path d="M62.462 69.103c-.007 9.75-7.394 17.092-17.181 17.074-9.487-.016-16.785-7.512-16.797-17.25-.011-9.708 7.424-17.092 17.195-17.075 9.498.017 16.79 7.512 16.783 17.251zM43.336 80.487h4.885V57.613c-3.263-.396-3.166-.303-5.042 1.735-1.087 1.18-2.459 2.17-3.86 2.959-2.726 1.529-2.802 1.514-1.983 5.001 1.946-.974 3.843-1.92 6-3v16.179z" fill="#FFF" fill-rule="evenodd"/></svg>