<svg width="108.001" height="92" viewBox="0 0 108.001 92.001" fill="none" xmlns="http://www.w3.org/2000/svg"><path d="M53.688 13.196c1.98-1.813 3.852-3.657 5.858-5.342C65.29 3.03 71.823.09 79.418.015c13.82-.135 24.685 7.484 27.81 20.72 1.381 5.865.782 11.678-.782 17.436-.196.72-.625.733-1.199.732-8.604-.008-17.21-.004-25.813-.004-5.184 0-10.369-.022-15.552.018-.835.007-1.208-.26-1.442-1.043-.446-1.482-.979-2.939-1.5-4.397-.523-1.468-1.185-2.024-2.333-2.02-1.215.002-1.96.588-2.456 2.038-1.778 5.215-3.536 10.438-5.303 15.657-.067.2-.161.389-.313.748-.173-.398-.31-.66-.406-.938a65721.956 65721.956 0 01-10.591-30.865c-.024-.068-.041-.139-.066-.206-.54-1.555-1.526-2.449-2.689-2.435-1.129.011-2.07.869-2.595 2.399-2.48 7.221-4.955 14.445-7.433 21.668-.125.367-.264.729-.48 1.325-.866-2.495-1.63-4.763-2.445-7.012-.205-.562-.484-1.151-.887-1.575-1.22-1.277-2.938-.977-3.743.593-.904 1.763-1.82 3.52-2.687 5.302-.276.569-.639.761-1.255.759-4.212-.022-8.424.002-12.636-.042-.343-.003-.909-.35-.992-.642C-.712 29.867-.866 21.63 3.41 13.764 7.52 6.207 14.05 2.021 22.377.526c10.617-1.902 19.64 1.444 27.475 8.56.745.677 1.45 1.404 2.137 2.144.66.712 1.272 1.47 1.699 1.966z" fill="#FFF" fill-rule="evenodd"/><path d="M20.914 40.231l2.761 8c.534 1.548 1.427 2.347 2.614 2.344 1.17-.003 2.083-.812 2.614-2.36 2.476-7.224 4.943-14.45 7.417-21.677.138-.402.294-.797.51-1.375 1.282 3.719 2.505 7.256 3.72 10.797 2.419 7.053 4.834 14.108 7.25 21.16.07.205.14.41.218.61.509 1.31 1.41 2.022 2.53 2.006 1.148-.014 2.053-.712 2.51-2.03.99-2.86 1.947-5.73 2.919-8.596.817-2.417 1.638-4.835 2.515-7.424.204.31.344.485.445.682.541 1.054 1.42 1.436 2.57 1.434 10.151-.014 20.307-.009 30.46-.009 3.636 0 7.273 0 10.908.006.315 0 .63.035 1.125.064-1.735 3.298-3.994 6.015-6.464 8.65-.246-.12-.475-.207-.677-.333-14.444-8.917-32.87-.966-36.32 15.7-.834 4.034-.585 8.043.743 11.955.254.742.112 1.188-.402 1.791-2.124 2.492-4.156 5.067-6.218 7.615-.22.272-.416.562-.675.912-.833-1.154-1.605-2.23-2.384-3.302-3.8-5.24-8.693-9.29-13.915-13.012-5.982-4.265-11.967-8.535-17.826-12.965-4.895-3.701-9.443-7.818-13.144-12.772-.963-1.288-1.81-2.667-2.855-4.22.638-.041 1.007-.084 1.375-.084 3.78-.005 7.562-.073 11.34.027 1.795.048 2.976-.556 3.61-2.242.152-.397.403-.757.726-1.352z" fill="#FFF" fill-rule="evenodd"/><path d="M84.093 92c-10.58.103-19.388-8.64-19.475-19.332-.084-10.669 8.579-19.563 19.163-19.67 10.709-.11 19.603 8.501 19.709 19.087.117 11.093-8.373 19.808-19.397 19.915zM68.422 72.5c-.034 8.645 6.98 15.723 15.614 15.752 8.585.03 15.698-7.053 15.74-15.672.042-8.525-7.002-15.743-15.392-15.777-8.938-.035-15.93 6.842-15.962 15.698z" fill="#FFF" fill-rule="evenodd"/><path d="M86.93 69.67c2.395 0 4.69-.005 6.988.002 1.51.003 1.782.275 1.782 1.746 0 .792.006 1.587-.004 2.382-.016 1.235-.281 1.523-1.54 1.536-2.05.02-4.104.049-6.153-.007-.904-.024-1.175.281-1.15 1.173.059 2.057.028 4.115.014 6.171-.009 1.236-.243 1.465-1.455 1.49-.899.018-1.8.02-2.7.005-1.146-.019-1.45-.33-1.455-1.512-.012-2.378-.004-4.756-.004-7.312-1.493 0-2.918-.002-4.344 0-.972.002-1.942.025-2.916.01-1.204-.021-1.557-.37-1.576-1.541a75.568 75.568 0 010-2.6c.019-1.161.388-1.533 1.573-1.54 2.37-.011 4.74-.003 7.262-.003v-3.291c0-1.336-.01-2.672.003-4.006.01-1.183.35-1.522 1.559-1.547a56.038 56.038 0 012.593.003c1.136.03 1.46.36 1.468 1.517.013 2.022-.003 4.042 0 6.063 0 .386.032.771.054 1.26z" fill="#FFF" fill-rule="evenodd"/></svg>