<svg width="33" height="30" fill="none" xmlns="http://www.w3.org/2000/svg"><path d="M16.5 29.99c.5 0 1-.15 1.42-.43 6.24-4.17 8.94-7.03 10.42-8.81 3.18-3.81 4.7-7.72 4.65-11.96-.05-4.85-4-8.8-8.81-8.8-3.49 0-5.92 1.94-7.33 3.56-.04.05-.1.09-.16.12s-.13.04-.19.04a.448.448 0 01-.36-.16C14.73 1.93 12.3-.01 8.81-.01 4-.01.05 3.94 0 8.79c-.05 4.24 1.47 8.15 4.65 11.96 1.48 1.78 4.18 4.64 10.42 8.81.42.28.92.43 1.43.43z" fill="#FF5B5B"/><mask id="a" maskUnits="userSpaceOnUse" x="0" y="-.001" width="33" height="30"><path d="M16.5 29.99c.5 0 1-.15 1.42-.43 6.24-4.17 8.94-7.03 10.42-8.81 3.18-3.81 4.7-7.72 4.65-11.96-.05-4.85-4-8.8-8.81-8.8-3.49 0-5.92 1.94-7.33 3.56-.04.05-.1.09-.16.12s-.13.04-.19.04a.448.448 0 01-.36-.16C14.73 1.93 12.3-.01 8.81-.01 4-.01.05 3.94 0 8.79c-.05 4.24 1.47 8.15 4.65 11.96 1.48 1.78 4.18 4.64 10.42 8.81.42.28.92.43 1.43.43z" fill="#FF5B5B"/></mask><g mask="url(#a)"><path fill="#ED2E2E" d="M-10-9.001h26.5v56H-10z"/></g></svg>