<svg width="105.886" height="23.516" fill="none" xmlns="http://www.w3.org/2000/svg"><defs><linearGradient id="a" x1="53.648" y1="-8.898" x2="53.648" y2="31.102" gradientUnits="userSpaceOnUse"><stop stop-color="#FDFDFC"/><stop offset="1" stop-color="#FDFDFC" stop-opacity="0"/></linearGradient></defs><path d="M8.766 23.453q-2.844 0-4.946-.86-2.093-.866-3.82-2.726l3.617-3.648q1.18 1.25 2.524 1.906 1.351.656 3.046.656 1.438 0 2.22-.492.788-.5.788-1.367 0-.797-.578-1.32-.578-.532-1.523-.93-.938-.399-2.078-.766-1.133-.375-2.274-.898-1.133-.531-2.078-1.297-.945-.766-1.523-1.914-.57-1.156-.57-2.852 0-2.18 1.038-3.71Q3.65 1.694 5.5.866 7.36.031 9.828.031q2.461 0 4.54.836 2.077.828 3.421 2.297l-3.648 3.617q-1.024-1.023-2.079-1.531-1.054-.516-2.304-.516-1.18 0-1.852.414-.672.415-.672 1.188 0 .766.57 1.25.579.476 1.524.844.945.367 2.078.75 1.14.383 2.258.898 1.117.508 2.063 1.313.945.796 1.523 2.015t.578 2.946q0 3.39-2.39 5.25-2.383 1.851-6.672 1.851zm16.517-8.476v-4.258h4.476q.836 0 1.524-.336.687-.336 1.102-1.008.414-.672.414-1.664 0-.992-.414-1.68-.415-.687-1.102-1.023-.688-.336-1.524-.336h-4.476V.414h5.469q2.18 0 3.937.883 1.758.875 2.781 2.492 1.024 1.617 1.024 3.922 0 2.242-1.024 3.89-1.023 1.641-2.78 2.508-1.759.868-3.938.868h-5.47zm-4.547 8.125V.414h5.727v22.688h-5.727zm26.785-8.125L38.85.414h6.563l6.617 11.805h-4.601L54.045.414h6.437l-8.734 14.563H47.52zm-.672 8.125V12.64h5.727V23.1H46.85zm19.714-9.188V9.82h4.32q1.407 0 2.157-.687.75-.688.75-1.875 0-1.149-.75-1.867-.75-.72-2.157-.72h-4.32V.415h5.117q2.305 0 4.047.867 1.742.86 2.734 2.367.993 1.5.993 3.516t-1.008 3.54q-1.008 1.515-2.797 2.366-1.79.844-4.195.844h-4.891zm-4.547 9.188V.414h5.727v22.688h-5.727zm12.29 0l-6.595-9.727 5.157-1.25 8.062 10.977h-6.625zm19.517.414q-2.625 0-4.836-.891-2.203-.898-3.851-2.5-1.649-1.602-2.578-3.758-.922-2.164-.922-4.656 0-2.5.906-4.625.914-2.125 2.547-3.727 1.633-1.601 3.836-2.476Q91.135 0 93.76 0t4.828.883q2.211.875 3.844 2.476 1.632 1.602 2.539 3.743.914 2.14.914 4.64 0 2.492-.914 4.64-.907 2.141-2.539 3.759-1.633 1.617-3.829 2.5-2.187.875-4.78.875zm-.062-5.118q1.922 0 3.328-.828 1.406-.836 2.172-2.336.773-1.507.773-3.523 0-1.477-.437-2.688-.43-1.218-1.266-2.093-.828-.883-1.984-1.36-1.149-.484-2.586-.484-1.922 0-3.328.82-1.407.813-2.18 2.32-.766 1.5-.766 3.485 0 1.531.43 2.766.437 1.234 1.266 2.117.835.875 1.984 1.343 1.156.461 2.594.461z" fill="url(#a)" fill-rule="evenodd"/></svg>