<svg width="39" height="41" fill="none" xmlns="http://www.w3.org/2000/svg"><path d="M18.54 3.07l-3.2 10.32c-.13.42-.52.71-.96.71H3.92c-.96 0-1.37 1.21-.61 1.79l8.54 6.5c.34.25.48.69.35 1.09L8.96 33.93c-.29.93.79 1.68 1.56 1.09l8.37-6.36c.36-.28.85-.28 1.21 0l8.37 6.36c.78.59 1.85-.16 1.56-1.09l-3.24-10.45c-.13-.4.01-.84.35-1.09l8.54-6.5c.76-.58.35-1.79-.61-1.79H24.61c-.44 0-.83-.29-.96-.71l-3.2-10.32c-.29-.94-1.62-.94-1.91 0z" fill="#524FF5" fill-rule="evenodd"/><mask id="a" maskUnits="userSpaceOnUse" x="0" y="-.001" width="39" height="40.814"><path d="M18.54 3.07l-3.2 10.32a1 1 0 01-.96.7H3.92c-.96 0-1.37 1.22-.61 1.8l8.54 6.5c.34.25.48.69.35 1.09L8.96 33.93c-.29.93.79 1.68 1.56 1.09l8.37-6.36c.36-.28.85-.28 1.21 0l8.37 6.36c.78.59 1.85-.16 1.56-1.09l-3.24-10.45c-.13-.4.01-.84.35-1.09l8.54-6.5c.76-.58.35-1.8-.61-1.8H24.61a1 1 0 01-.96-.7l-3.2-10.32c-.29-.94-1.62-.94-1.91 0z" fill="#524FF5" fill-rule="evenodd"/></mask><g mask="url(#a)"><path fill="#2421D9" d="M10.961-6.35L29.335 6.3 5.677 40.664l-18.374-12.65z"/></g></svg>