<svg width="40.000000" height="40.000000" viewBox="0 0 40 40" fill="none" xmlns="http://www.w3.org/2000/svg" xmlns:xlink="http://www.w3.org/1999/xlink">
	<desc>
			Created with Pixso.
	</desc>
	<defs/>
	<path id="" d="M23.7188 21L21.375 21L21.375 28L18.25 28L18.25 21L15.7188 21L15.7188 18.0938L18.25 18.0938L18.25 15.9062C18.25 15.0729 18.4062 14.3646 18.7188 13.7812C19.0312 13.1979 19.4688 12.7604 20.0312 12.4688C20.6146 12.1562 21.2812 12 22.0312 12C22.3646 12 22.7188 12.0208 23.0938 12.0625C23.4688 12.0833 23.7604 12.1146 23.9688 12.1562L24.2812 12.1875L24.2812 14.6562L23.0312 14.6562C22.4479 14.6562 22.0208 14.8125 21.75 15.125C21.5 15.4167 21.375 15.7812 21.375 16.2188L21.375 18.0938L24.1562 18.0938L23.7188 21Z" fill="#FFFFFF" fill-opacity="1.000000" fill-rule="evenodd"/>
	<g opacity="0.400000">
		<circle id="Ellipse 5" cx="20.000000" cy="20.000000" r="19.500000" stroke="#FFFFFF" stroke-opacity="1.000000" stroke-width="1.000000"/>
	</g>
</svg>
