<svg width="69.998718" height="70.000977" viewBox="0 0 69.9987 70.001" fill="none" xmlns="http://www.w3.org/2000/svg" xmlns:xlink="http://www.w3.org/1999/xlink">
	<desc>
			Created with Pixso.
	</desc>
	<defs/>
	<path d="M28.4375 52.5C31.5974 52.5 34.7264 51.8777 37.6458 50.6685C40.5652 49.459 43.2178 47.6868 45.4523 45.4521C47.6866 43.2178 49.4591 40.5652 50.6683 37.6458C51.8776 34.7263 52.5 31.5974 52.5 28.4375C52.5 25.2776 51.8776 22.1487 50.6683 19.2292C49.4591 16.3098 47.6866 13.6572 45.4523 11.4229C43.2178 9.18823 40.5652 7.41602 37.6458 6.20654C34.7264 4.99731 31.5974 4.375 28.4375 4.375C22.0557 4.375 15.9353 6.91016 11.4227 11.4229C6.91016 15.9353 4.375 22.0557 4.375 28.4375C4.375 34.8193 6.91016 40.9397 11.4227 45.4521C15.9353 49.9648 22.0557 52.5 28.4375 52.5ZM56.875 28.4375C56.875 35.9795 53.8789 43.2129 48.5458 48.5459C43.2128 53.8789 35.9796 56.875 28.4375 56.875C20.8954 56.875 13.6622 53.8789 8.32916 48.5459C2.99609 43.2129 0 35.9795 0 28.4375C0 20.8955 2.99609 13.6621 8.32916 8.3291C13.6622 2.99609 20.8954 0 28.4375 0C35.9796 0 43.2128 2.99609 48.5458 8.3291C53.8789 13.6621 56.875 20.8955 56.875 28.4375Z" fill="#FFFFFF" fill-opacity="1.000000" fill-rule="evenodd"/>
	<path d="M45.255 51.3711C45.3862 51.5461 45.5262 51.7124 45.6838 51.8743L62.5275 68.718C63.3478 69.5388 64.4607 70.0002 65.6213 70.0007C66.7818 70.0012 67.895 69.5405 68.7159 68.7202C69.5369 67.8999 69.9983 66.7869 69.9987 65.6265C69.9991 64.4658 69.5385 63.3528 68.7181 62.5317L51.8744 45.688C51.718 45.5295 51.5497 45.3833 51.3713 45.2505C49.655 47.5906 47.5927 49.656 45.255 51.3755L45.255 51.3711Z" fill="#FFFFFF" fill-opacity="1.000000" fill-rule="nonzero"/>
	<path d="M28.4375 13.125C29.0177 13.125 29.5741 13.3555 29.9843 13.7656C30.3945 14.176 30.625 14.7324 30.625 15.3125L30.625 26.25L41.5625 26.25C42.1426 26.25 42.699 26.4805 43.1093 26.8906C43.5195 27.301 43.75 27.8574 43.75 28.4375C43.75 29.0176 43.5195 29.574 43.1093 29.9844C42.699 30.3945 42.1426 30.625 41.5625 30.625L30.625 30.625L30.625 41.5625C30.625 42.1426 30.3945 42.699 29.9843 43.1094C29.5741 43.5195 29.0177 43.75 28.4375 43.75C27.8573 43.75 27.3009 43.5195 26.8907 43.1094C26.4805 42.699 26.25 42.1426 26.25 41.5625L26.25 30.625L15.3125 30.625C14.7323 30.625 14.1759 30.3945 13.7657 29.9844C13.3555 29.574 13.125 29.0176 13.125 28.4375C13.125 27.8574 13.3555 27.301 13.7657 26.8906C14.1759 26.4805 14.7323 26.25 15.3125 26.25L26.25 26.25L26.25 15.3125C26.25 14.7324 26.4805 14.176 26.8907 13.7656C27.3009 13.3555 27.8573 13.125 28.4375 13.125Z" fill="#FFFFFF" fill-opacity="1.000000" fill-rule="evenodd"/>
</svg>
