<svg width="8.571411" height="12.857178" viewBox="0 0 8.57141 12.8572" fill="none" xmlns="http://www.w3.org/2000/svg" xmlns:xlink="http://www.w3.org/1999/xlink">
	<desc>
			Created with Pixso.
	</desc>
	<defs/>
	<path id="ï" d="M6.42857 4.28573C6.42857 5.46598 5.46596 6.42859 4.28571 6.42859C3.10547 6.42859 2.14286 5.46598 2.14286 4.28573C2.14286 3.10548 3.10547 2.14287 4.28571 2.14287C5.46596 2.14287 6.42857 3.10548 6.42857 4.28573ZM8.57143 4.28573C8.57143 1.91687 6.65458 1.62125e-05 4.28571 1.62125e-05C1.91685 1.62125e-05 0 1.91687 0 4.28573C0 4.79633 0.0585938 5.32368 0.276228 5.78406L3.33147 12.2629C3.49888 12.6312 3.88393 12.8572 4.28571 12.8572C4.6875 12.8572 5.07255 12.6312 5.24833 12.2629L8.2952 5.78406C8.51284 5.32368 8.57143 4.79633 8.57143 4.28573Z" fill="#2C4058" fill-opacity="1.000000" fill-rule="evenodd"/>
</svg>
